%TF.GenerationSoftware,KiCad,Pcbnew,8.0.5-dirty*%
%TF.CreationDate,2024-10-01T21:11:00+10:00*%
%TF.ProjectId,kestral,6b657374-7261-46c2-9e6b-696361645f70,rev?*%
%TF.SameCoordinates,Original*%
%TF.FileFunction,Copper,L2,Inr*%
%TF.FilePolarity,Positive*%
%FSLAX46Y46*%
G04 Gerber Fmt 4.6, Leading zero omitted, Abs format (unit mm)*
G04 Created by KiCad (PCBNEW 8.0.5-dirty) date 2024-10-01 21:11:00*
%MOMM*%
%LPD*%
G01*
G04 APERTURE LIST*
%TA.AperFunction,ComponentPad*%
%ADD10C,1.803400*%
%TD*%
%TA.AperFunction,ComponentPad*%
%ADD11O,2.100000X1.000000*%
%TD*%
%TA.AperFunction,ComponentPad*%
%ADD12O,1.800000X1.000000*%
%TD*%
%TA.AperFunction,ViaPad*%
%ADD13C,0.600000*%
%TD*%
%TA.AperFunction,Conductor*%
%ADD14C,0.200000*%
%TD*%
G04 APERTURE END LIST*
D10*
%TO.N,VBATT*%
%TO.C,J2*%
X112689999Y-121400000D03*
%TO.N,GND*%
X116500000Y-121400000D03*
%TD*%
D11*
%TO.N,unconnected-(J3-SHIELD-PadS1)_3*%
%TO.C,J3*%
X106925000Y-108180000D03*
D12*
%TO.N,unconnected-(J3-SHIELD-PadS1)_1*%
X102725000Y-108180000D03*
D11*
%TO.N,unconnected-(J3-SHIELD-PadS1)*%
X106925000Y-116820000D03*
D12*
%TO.N,unconnected-(J3-SHIELD-PadS1)_2*%
X102725000Y-116820000D03*
%TD*%
D13*
%TO.N,QSPI_SS*%
X109450000Y-118450000D03*
%TO.N,+3V3*%
X101700000Y-118400000D03*
%TO.N,GND*%
X105800000Y-124200000D03*
X128475000Y-121700000D03*
X119200000Y-111820000D03*
X119200000Y-114900000D03*
X148750000Y-110500000D03*
X115205000Y-114232500D03*
X148750000Y-109000000D03*
X148750000Y-117500000D03*
X130200000Y-109000000D03*
X146100000Y-102500000D03*
X148750000Y-107500000D03*
X108975000Y-116250000D03*
X138200000Y-118200000D03*
X148750000Y-120500000D03*
X134850000Y-122650000D03*
X106200000Y-101100000D03*
X148750000Y-123500000D03*
X148750000Y-116000000D03*
X122762500Y-123275000D03*
X148750000Y-106000000D03*
X148750000Y-104500000D03*
X127912500Y-107482500D03*
X106200000Y-104900000D03*
X117210000Y-113800000D03*
X148750000Y-122000000D03*
X108975000Y-108750000D03*
X123795634Y-114802885D03*
X132100000Y-103200000D03*
X127100000Y-113900000D03*
X122318488Y-113384315D03*
X148750000Y-119000000D03*
X148750000Y-114500000D03*
X125150000Y-105532500D03*
X148750000Y-101500000D03*
X148750000Y-103000000D03*
%TO.N,Net-(J1-In)*%
X143600000Y-112500000D03*
%TO.N,USB_D+*%
X109000000Y-112400000D03*
X113355000Y-105032500D03*
%TO.N,USB_D-*%
X109000000Y-111599997D03*
X113355000Y-103532500D03*
%TO.N,RF_DIO*%
X141500000Y-117900000D03*
X122800000Y-110200000D03*
%TO.N,RF_RST*%
X123700000Y-110400000D03*
X134300000Y-109500000D03*
%TO.N,MISO*%
X143200000Y-102800000D03*
X127500000Y-102000000D03*
%TO.N,+3V3*%
X119987500Y-118125000D03*
X112265000Y-106932500D03*
X119987500Y-119525000D03*
X109800000Y-105800000D03*
X137500000Y-101000000D03*
X119987500Y-118825000D03*
X129562500Y-105332500D03*
X117900000Y-102132500D03*
X127700000Y-103500000D03*
X126925000Y-121575000D03*
X123400000Y-111500000D03*
X123800000Y-100982500D03*
X139487500Y-122687500D03*
X117223131Y-105532500D03*
X122100000Y-111200000D03*
X118124265Y-110224265D03*
%TO.N,MOSI*%
X141300000Y-108300000D03*
X125000000Y-100982500D03*
%TO.N,+1V1*%
X117300000Y-102900000D03*
X124700000Y-111420000D03*
X128600000Y-104400000D03*
X118251472Y-105532500D03*
%TO.N,MCU_RX*%
X119800000Y-111000000D03*
X142100000Y-122600000D03*
X125800000Y-123000000D03*
%TO.N,GPS_RST*%
X139600000Y-102900000D03*
X136750000Y-110750000D03*
X120883750Y-111516250D03*
%TO.N,MCU_TX*%
X143800000Y-122400000D03*
X124900000Y-123400000D03*
X119000000Y-110400000D03*
%TO.N,Net-(U3-QSPI_SD1)*%
X112670000Y-114220000D03*
X117278765Y-107628735D03*
%TO.N,Net-(U3-QSPI_SD2)*%
X118180113Y-107532500D03*
X113940000Y-114220000D03*
%TO.N,QSPI_SS*%
X111375000Y-114230000D03*
X116382528Y-107532500D03*
%TO.N,GPS_1PPS*%
X129500000Y-122300000D03*
X113300000Y-116000000D03*
X113100000Y-101500000D03*
%TD*%
D14*
%TO.N,QSPI_SS*%
X109450000Y-118450000D02*
X111375000Y-116525000D01*
X111375000Y-116525000D02*
X111375000Y-114230000D01*
%TO.N,GPS_1PPS*%
X113300000Y-116000000D02*
X113400000Y-116000000D01*
X113400000Y-116000000D02*
X119700000Y-122300000D01*
X119700000Y-122300000D02*
X129500000Y-122300000D01*
%TO.N,+3V3*%
X117223131Y-105532500D02*
X117223131Y-105726989D01*
X117223131Y-105726989D02*
X122100000Y-110603858D01*
X122100000Y-110603858D02*
X122100000Y-111200000D01*
%TO.N,MCU_RX*%
X141100000Y-123600000D02*
X142100000Y-122600000D01*
X126400000Y-123600000D02*
X141100000Y-123600000D01*
X125800000Y-123000000D02*
X126400000Y-123600000D01*
%TO.N,GPS_RST*%
X121731832Y-112364332D02*
X135135668Y-112364332D01*
X120883750Y-111516250D02*
X121731832Y-112364332D01*
X135135668Y-112364332D02*
X136750000Y-110750000D01*
%TO.N,MCU_TX*%
X124900000Y-123400000D02*
X125600000Y-124100000D01*
X142100000Y-124100000D02*
X143800000Y-122400000D01*
X125600000Y-124100000D02*
X142100000Y-124100000D01*
%TO.N,Net-(U3-QSPI_SD1)*%
X117175000Y-109225000D02*
X112670000Y-113730000D01*
X112670000Y-113730000D02*
X112670000Y-114220000D01*
X117175000Y-107732500D02*
X117175000Y-109225000D01*
X117278765Y-107628735D02*
X117175000Y-107732500D01*
%TO.N,Net-(U3-QSPI_SD2)*%
X118180113Y-107532500D02*
X118075000Y-107637613D01*
X113940000Y-113560000D02*
X113940000Y-114220000D01*
X118075000Y-109425000D02*
X113940000Y-113560000D01*
X118075000Y-107637613D02*
X118075000Y-109425000D01*
%TO.N,QSPI_SS*%
X116382528Y-109037472D02*
X111395000Y-114025000D01*
X111375000Y-114035000D02*
X111375000Y-114230000D01*
X116382528Y-107532500D02*
X116382528Y-109037472D01*
%TD*%
%TA.AperFunction,Conductor*%
%TO.N,GND*%
G36*
X112869925Y-100520185D02*
G01*
X112915680Y-100572989D01*
X112925624Y-100642147D01*
X112896599Y-100705703D01*
X112843840Y-100741542D01*
X112750478Y-100774210D01*
X112597737Y-100870184D01*
X112470184Y-100997737D01*
X112374211Y-101150476D01*
X112314631Y-101320745D01*
X112314630Y-101320750D01*
X112294435Y-101499996D01*
X112294435Y-101500003D01*
X112314630Y-101679249D01*
X112314631Y-101679254D01*
X112374211Y-101849523D01*
X112465266Y-101994435D01*
X112470184Y-102002262D01*
X112597738Y-102129816D01*
X112750478Y-102225789D01*
X112846167Y-102259272D01*
X112920745Y-102285368D01*
X112920750Y-102285369D01*
X113099996Y-102305565D01*
X113100000Y-102305565D01*
X113100004Y-102305565D01*
X113279249Y-102285369D01*
X113279252Y-102285368D01*
X113279255Y-102285368D01*
X113449522Y-102225789D01*
X113602262Y-102129816D01*
X113729816Y-102002262D01*
X113825789Y-101849522D01*
X113885368Y-101679255D01*
X113886264Y-101671302D01*
X113905565Y-101500003D01*
X113905565Y-101499996D01*
X113885369Y-101320750D01*
X113885368Y-101320745D01*
X113841170Y-101194435D01*
X113825789Y-101150478D01*
X113815688Y-101134403D01*
X113731237Y-101000000D01*
X113729816Y-100997738D01*
X113602262Y-100870184D01*
X113449521Y-100774210D01*
X113356160Y-100741542D01*
X113299383Y-100700820D01*
X113273636Y-100635867D01*
X113287092Y-100567306D01*
X113335479Y-100516903D01*
X113397114Y-100500500D01*
X122945805Y-100500500D01*
X123012844Y-100520185D01*
X123058599Y-100572989D01*
X123068543Y-100642147D01*
X123062846Y-100665455D01*
X123014633Y-100803237D01*
X123014630Y-100803250D01*
X122994435Y-100982496D01*
X122994435Y-100982503D01*
X123014630Y-101161749D01*
X123014631Y-101161754D01*
X123074211Y-101332023D01*
X123121141Y-101406711D01*
X123170184Y-101484762D01*
X123297738Y-101612316D01*
X123450478Y-101708289D01*
X123620745Y-101767868D01*
X123620750Y-101767869D01*
X123799996Y-101788065D01*
X123800000Y-101788065D01*
X123800004Y-101788065D01*
X123979249Y-101767869D01*
X123979252Y-101767868D01*
X123979255Y-101767868D01*
X124149522Y-101708289D01*
X124302262Y-101612316D01*
X124312319Y-101602259D01*
X124373642Y-101568774D01*
X124443334Y-101573758D01*
X124487681Y-101602259D01*
X124497738Y-101612316D01*
X124650478Y-101708289D01*
X124820745Y-101767868D01*
X124820750Y-101767869D01*
X124999996Y-101788065D01*
X125000000Y-101788065D01*
X125000004Y-101788065D01*
X125179249Y-101767869D01*
X125179252Y-101767868D01*
X125179255Y-101767868D01*
X125349522Y-101708289D01*
X125502262Y-101612316D01*
X125629816Y-101484762D01*
X125725789Y-101332022D01*
X125785368Y-101161755D01*
X125788874Y-101130639D01*
X125805565Y-100982503D01*
X125805565Y-100982496D01*
X125785369Y-100803250D01*
X125785366Y-100803237D01*
X125737154Y-100665455D01*
X125733592Y-100595676D01*
X125768320Y-100535049D01*
X125830314Y-100502821D01*
X125854195Y-100500500D01*
X136651928Y-100500500D01*
X136718967Y-100520185D01*
X136764722Y-100572989D01*
X136774666Y-100642147D01*
X136768970Y-100665454D01*
X136714632Y-100820742D01*
X136714630Y-100820750D01*
X136694435Y-100999996D01*
X136694435Y-101000003D01*
X136714630Y-101179249D01*
X136714631Y-101179254D01*
X136774211Y-101349523D01*
X136810145Y-101406711D01*
X136870184Y-101502262D01*
X136997738Y-101629816D01*
X137150478Y-101725789D01*
X137270733Y-101767868D01*
X137320745Y-101785368D01*
X137320750Y-101785369D01*
X137499996Y-101805565D01*
X137500000Y-101805565D01*
X137500004Y-101805565D01*
X137679249Y-101785369D01*
X137679252Y-101785368D01*
X137679255Y-101785368D01*
X137849522Y-101725789D01*
X138002262Y-101629816D01*
X138129816Y-101502262D01*
X138225789Y-101349522D01*
X138285368Y-101179255D01*
X138287340Y-101161754D01*
X138305565Y-101000003D01*
X138305565Y-100999996D01*
X138285369Y-100820750D01*
X138285367Y-100820742D01*
X138231030Y-100665454D01*
X138227469Y-100595676D01*
X138262198Y-100535048D01*
X138324191Y-100502821D01*
X138348072Y-100500500D01*
X148626000Y-100500500D01*
X148693039Y-100520185D01*
X148738794Y-100572989D01*
X148750000Y-100624500D01*
X148750000Y-124375500D01*
X148730315Y-124442539D01*
X148677511Y-124488294D01*
X148626000Y-124499500D01*
X142849096Y-124499500D01*
X142782057Y-124479815D01*
X142736302Y-124427011D01*
X142726358Y-124357853D01*
X142755383Y-124294297D01*
X142761415Y-124287819D01*
X143247447Y-123801787D01*
X143818535Y-123230698D01*
X143879856Y-123197215D01*
X143892311Y-123195163D01*
X143979255Y-123185368D01*
X144149522Y-123125789D01*
X144302262Y-123029816D01*
X144429816Y-122902262D01*
X144525789Y-122749522D01*
X144585368Y-122579255D01*
X144585522Y-122577892D01*
X144605565Y-122400003D01*
X144605565Y-122399996D01*
X144585369Y-122220750D01*
X144585368Y-122220745D01*
X144572943Y-122185237D01*
X144525789Y-122050478D01*
X144429816Y-121897738D01*
X144302262Y-121770184D01*
X144149523Y-121674211D01*
X143979254Y-121614631D01*
X143979249Y-121614630D01*
X143800004Y-121594435D01*
X143799996Y-121594435D01*
X143620750Y-121614630D01*
X143620745Y-121614631D01*
X143450476Y-121674211D01*
X143297737Y-121770184D01*
X143170184Y-121897737D01*
X143074210Y-122050478D01*
X143025445Y-122189843D01*
X142984723Y-122246620D01*
X142919770Y-122272367D01*
X142851209Y-122258911D01*
X142803409Y-122214861D01*
X142729815Y-122097737D01*
X142602262Y-121970184D01*
X142449523Y-121874211D01*
X142279254Y-121814631D01*
X142279249Y-121814630D01*
X142100004Y-121794435D01*
X142099996Y-121794435D01*
X141920750Y-121814630D01*
X141920745Y-121814631D01*
X141750476Y-121874211D01*
X141597737Y-121970184D01*
X141470184Y-122097737D01*
X141374210Y-122250478D01*
X141314630Y-122420750D01*
X141304837Y-122507668D01*
X141277770Y-122572082D01*
X141269298Y-122581465D01*
X140887584Y-122963181D01*
X140826261Y-122996666D01*
X140799903Y-122999500D01*
X140396668Y-122999500D01*
X140329629Y-122979815D01*
X140283874Y-122927011D01*
X140273448Y-122861617D01*
X140293065Y-122687503D01*
X140293065Y-122687496D01*
X140272869Y-122508250D01*
X140272868Y-122508245D01*
X140262722Y-122479249D01*
X140213289Y-122337978D01*
X140117316Y-122185238D01*
X139989762Y-122057684D01*
X139978291Y-122050476D01*
X139837023Y-121961711D01*
X139666754Y-121902131D01*
X139666749Y-121902130D01*
X139487504Y-121881935D01*
X139487496Y-121881935D01*
X139308250Y-121902130D01*
X139308245Y-121902131D01*
X139137976Y-121961711D01*
X138985237Y-122057684D01*
X138857684Y-122185237D01*
X138761711Y-122337976D01*
X138702131Y-122508245D01*
X138702130Y-122508250D01*
X138681935Y-122687496D01*
X138681935Y-122687503D01*
X138701552Y-122861617D01*
X138689497Y-122930439D01*
X138642148Y-122981818D01*
X138578332Y-122999500D01*
X130230012Y-122999500D01*
X130162973Y-122979815D01*
X130117218Y-122927011D01*
X130107274Y-122857853D01*
X130128194Y-122809467D01*
X130126111Y-122808158D01*
X130143475Y-122780524D01*
X130225789Y-122649522D01*
X130285368Y-122479255D01*
X130290335Y-122435170D01*
X130305565Y-122300003D01*
X130305565Y-122299996D01*
X130285369Y-122120750D01*
X130285368Y-122120745D01*
X130225789Y-121950478D01*
X130129816Y-121797738D01*
X130002262Y-121670184D01*
X129991117Y-121663181D01*
X129849523Y-121574211D01*
X129679254Y-121514631D01*
X129679249Y-121514630D01*
X129500004Y-121494435D01*
X129499996Y-121494435D01*
X129320750Y-121514630D01*
X129320745Y-121514631D01*
X129150476Y-121574211D01*
X128997736Y-121670185D01*
X128994903Y-121672445D01*
X128992724Y-121673334D01*
X128991842Y-121673889D01*
X128991744Y-121673734D01*
X128930217Y-121698855D01*
X128917588Y-121699500D01*
X127854565Y-121699500D01*
X127787526Y-121679815D01*
X127741771Y-121627011D01*
X127731946Y-121581851D01*
X127731345Y-121581919D01*
X127730682Y-121576041D01*
X127730565Y-121575500D01*
X127730565Y-121574996D01*
X127710369Y-121395750D01*
X127710368Y-121395745D01*
X127650788Y-121225476D01*
X127554815Y-121072737D01*
X127427262Y-120945184D01*
X127274523Y-120849211D01*
X127104254Y-120789631D01*
X127104249Y-120789630D01*
X126925004Y-120769435D01*
X126924996Y-120769435D01*
X126745750Y-120789630D01*
X126745745Y-120789631D01*
X126575476Y-120849211D01*
X126422737Y-120945184D01*
X126295184Y-121072737D01*
X126199211Y-121225476D01*
X126139631Y-121395745D01*
X126139630Y-121395750D01*
X126119435Y-121574996D01*
X126119435Y-121575500D01*
X126119342Y-121575813D01*
X126118655Y-121581919D01*
X126117585Y-121581798D01*
X126099750Y-121642539D01*
X126046946Y-121688294D01*
X125995435Y-121699500D01*
X120000097Y-121699500D01*
X119933058Y-121679815D01*
X119912416Y-121663181D01*
X116374231Y-118124996D01*
X119181935Y-118124996D01*
X119181935Y-118125003D01*
X119202130Y-118304249D01*
X119202132Y-118304257D01*
X119247547Y-118434046D01*
X119251108Y-118503825D01*
X119247547Y-118515954D01*
X119202132Y-118645742D01*
X119202130Y-118645750D01*
X119181935Y-118824996D01*
X119181935Y-118825003D01*
X119202130Y-119004249D01*
X119202132Y-119004257D01*
X119247547Y-119134046D01*
X119251108Y-119203825D01*
X119247547Y-119215954D01*
X119202132Y-119345742D01*
X119202130Y-119345750D01*
X119181935Y-119524996D01*
X119181935Y-119525003D01*
X119202130Y-119704249D01*
X119202131Y-119704254D01*
X119261711Y-119874523D01*
X119339172Y-119997800D01*
X119357684Y-120027262D01*
X119485238Y-120154816D01*
X119575580Y-120211582D01*
X119592324Y-120222103D01*
X119637978Y-120250789D01*
X119721301Y-120279945D01*
X119808245Y-120310368D01*
X119808250Y-120310369D01*
X119987496Y-120330565D01*
X119987500Y-120330565D01*
X119987504Y-120330565D01*
X120166749Y-120310369D01*
X120166752Y-120310368D01*
X120166755Y-120310368D01*
X120337022Y-120250789D01*
X120489762Y-120154816D01*
X120617316Y-120027262D01*
X120713289Y-119874522D01*
X120772868Y-119704255D01*
X120793065Y-119525000D01*
X120772868Y-119345745D01*
X120772867Y-119345742D01*
X120772866Y-119345737D01*
X120727453Y-119215955D01*
X120723891Y-119146176D01*
X120727453Y-119134045D01*
X120772866Y-119004262D01*
X120772869Y-119004249D01*
X120793065Y-118825003D01*
X120793065Y-118824996D01*
X120772869Y-118645750D01*
X120772866Y-118645737D01*
X120727453Y-118515955D01*
X120723891Y-118446176D01*
X120727453Y-118434045D01*
X120772866Y-118304262D01*
X120772869Y-118304249D01*
X120793065Y-118125003D01*
X120793065Y-118124996D01*
X120772869Y-117945750D01*
X120772868Y-117945745D01*
X120756860Y-117899996D01*
X140694435Y-117899996D01*
X140694435Y-117900003D01*
X140714630Y-118079249D01*
X140714631Y-118079254D01*
X140774211Y-118249523D01*
X140787546Y-118270745D01*
X140870184Y-118402262D01*
X140997738Y-118529816D01*
X141150478Y-118625789D01*
X141320745Y-118685368D01*
X141320750Y-118685369D01*
X141499996Y-118705565D01*
X141500000Y-118705565D01*
X141500004Y-118705565D01*
X141679249Y-118685369D01*
X141679252Y-118685368D01*
X141679255Y-118685368D01*
X141849522Y-118625789D01*
X142002262Y-118529816D01*
X142129816Y-118402262D01*
X142225789Y-118249522D01*
X142285368Y-118079255D01*
X142285369Y-118079249D01*
X142305565Y-117900003D01*
X142305565Y-117899996D01*
X142285369Y-117720750D01*
X142285368Y-117720745D01*
X142265733Y-117664632D01*
X142225789Y-117550478D01*
X142200871Y-117510822D01*
X142167544Y-117457782D01*
X142129816Y-117397738D01*
X142002262Y-117270184D01*
X141849523Y-117174211D01*
X141679254Y-117114631D01*
X141679249Y-117114630D01*
X141500004Y-117094435D01*
X141499996Y-117094435D01*
X141320750Y-117114630D01*
X141320745Y-117114631D01*
X141150476Y-117174211D01*
X140997737Y-117270184D01*
X140870184Y-117397737D01*
X140774211Y-117550476D01*
X140714631Y-117720745D01*
X140714630Y-117720750D01*
X140694435Y-117899996D01*
X120756860Y-117899996D01*
X120713288Y-117775476D01*
X120643640Y-117664632D01*
X120617316Y-117622738D01*
X120489762Y-117495184D01*
X120430242Y-117457785D01*
X120337023Y-117399211D01*
X120166754Y-117339631D01*
X120166749Y-117339630D01*
X119987504Y-117319435D01*
X119987496Y-117319435D01*
X119808250Y-117339630D01*
X119808245Y-117339631D01*
X119637976Y-117399211D01*
X119485237Y-117495184D01*
X119357684Y-117622737D01*
X119261711Y-117775476D01*
X119202131Y-117945745D01*
X119202130Y-117945750D01*
X119181935Y-118124996D01*
X116374231Y-118124996D01*
X114113663Y-115864428D01*
X114084303Y-115817704D01*
X114025789Y-115650478D01*
X113929816Y-115497738D01*
X113802262Y-115370184D01*
X113649523Y-115274211D01*
X113479254Y-115214631D01*
X113479249Y-115214630D01*
X113300004Y-115194435D01*
X113299996Y-115194435D01*
X113120750Y-115214630D01*
X113120745Y-115214631D01*
X112950476Y-115274211D01*
X112797737Y-115370184D01*
X112670184Y-115497737D01*
X112574211Y-115650476D01*
X112514631Y-115820745D01*
X112514630Y-115820750D01*
X112494435Y-115999996D01*
X112494435Y-116000003D01*
X112514630Y-116179249D01*
X112514631Y-116179254D01*
X112574211Y-116349523D01*
X112634796Y-116445943D01*
X112670184Y-116502262D01*
X112797738Y-116629816D01*
X112888080Y-116686582D01*
X112943586Y-116721459D01*
X112950478Y-116725789D01*
X113120742Y-116785367D01*
X113120745Y-116785368D01*
X113120750Y-116785369D01*
X113299997Y-116805565D01*
X113304968Y-116805565D01*
X113372007Y-116825250D01*
X113392649Y-116841884D01*
X119215139Y-122664374D01*
X119215149Y-122664385D01*
X119219479Y-122668715D01*
X119219480Y-122668716D01*
X119331284Y-122780520D01*
X119331286Y-122780521D01*
X119331290Y-122780524D01*
X119454361Y-122851578D01*
X119468216Y-122859577D01*
X119580019Y-122889534D01*
X119620942Y-122900500D01*
X119620943Y-122900500D01*
X124051928Y-122900500D01*
X124118967Y-122920185D01*
X124164722Y-122972989D01*
X124174666Y-123042147D01*
X124168970Y-123065454D01*
X124114632Y-123220742D01*
X124114630Y-123220750D01*
X124094435Y-123399996D01*
X124094435Y-123400003D01*
X124114630Y-123579249D01*
X124114631Y-123579254D01*
X124174211Y-123749523D01*
X124207051Y-123801787D01*
X124270184Y-123902262D01*
X124397738Y-124029816D01*
X124550478Y-124125789D01*
X124720745Y-124185368D01*
X124807669Y-124195161D01*
X124872080Y-124222226D01*
X124881465Y-124230700D01*
X124938584Y-124287819D01*
X124972069Y-124349142D01*
X124967085Y-124418834D01*
X124925213Y-124474767D01*
X124859749Y-124499184D01*
X124850903Y-124499500D01*
X103003751Y-124499500D01*
X102996264Y-124499274D01*
X102706205Y-124481728D01*
X102691340Y-124479923D01*
X102409201Y-124428219D01*
X102394663Y-124424635D01*
X102120832Y-124339306D01*
X102106831Y-124333997D01*
X101845263Y-124216275D01*
X101832004Y-124209316D01*
X101792389Y-124185368D01*
X101586537Y-124060926D01*
X101574217Y-124052422D01*
X101545361Y-124029815D01*
X101348426Y-123875526D01*
X101337218Y-123865596D01*
X101134403Y-123662781D01*
X101124473Y-123651573D01*
X100947573Y-123425776D01*
X100939075Y-123413465D01*
X100790680Y-123167989D01*
X100783727Y-123154743D01*
X100666000Y-122893163D01*
X100660693Y-122879167D01*
X100656825Y-122866755D01*
X100575363Y-122605335D01*
X100571780Y-122590798D01*
X100569665Y-122579255D01*
X100520075Y-122308657D01*
X100518271Y-122293794D01*
X100513852Y-122220745D01*
X100500726Y-122003736D01*
X100500613Y-122000000D01*
X100894592Y-122000000D01*
X100914201Y-122286680D01*
X100914201Y-122286684D01*
X100914202Y-122286686D01*
X100917235Y-122301281D01*
X100972666Y-122568034D01*
X100972667Y-122568037D01*
X101068894Y-122838793D01*
X101068893Y-122838793D01*
X101201098Y-123093935D01*
X101366812Y-123328700D01*
X101433405Y-123400003D01*
X101562947Y-123538708D01*
X101701677Y-123651573D01*
X101785853Y-123720055D01*
X102031382Y-123869365D01*
X102218237Y-123950526D01*
X102294942Y-123983844D01*
X102571642Y-124061371D01*
X102821920Y-124095771D01*
X102856321Y-124100500D01*
X102856322Y-124100500D01*
X103143679Y-124100500D01*
X103174370Y-124096281D01*
X103428358Y-124061371D01*
X103705058Y-123983844D01*
X103818015Y-123934779D01*
X103968617Y-123869365D01*
X103968620Y-123869363D01*
X103968625Y-123869361D01*
X104214147Y-123720055D01*
X104437053Y-123538708D01*
X104633189Y-123328698D01*
X104798901Y-123093936D01*
X104931104Y-122838797D01*
X105027334Y-122568032D01*
X105085798Y-122286686D01*
X105105408Y-122000000D01*
X105085798Y-121713314D01*
X105027334Y-121431968D01*
X105015970Y-121399994D01*
X111282993Y-121399994D01*
X111282993Y-121400005D01*
X111302182Y-121631582D01*
X111302182Y-121631585D01*
X111302183Y-121631586D01*
X111312530Y-121672445D01*
X111359228Y-121856854D01*
X111452574Y-122069662D01*
X111551286Y-122220750D01*
X111579674Y-122264201D01*
X111737060Y-122435168D01*
X111737063Y-122435170D01*
X111737066Y-122435173D01*
X111920431Y-122577892D01*
X111920437Y-122577896D01*
X111920440Y-122577898D01*
X112124811Y-122688499D01*
X112344599Y-122763952D01*
X112573809Y-122802200D01*
X112806189Y-122802200D01*
X113035399Y-122763952D01*
X113255187Y-122688499D01*
X113459558Y-122577898D01*
X113467031Y-122572082D01*
X113586296Y-122479254D01*
X113642938Y-122435168D01*
X113800324Y-122264201D01*
X113927424Y-122069661D01*
X114020770Y-121856854D01*
X114077815Y-121631586D01*
X114094356Y-121431968D01*
X114097005Y-121400005D01*
X114097005Y-121399994D01*
X114084211Y-121245609D01*
X114077815Y-121168414D01*
X114020770Y-120943146D01*
X113927424Y-120730339D01*
X113800324Y-120535799D01*
X113642938Y-120364832D01*
X113642933Y-120364828D01*
X113642931Y-120364826D01*
X113459566Y-120222107D01*
X113459560Y-120222103D01*
X113255187Y-120111501D01*
X113255179Y-120111498D01*
X113035401Y-120036048D01*
X112806189Y-119997800D01*
X112573809Y-119997800D01*
X112344596Y-120036048D01*
X112124818Y-120111498D01*
X112124810Y-120111501D01*
X111920437Y-120222103D01*
X111920431Y-120222107D01*
X111737066Y-120364826D01*
X111737063Y-120364829D01*
X111579675Y-120535797D01*
X111579672Y-120535801D01*
X111452574Y-120730337D01*
X111359228Y-120943145D01*
X111302182Y-121168417D01*
X111282993Y-121399994D01*
X105015970Y-121399994D01*
X104931105Y-121161206D01*
X104931106Y-121161206D01*
X104798901Y-120906064D01*
X104633187Y-120671299D01*
X104554554Y-120587105D01*
X104437053Y-120461292D01*
X104214147Y-120279945D01*
X104214146Y-120279944D01*
X103968617Y-120130634D01*
X103705063Y-120016158D01*
X103705061Y-120016157D01*
X103705058Y-120016156D01*
X103575578Y-119979877D01*
X103428364Y-119938630D01*
X103428359Y-119938629D01*
X103428358Y-119938629D01*
X103286018Y-119919064D01*
X103143679Y-119899500D01*
X103143678Y-119899500D01*
X102856322Y-119899500D01*
X102856321Y-119899500D01*
X102571642Y-119938629D01*
X102571635Y-119938630D01*
X102363861Y-119996845D01*
X102294942Y-120016156D01*
X102294939Y-120016156D01*
X102294936Y-120016158D01*
X102294935Y-120016158D01*
X102031382Y-120130634D01*
X101785853Y-120279944D01*
X101562950Y-120461289D01*
X101366812Y-120671299D01*
X101201098Y-120906064D01*
X101068894Y-121161206D01*
X100972667Y-121431962D01*
X100972666Y-121431965D01*
X100914201Y-121713319D01*
X100894592Y-122000000D01*
X100500613Y-122000000D01*
X100500500Y-121996249D01*
X100500500Y-118399996D01*
X100894435Y-118399996D01*
X100894435Y-118400003D01*
X100914630Y-118579249D01*
X100914631Y-118579254D01*
X100974211Y-118749523D01*
X101021637Y-118825000D01*
X101070184Y-118902262D01*
X101197738Y-119029816D01*
X101350478Y-119125789D01*
X101408741Y-119146176D01*
X101520745Y-119185368D01*
X101520750Y-119185369D01*
X101699996Y-119205565D01*
X101700000Y-119205565D01*
X101700004Y-119205565D01*
X101879249Y-119185369D01*
X101879252Y-119185368D01*
X101879255Y-119185368D01*
X102049522Y-119125789D01*
X102202262Y-119029816D01*
X102329816Y-118902262D01*
X102425789Y-118749522D01*
X102485368Y-118579255D01*
X102489528Y-118542333D01*
X102499932Y-118449996D01*
X108644435Y-118449996D01*
X108644435Y-118450003D01*
X108664630Y-118629249D01*
X108664631Y-118629254D01*
X108724211Y-118799523D01*
X108788767Y-118902262D01*
X108820184Y-118952262D01*
X108947738Y-119079816D01*
X109020902Y-119125788D01*
X109098461Y-119174522D01*
X109100478Y-119175789D01*
X109185573Y-119205565D01*
X109270745Y-119235368D01*
X109270750Y-119235369D01*
X109449996Y-119255565D01*
X109450000Y-119255565D01*
X109450004Y-119255565D01*
X109629249Y-119235369D01*
X109629252Y-119235368D01*
X109629255Y-119235368D01*
X109799522Y-119175789D01*
X109952262Y-119079816D01*
X110079816Y-118952262D01*
X110175789Y-118799522D01*
X110235368Y-118629255D01*
X110245161Y-118542329D01*
X110272226Y-118477918D01*
X110280690Y-118468543D01*
X111733506Y-117015728D01*
X111733511Y-117015724D01*
X111743714Y-117005520D01*
X111743716Y-117005520D01*
X111855520Y-116893716D01*
X111918074Y-116785368D01*
X111934577Y-116756785D01*
X111975500Y-116604057D01*
X111975500Y-116445943D01*
X111975500Y-114953385D01*
X111995185Y-114886346D01*
X112047989Y-114840591D01*
X112117147Y-114830647D01*
X112165473Y-114848392D01*
X112167735Y-114849813D01*
X112167738Y-114849816D01*
X112225875Y-114886346D01*
X112320475Y-114945788D01*
X112490745Y-115005368D01*
X112490750Y-115005369D01*
X112669996Y-115025565D01*
X112670000Y-115025565D01*
X112670004Y-115025565D01*
X112849249Y-115005369D01*
X112849252Y-115005368D01*
X112849255Y-115005368D01*
X113019522Y-114945789D01*
X113172262Y-114849816D01*
X113217319Y-114804759D01*
X113278642Y-114771274D01*
X113348334Y-114776258D01*
X113392681Y-114804759D01*
X113437738Y-114849816D01*
X113590478Y-114945789D01*
X113760745Y-115005368D01*
X113760750Y-115005369D01*
X113939996Y-115025565D01*
X113940000Y-115025565D01*
X113940004Y-115025565D01*
X114119249Y-115005369D01*
X114119252Y-115005368D01*
X114119255Y-115005368D01*
X114289522Y-114945789D01*
X114442262Y-114849816D01*
X114569816Y-114722262D01*
X114665789Y-114569522D01*
X114725368Y-114399255D01*
X114744438Y-114230003D01*
X114745565Y-114220003D01*
X114745565Y-114219996D01*
X114725369Y-114040750D01*
X114725368Y-114040745D01*
X114665789Y-113870478D01*
X114646227Y-113839345D01*
X114627227Y-113772111D01*
X114647594Y-113705276D01*
X114663535Y-113685698D01*
X117474180Y-110875053D01*
X117535501Y-110841570D01*
X117605193Y-110846554D01*
X117627827Y-110857740D01*
X117654035Y-110874208D01*
X117774740Y-110950053D01*
X117945010Y-111009633D01*
X117945015Y-111009634D01*
X118124261Y-111029830D01*
X118124265Y-111029830D01*
X118124269Y-111029830D01*
X118303514Y-111009634D01*
X118303515Y-111009633D01*
X118303520Y-111009633D01*
X118358900Y-110990253D01*
X118428678Y-110986691D01*
X118487536Y-111019614D01*
X118497738Y-111029816D01*
X118650478Y-111125789D01*
X118820745Y-111185368D01*
X118820750Y-111185369D01*
X118892712Y-111193476D01*
X118947391Y-111199637D01*
X119011805Y-111226703D01*
X119050549Y-111281902D01*
X119074209Y-111349518D01*
X119074210Y-111349522D01*
X119153550Y-111475789D01*
X119170184Y-111502262D01*
X119297738Y-111629816D01*
X119388080Y-111686582D01*
X119432721Y-111714632D01*
X119450478Y-111725789D01*
X119603641Y-111779383D01*
X119620745Y-111785368D01*
X119620750Y-111785369D01*
X119799996Y-111805565D01*
X119800000Y-111805565D01*
X119800004Y-111805565D01*
X119979246Y-111785369D01*
X119979245Y-111785369D01*
X119979255Y-111785368D01*
X119996359Y-111779382D01*
X120066133Y-111775819D01*
X120126762Y-111810545D01*
X120154354Y-111855465D01*
X120157961Y-111865772D01*
X120253934Y-112018512D01*
X120381488Y-112146066D01*
X120534228Y-112242039D01*
X120704495Y-112301618D01*
X120791419Y-112311411D01*
X120855830Y-112338476D01*
X120865215Y-112346950D01*
X121246971Y-112728706D01*
X121246981Y-112728717D01*
X121251311Y-112733047D01*
X121251312Y-112733048D01*
X121363116Y-112844852D01*
X121449927Y-112894971D01*
X121449929Y-112894973D01*
X121487983Y-112916943D01*
X121500047Y-112923909D01*
X121652775Y-112964832D01*
X121810889Y-112964832D01*
X135048999Y-112964832D01*
X135049015Y-112964833D01*
X135056611Y-112964833D01*
X135214722Y-112964833D01*
X135214725Y-112964833D01*
X135367453Y-112923909D01*
X135417572Y-112894971D01*
X135504384Y-112844852D01*
X135616188Y-112733048D01*
X135616188Y-112733046D01*
X135626396Y-112722839D01*
X135626398Y-112722836D01*
X135849238Y-112499996D01*
X142794435Y-112499996D01*
X142794435Y-112500003D01*
X142814630Y-112679249D01*
X142814631Y-112679254D01*
X142874211Y-112849523D01*
X142946665Y-112964832D01*
X142970184Y-113002262D01*
X143097738Y-113129816D01*
X143250478Y-113225789D01*
X143420745Y-113285368D01*
X143420750Y-113285369D01*
X143599996Y-113305565D01*
X143600000Y-113305565D01*
X143600004Y-113305565D01*
X143779249Y-113285369D01*
X143779252Y-113285368D01*
X143779255Y-113285368D01*
X143949522Y-113225789D01*
X144102262Y-113129816D01*
X144229816Y-113002262D01*
X144325789Y-112849522D01*
X144385368Y-112679255D01*
X144385369Y-112679249D01*
X144405565Y-112500003D01*
X144405565Y-112499996D01*
X144385369Y-112320750D01*
X144385368Y-112320745D01*
X144378675Y-112301617D01*
X144325789Y-112150478D01*
X144229816Y-111997738D01*
X144102262Y-111870184D01*
X144078837Y-111855465D01*
X143949523Y-111774211D01*
X143779254Y-111714631D01*
X143779249Y-111714630D01*
X143600004Y-111694435D01*
X143599996Y-111694435D01*
X143420750Y-111714630D01*
X143420745Y-111714631D01*
X143250476Y-111774211D01*
X143097737Y-111870184D01*
X142970184Y-111997737D01*
X142874211Y-112150476D01*
X142814631Y-112320745D01*
X142814630Y-112320750D01*
X142794435Y-112499996D01*
X135849238Y-112499996D01*
X136768535Y-111580698D01*
X136829856Y-111547215D01*
X136842311Y-111545163D01*
X136929255Y-111535368D01*
X137099522Y-111475789D01*
X137252262Y-111379816D01*
X137379816Y-111252262D01*
X137475789Y-111099522D01*
X137535368Y-110929255D01*
X137541475Y-110875055D01*
X137555565Y-110750003D01*
X137555565Y-110749996D01*
X137535369Y-110570750D01*
X137535368Y-110570745D01*
X137475788Y-110400476D01*
X137403461Y-110285369D01*
X137379816Y-110247738D01*
X137252262Y-110120184D01*
X137141326Y-110050478D01*
X137099523Y-110024211D01*
X136929254Y-109964631D01*
X136929249Y-109964630D01*
X136750004Y-109944435D01*
X136749996Y-109944435D01*
X136570750Y-109964630D01*
X136570745Y-109964631D01*
X136400476Y-110024211D01*
X136247737Y-110120184D01*
X136120184Y-110247737D01*
X136024210Y-110400478D01*
X135964630Y-110570750D01*
X135954837Y-110657668D01*
X135927770Y-110722082D01*
X135919298Y-110731465D01*
X134923252Y-111727513D01*
X134861929Y-111760998D01*
X134835571Y-111763832D01*
X125602542Y-111763832D01*
X125535503Y-111744147D01*
X125489748Y-111691343D01*
X125479804Y-111622185D01*
X125484796Y-111601758D01*
X125485369Y-111599249D01*
X125505565Y-111420003D01*
X125505565Y-111419996D01*
X125485369Y-111240750D01*
X125485368Y-111240745D01*
X125435952Y-111099522D01*
X125425789Y-111070478D01*
X125329816Y-110917738D01*
X125202262Y-110790184D01*
X125049523Y-110694211D01*
X124879254Y-110634631D01*
X124879249Y-110634630D01*
X124700004Y-110614435D01*
X124699995Y-110614435D01*
X124633105Y-110621971D01*
X124564284Y-110609916D01*
X124512905Y-110562566D01*
X124495281Y-110494956D01*
X124496003Y-110484867D01*
X124505565Y-110400002D01*
X124505565Y-110399996D01*
X124485369Y-110220750D01*
X124485368Y-110220745D01*
X124468764Y-110173294D01*
X124425789Y-110050478D01*
X124329816Y-109897738D01*
X124202262Y-109770184D01*
X124049523Y-109674211D01*
X123879254Y-109614631D01*
X123879249Y-109614630D01*
X123700004Y-109594435D01*
X123699996Y-109594435D01*
X123520750Y-109614630D01*
X123520738Y-109614633D01*
X123465361Y-109634010D01*
X123395582Y-109637571D01*
X123336727Y-109604649D01*
X123302262Y-109570184D01*
X123190559Y-109499996D01*
X133494435Y-109499996D01*
X133494435Y-109500003D01*
X133514630Y-109679249D01*
X133514631Y-109679254D01*
X133574211Y-109849523D01*
X133604507Y-109897738D01*
X133670184Y-110002262D01*
X133797738Y-110129816D01*
X133866933Y-110173294D01*
X133942450Y-110220745D01*
X133950478Y-110225789D01*
X134013202Y-110247737D01*
X134120745Y-110285368D01*
X134120750Y-110285369D01*
X134299996Y-110305565D01*
X134300000Y-110305565D01*
X134300004Y-110305565D01*
X134479249Y-110285369D01*
X134479252Y-110285368D01*
X134479255Y-110285368D01*
X134649522Y-110225789D01*
X134802262Y-110129816D01*
X134929816Y-110002262D01*
X135025789Y-109849522D01*
X135085368Y-109679255D01*
X135085369Y-109679249D01*
X135105565Y-109500003D01*
X135105565Y-109499996D01*
X135085369Y-109320750D01*
X135085368Y-109320745D01*
X135060442Y-109249511D01*
X135025789Y-109150478D01*
X134929816Y-108997738D01*
X134802262Y-108870184D01*
X134718865Y-108817782D01*
X134649523Y-108774211D01*
X134479254Y-108714631D01*
X134479249Y-108714630D01*
X134300004Y-108694435D01*
X134299996Y-108694435D01*
X134120750Y-108714630D01*
X134120745Y-108714631D01*
X133950476Y-108774211D01*
X133797737Y-108870184D01*
X133670184Y-108997737D01*
X133574211Y-109150476D01*
X133514631Y-109320745D01*
X133514630Y-109320750D01*
X133494435Y-109499996D01*
X123190559Y-109499996D01*
X123149523Y-109474211D01*
X122979254Y-109414631D01*
X122979249Y-109414630D01*
X122800004Y-109394435D01*
X122799996Y-109394435D01*
X122620750Y-109414630D01*
X122620745Y-109414631D01*
X122450476Y-109474211D01*
X122297739Y-109570183D01*
X122194330Y-109673592D01*
X122133007Y-109707076D01*
X122063315Y-109702092D01*
X122018968Y-109673591D01*
X120645373Y-108299996D01*
X140494435Y-108299996D01*
X140494435Y-108300003D01*
X140514630Y-108479249D01*
X140514631Y-108479254D01*
X140574211Y-108649523D01*
X140615122Y-108714632D01*
X140670184Y-108802262D01*
X140797738Y-108929816D01*
X140888080Y-108986582D01*
X140905833Y-108997737D01*
X140950478Y-109025789D01*
X141067189Y-109066628D01*
X141120745Y-109085368D01*
X141120750Y-109085369D01*
X141299996Y-109105565D01*
X141300000Y-109105565D01*
X141300004Y-109105565D01*
X141479249Y-109085369D01*
X141479252Y-109085368D01*
X141479255Y-109085368D01*
X141649522Y-109025789D01*
X141802262Y-108929816D01*
X141929816Y-108802262D01*
X142025789Y-108649522D01*
X142085368Y-108479255D01*
X142086205Y-108471829D01*
X142105565Y-108300003D01*
X142105565Y-108299996D01*
X142085369Y-108120750D01*
X142085368Y-108120745D01*
X142056273Y-108037597D01*
X142025789Y-107950478D01*
X141929816Y-107797738D01*
X141802262Y-107670184D01*
X141783330Y-107658288D01*
X141649523Y-107574211D01*
X141479254Y-107514631D01*
X141479249Y-107514630D01*
X141300004Y-107494435D01*
X141299996Y-107494435D01*
X141120750Y-107514630D01*
X141120745Y-107514631D01*
X140950476Y-107574211D01*
X140797737Y-107670184D01*
X140670184Y-107797737D01*
X140574211Y-107950476D01*
X140514631Y-108120745D01*
X140514630Y-108120750D01*
X140494435Y-108299996D01*
X120645373Y-108299996D01*
X118712583Y-106367206D01*
X118679098Y-106305883D01*
X118684082Y-106236191D01*
X118725954Y-106180258D01*
X118734275Y-106174542D01*
X118753734Y-106162316D01*
X118881288Y-106034762D01*
X118977261Y-105882022D01*
X119036840Y-105711755D01*
X119040190Y-105682022D01*
X119057037Y-105532503D01*
X119057037Y-105532496D01*
X119036841Y-105353250D01*
X119036840Y-105353245D01*
X118988631Y-105215471D01*
X118977261Y-105182978D01*
X118958578Y-105153245D01*
X118900850Y-105061371D01*
X118881288Y-105030238D01*
X118753734Y-104902684D01*
X118729908Y-104887713D01*
X118600995Y-104806711D01*
X118430726Y-104747131D01*
X118430721Y-104747130D01*
X118251476Y-104726935D01*
X118251468Y-104726935D01*
X118072222Y-104747130D01*
X118072217Y-104747131D01*
X117901948Y-104806711D01*
X117803273Y-104868713D01*
X117736036Y-104887713D01*
X117671329Y-104868713D01*
X117572654Y-104806711D01*
X117402385Y-104747131D01*
X117402380Y-104747130D01*
X117223135Y-104726935D01*
X117223127Y-104726935D01*
X117043881Y-104747130D01*
X117043876Y-104747131D01*
X116873607Y-104806711D01*
X116720868Y-104902684D01*
X116593315Y-105030237D01*
X116497342Y-105182976D01*
X116437762Y-105353245D01*
X116437761Y-105353250D01*
X116417566Y-105532496D01*
X116417566Y-105532503D01*
X116437761Y-105711749D01*
X116437762Y-105711754D01*
X116497342Y-105882023D01*
X116593315Y-106034762D01*
X116720869Y-106162316D01*
X116740306Y-106174529D01*
X116873608Y-106258289D01*
X116895483Y-106265943D01*
X116942211Y-106295304D01*
X117268632Y-106621725D01*
X117302117Y-106683048D01*
X117297133Y-106752740D01*
X117255261Y-106808673D01*
X117194834Y-106832626D01*
X117099515Y-106843365D01*
X117099507Y-106843367D01*
X116957321Y-106893120D01*
X116887542Y-106896681D01*
X116850395Y-106881072D01*
X116732051Y-106806711D01*
X116561782Y-106747131D01*
X116561777Y-106747130D01*
X116382532Y-106726935D01*
X116382524Y-106726935D01*
X116203278Y-106747130D01*
X116203273Y-106747131D01*
X116033004Y-106806711D01*
X115880265Y-106902684D01*
X115752712Y-107030237D01*
X115656739Y-107182976D01*
X115597159Y-107353245D01*
X115597158Y-107353250D01*
X115576963Y-107532496D01*
X115576963Y-107532503D01*
X115597158Y-107711749D01*
X115597159Y-107711754D01*
X115656739Y-107882023D01*
X115752713Y-108034763D01*
X115754973Y-108037597D01*
X115755862Y-108039775D01*
X115756417Y-108040658D01*
X115756262Y-108040755D01*
X115781383Y-108102283D01*
X115782028Y-108114912D01*
X115782028Y-108737374D01*
X115762343Y-108804413D01*
X115745709Y-108825055D01*
X111108675Y-113462088D01*
X111061952Y-113491447D01*
X111025479Y-113504210D01*
X111025475Y-113504212D01*
X110872737Y-113600184D01*
X110745184Y-113727737D01*
X110649211Y-113880476D01*
X110589631Y-114050745D01*
X110589630Y-114050750D01*
X110569435Y-114229996D01*
X110569435Y-114230003D01*
X110589630Y-114409249D01*
X110589631Y-114409254D01*
X110649211Y-114579523D01*
X110745185Y-114732263D01*
X110747445Y-114735097D01*
X110748334Y-114737275D01*
X110748889Y-114738158D01*
X110748734Y-114738255D01*
X110773855Y-114799783D01*
X110774500Y-114812412D01*
X110774500Y-116224902D01*
X110754815Y-116291941D01*
X110738181Y-116312583D01*
X109431465Y-117619298D01*
X109370142Y-117652783D01*
X109357668Y-117654837D01*
X109270750Y-117664630D01*
X109100478Y-117724210D01*
X108947737Y-117820184D01*
X108820184Y-117947737D01*
X108724211Y-118100476D01*
X108664631Y-118270745D01*
X108664630Y-118270750D01*
X108644435Y-118449996D01*
X102499932Y-118449996D01*
X102505565Y-118400003D01*
X102505565Y-118399996D01*
X102485369Y-118220750D01*
X102485368Y-118220745D01*
X102443284Y-118100476D01*
X102425789Y-118050478D01*
X102400652Y-118010472D01*
X102381652Y-117943235D01*
X102402020Y-117876400D01*
X102455288Y-117831186D01*
X102505646Y-117820500D01*
X103223543Y-117820500D01*
X103353582Y-117794632D01*
X103416835Y-117782051D01*
X103598914Y-117706632D01*
X103762782Y-117597139D01*
X103902139Y-117457782D01*
X104011632Y-117293914D01*
X104087051Y-117111835D01*
X104106169Y-117015724D01*
X104125500Y-116918543D01*
X105374499Y-116918543D01*
X105412947Y-117111829D01*
X105412950Y-117111839D01*
X105488364Y-117293907D01*
X105488371Y-117293920D01*
X105597860Y-117457781D01*
X105597863Y-117457785D01*
X105737214Y-117597136D01*
X105737218Y-117597139D01*
X105901079Y-117706628D01*
X105901092Y-117706635D01*
X106054515Y-117770184D01*
X106083165Y-117782051D01*
X106083169Y-117782051D01*
X106083170Y-117782052D01*
X106276456Y-117820500D01*
X106276459Y-117820500D01*
X107573543Y-117820500D01*
X107703582Y-117794632D01*
X107766835Y-117782051D01*
X107948914Y-117706632D01*
X108112782Y-117597139D01*
X108252139Y-117457782D01*
X108361632Y-117293914D01*
X108437051Y-117111835D01*
X108456169Y-117015724D01*
X108475500Y-116918543D01*
X108475500Y-116721456D01*
X108437052Y-116528170D01*
X108437051Y-116528169D01*
X108437051Y-116528165D01*
X108363056Y-116349523D01*
X108361635Y-116346092D01*
X108361628Y-116346079D01*
X108252139Y-116182218D01*
X108252136Y-116182214D01*
X108112785Y-116042863D01*
X108112781Y-116042860D01*
X107948920Y-115933371D01*
X107948907Y-115933364D01*
X107766839Y-115857950D01*
X107766829Y-115857947D01*
X107573543Y-115819500D01*
X107573541Y-115819500D01*
X106891994Y-115819500D01*
X106824955Y-115799815D01*
X106779200Y-115747011D01*
X106769256Y-115677853D01*
X106784606Y-115633501D01*
X106824799Y-115563886D01*
X106855500Y-115449309D01*
X106855500Y-115330691D01*
X106824799Y-115216114D01*
X106765489Y-115113387D01*
X106681613Y-115029511D01*
X106578886Y-114970201D01*
X106464309Y-114939500D01*
X106345691Y-114939500D01*
X106231114Y-114970201D01*
X106231112Y-114970201D01*
X106231112Y-114970202D01*
X106128387Y-115029511D01*
X106128384Y-115029513D01*
X106044513Y-115113384D01*
X106044511Y-115113387D01*
X105986057Y-115214632D01*
X105985201Y-115216114D01*
X105954500Y-115330691D01*
X105954500Y-115449309D01*
X105985201Y-115563886D01*
X106044511Y-115666613D01*
X106044513Y-115666615D01*
X106059903Y-115682005D01*
X106093388Y-115743328D01*
X106088404Y-115813020D01*
X106046532Y-115868953D01*
X106019674Y-115884247D01*
X105901092Y-115933364D01*
X105901079Y-115933371D01*
X105737218Y-116042860D01*
X105737214Y-116042863D01*
X105597863Y-116182214D01*
X105597860Y-116182218D01*
X105488371Y-116346079D01*
X105488364Y-116346092D01*
X105412950Y-116528160D01*
X105412947Y-116528170D01*
X105374500Y-116721456D01*
X105374500Y-116721459D01*
X105374500Y-116918541D01*
X105374500Y-116918543D01*
X105374499Y-116918543D01*
X104125500Y-116918543D01*
X104125500Y-116721456D01*
X104087052Y-116528170D01*
X104087051Y-116528169D01*
X104087051Y-116528165D01*
X104013056Y-116349523D01*
X104011635Y-116346092D01*
X104011628Y-116346079D01*
X103902139Y-116182218D01*
X103902136Y-116182214D01*
X103762785Y-116042863D01*
X103762781Y-116042860D01*
X103598920Y-115933371D01*
X103598907Y-115933364D01*
X103416839Y-115857950D01*
X103416829Y-115857947D01*
X103223543Y-115819500D01*
X103223541Y-115819500D01*
X102226459Y-115819500D01*
X102226457Y-115819500D01*
X102033170Y-115857947D01*
X102033160Y-115857950D01*
X101851092Y-115933364D01*
X101851079Y-115933371D01*
X101687218Y-116042860D01*
X101687214Y-116042863D01*
X101547863Y-116182214D01*
X101547860Y-116182218D01*
X101438371Y-116346079D01*
X101438364Y-116346092D01*
X101362950Y-116528160D01*
X101362947Y-116528170D01*
X101324500Y-116721456D01*
X101324500Y-116721459D01*
X101324500Y-116918541D01*
X101324500Y-116918543D01*
X101324499Y-116918543D01*
X101362947Y-117111829D01*
X101362950Y-117111839D01*
X101438364Y-117293907D01*
X101438371Y-117293920D01*
X101538749Y-117444145D01*
X101559627Y-117510822D01*
X101541143Y-117578203D01*
X101489164Y-117624893D01*
X101476602Y-117630077D01*
X101350480Y-117674209D01*
X101197737Y-117770184D01*
X101070184Y-117897737D01*
X100974211Y-118050476D01*
X100914631Y-118220745D01*
X100914630Y-118220750D01*
X100894435Y-118399996D01*
X100500500Y-118399996D01*
X100500500Y-111599993D01*
X108194435Y-111599993D01*
X108194435Y-111600000D01*
X108214630Y-111779246D01*
X108214633Y-111779259D01*
X108276510Y-111956091D01*
X108274366Y-111956840D01*
X108283960Y-112015158D01*
X108275612Y-112043592D01*
X108276510Y-112043906D01*
X108214633Y-112220737D01*
X108214630Y-112220750D01*
X108194435Y-112399996D01*
X108194435Y-112400003D01*
X108214630Y-112579249D01*
X108214631Y-112579254D01*
X108274211Y-112749523D01*
X108334110Y-112844851D01*
X108370184Y-112902262D01*
X108497738Y-113029816D01*
X108650478Y-113125789D01*
X108661984Y-113129815D01*
X108820745Y-113185368D01*
X108820750Y-113185369D01*
X108999996Y-113205565D01*
X109000000Y-113205565D01*
X109000004Y-113205565D01*
X109179249Y-113185369D01*
X109179252Y-113185368D01*
X109179255Y-113185368D01*
X109349522Y-113125789D01*
X109502262Y-113029816D01*
X109629816Y-112902262D01*
X109725789Y-112749522D01*
X109785368Y-112579255D01*
X109785369Y-112579249D01*
X109805565Y-112400003D01*
X109805565Y-112399996D01*
X109785369Y-112220750D01*
X109785368Y-112220745D01*
X109723489Y-112043905D01*
X109725635Y-112043153D01*
X109716037Y-111984854D01*
X109724391Y-111956407D01*
X109723489Y-111956092D01*
X109785366Y-111779259D01*
X109785369Y-111779246D01*
X109805565Y-111600000D01*
X109805565Y-111599993D01*
X109785369Y-111420747D01*
X109785368Y-111420742D01*
X109725788Y-111250473D01*
X109684880Y-111185368D01*
X109629816Y-111097735D01*
X109502262Y-110970181D01*
X109437129Y-110929255D01*
X109349523Y-110874208D01*
X109179254Y-110814628D01*
X109179249Y-110814627D01*
X109000004Y-110794432D01*
X108999996Y-110794432D01*
X108820750Y-110814627D01*
X108820745Y-110814628D01*
X108650476Y-110874208D01*
X108497737Y-110970181D01*
X108370184Y-111097734D01*
X108274211Y-111250473D01*
X108214631Y-111420742D01*
X108214630Y-111420747D01*
X108194435Y-111599993D01*
X100500500Y-111599993D01*
X100500500Y-108278543D01*
X101324499Y-108278543D01*
X101362947Y-108471829D01*
X101362950Y-108471839D01*
X101438364Y-108653907D01*
X101438371Y-108653920D01*
X101547860Y-108817781D01*
X101547863Y-108817785D01*
X101687214Y-108957136D01*
X101687218Y-108957139D01*
X101851079Y-109066628D01*
X101851092Y-109066635D01*
X102033160Y-109142049D01*
X102033165Y-109142051D01*
X102033169Y-109142051D01*
X102033170Y-109142052D01*
X102226456Y-109180500D01*
X102226459Y-109180500D01*
X103223543Y-109180500D01*
X103374480Y-109150476D01*
X103416835Y-109142051D01*
X103598914Y-109066632D01*
X103762782Y-108957139D01*
X103902139Y-108817782D01*
X104011632Y-108653914D01*
X104087051Y-108471835D01*
X104121231Y-108300003D01*
X104125500Y-108278543D01*
X105374499Y-108278543D01*
X105412947Y-108471829D01*
X105412950Y-108471839D01*
X105488364Y-108653907D01*
X105488371Y-108653920D01*
X105597860Y-108817781D01*
X105597863Y-108817785D01*
X105737214Y-108957136D01*
X105737218Y-108957139D01*
X105901079Y-109066628D01*
X105901083Y-109066630D01*
X105901086Y-109066632D01*
X106019677Y-109115753D01*
X106074078Y-109159592D01*
X106096143Y-109225886D01*
X106078864Y-109293585D01*
X106059905Y-109317992D01*
X106044514Y-109333383D01*
X106044511Y-109333387D01*
X105985201Y-109436114D01*
X105954500Y-109550691D01*
X105954500Y-109669309D01*
X105985201Y-109783886D01*
X106044511Y-109886613D01*
X106128387Y-109970489D01*
X106231114Y-110029799D01*
X106345691Y-110060500D01*
X106345694Y-110060500D01*
X106464306Y-110060500D01*
X106464309Y-110060500D01*
X106578886Y-110029799D01*
X106681613Y-109970489D01*
X106765489Y-109886613D01*
X106824799Y-109783886D01*
X106855500Y-109669309D01*
X106855500Y-109550691D01*
X106824799Y-109436114D01*
X106784606Y-109366499D01*
X106768134Y-109298601D01*
X106790986Y-109232574D01*
X106845907Y-109189383D01*
X106891994Y-109180500D01*
X107573543Y-109180500D01*
X107724480Y-109150476D01*
X107766835Y-109142051D01*
X107948914Y-109066632D01*
X108112782Y-108957139D01*
X108252139Y-108817782D01*
X108361632Y-108653914D01*
X108437051Y-108471835D01*
X108471231Y-108300003D01*
X108475500Y-108278543D01*
X108475500Y-108081456D01*
X108437052Y-107888170D01*
X108437051Y-107888169D01*
X108437051Y-107888165D01*
X108366513Y-107717869D01*
X108361635Y-107706092D01*
X108361628Y-107706079D01*
X108252139Y-107542218D01*
X108252136Y-107542214D01*
X108112785Y-107402863D01*
X108112781Y-107402860D01*
X107948920Y-107293371D01*
X107948907Y-107293364D01*
X107766839Y-107217950D01*
X107766829Y-107217947D01*
X107573543Y-107179500D01*
X107573541Y-107179500D01*
X106276459Y-107179500D01*
X106276457Y-107179500D01*
X106083170Y-107217947D01*
X106083160Y-107217950D01*
X105901092Y-107293364D01*
X105901079Y-107293371D01*
X105737218Y-107402860D01*
X105737214Y-107402863D01*
X105597863Y-107542214D01*
X105597860Y-107542218D01*
X105488371Y-107706079D01*
X105488364Y-107706092D01*
X105412950Y-107888160D01*
X105412947Y-107888170D01*
X105374500Y-108081456D01*
X105374500Y-108081459D01*
X105374500Y-108278541D01*
X105374500Y-108278543D01*
X105374499Y-108278543D01*
X104125500Y-108278543D01*
X104125500Y-108081456D01*
X104087052Y-107888170D01*
X104087051Y-107888169D01*
X104087051Y-107888165D01*
X104016513Y-107717869D01*
X104011635Y-107706092D01*
X104011628Y-107706079D01*
X103902139Y-107542218D01*
X103902136Y-107542214D01*
X103762785Y-107402863D01*
X103762781Y-107402860D01*
X103598920Y-107293371D01*
X103598907Y-107293364D01*
X103416839Y-107217950D01*
X103416829Y-107217947D01*
X103223543Y-107179500D01*
X103223541Y-107179500D01*
X102226459Y-107179500D01*
X102226457Y-107179500D01*
X102033170Y-107217947D01*
X102033160Y-107217950D01*
X101851092Y-107293364D01*
X101851079Y-107293371D01*
X101687218Y-107402860D01*
X101687214Y-107402863D01*
X101547863Y-107542214D01*
X101547860Y-107542218D01*
X101438371Y-107706079D01*
X101438364Y-107706092D01*
X101362950Y-107888160D01*
X101362947Y-107888170D01*
X101324500Y-108081456D01*
X101324500Y-108081459D01*
X101324500Y-108278541D01*
X101324500Y-108278543D01*
X101324499Y-108278543D01*
X100500500Y-108278543D01*
X100500500Y-106932496D01*
X111459435Y-106932496D01*
X111459435Y-106932503D01*
X111479630Y-107111749D01*
X111479631Y-107111754D01*
X111539211Y-107282023D01*
X111635184Y-107434762D01*
X111762738Y-107562316D01*
X111915478Y-107658289D01*
X112052054Y-107706079D01*
X112085745Y-107717868D01*
X112085750Y-107717869D01*
X112264996Y-107738065D01*
X112265000Y-107738065D01*
X112265004Y-107738065D01*
X112444249Y-107717869D01*
X112444252Y-107717868D01*
X112444255Y-107717868D01*
X112614522Y-107658289D01*
X112767262Y-107562316D01*
X112894816Y-107434762D01*
X112990789Y-107282022D01*
X113050368Y-107111755D01*
X113070565Y-106932500D01*
X113069156Y-106919998D01*
X113050369Y-106753250D01*
X113050368Y-106753245D01*
X113004347Y-106621725D01*
X112990789Y-106582978D01*
X112894816Y-106430238D01*
X112767262Y-106302684D01*
X112755517Y-106295304D01*
X112614523Y-106206711D01*
X112444254Y-106147131D01*
X112444249Y-106147130D01*
X112265004Y-106126935D01*
X112264996Y-106126935D01*
X112085750Y-106147130D01*
X112085745Y-106147131D01*
X111915476Y-106206711D01*
X111762737Y-106302684D01*
X111635184Y-106430237D01*
X111539211Y-106582976D01*
X111479631Y-106753245D01*
X111479630Y-106753250D01*
X111459435Y-106932496D01*
X100500500Y-106932496D01*
X100500500Y-105799996D01*
X108994435Y-105799996D01*
X108994435Y-105800003D01*
X109014630Y-105979249D01*
X109014631Y-105979254D01*
X109074211Y-106149523D01*
X109110145Y-106206711D01*
X109170184Y-106302262D01*
X109297738Y-106429816D01*
X109450478Y-106525789D01*
X109613909Y-106582976D01*
X109620745Y-106585368D01*
X109620750Y-106585369D01*
X109799996Y-106605565D01*
X109800000Y-106605565D01*
X109800004Y-106605565D01*
X109979249Y-106585369D01*
X109979252Y-106585368D01*
X109979255Y-106585368D01*
X110149522Y-106525789D01*
X110302262Y-106429816D01*
X110429816Y-106302262D01*
X110525789Y-106149522D01*
X110585368Y-105979255D01*
X110587277Y-105962315D01*
X110605565Y-105800003D01*
X110605565Y-105799996D01*
X110585369Y-105620750D01*
X110585368Y-105620745D01*
X110547230Y-105511754D01*
X110525789Y-105450478D01*
X110429816Y-105297738D01*
X110302262Y-105170184D01*
X110231608Y-105125789D01*
X110149523Y-105074211D01*
X109979254Y-105014631D01*
X109979249Y-105014630D01*
X109800004Y-104994435D01*
X109799996Y-104994435D01*
X109620750Y-105014630D01*
X109620745Y-105014631D01*
X109450476Y-105074211D01*
X109297737Y-105170184D01*
X109170184Y-105297737D01*
X109074211Y-105450476D01*
X109014631Y-105620745D01*
X109014630Y-105620750D01*
X108994435Y-105799996D01*
X100500500Y-105799996D01*
X100500500Y-103003750D01*
X100500613Y-103000000D01*
X100894592Y-103000000D01*
X100914201Y-103286680D01*
X100914201Y-103286684D01*
X100914202Y-103286686D01*
X100921281Y-103320750D01*
X100972666Y-103568034D01*
X100972667Y-103568037D01*
X101068894Y-103838793D01*
X101068893Y-103838793D01*
X101201098Y-104093935D01*
X101366812Y-104328700D01*
X101435909Y-104402684D01*
X101562947Y-104538708D01*
X101785853Y-104720055D01*
X102030309Y-104868713D01*
X102031382Y-104869365D01*
X102135507Y-104914592D01*
X102294942Y-104983844D01*
X102571642Y-105061371D01*
X102821920Y-105095771D01*
X102856321Y-105100500D01*
X102856322Y-105100500D01*
X103143679Y-105100500D01*
X103174370Y-105096281D01*
X103428358Y-105061371D01*
X103705058Y-104983844D01*
X103891908Y-104902684D01*
X103968617Y-104869365D01*
X103968620Y-104869363D01*
X103968625Y-104869361D01*
X104214147Y-104720055D01*
X104437053Y-104538708D01*
X104633189Y-104328698D01*
X104798901Y-104093936D01*
X104931104Y-103838797D01*
X105027334Y-103568032D01*
X105034718Y-103532496D01*
X112549435Y-103532496D01*
X112549435Y-103532503D01*
X112569630Y-103711749D01*
X112569631Y-103711754D01*
X112629211Y-103882023D01*
X112693434Y-103984232D01*
X112725184Y-104034762D01*
X112852738Y-104162316D01*
X112876911Y-104177505D01*
X112876913Y-104177506D01*
X112923204Y-104229841D01*
X112933852Y-104298895D01*
X112905477Y-104362743D01*
X112876913Y-104387493D01*
X112871654Y-104390797D01*
X112852737Y-104402684D01*
X112725184Y-104530237D01*
X112629211Y-104682976D01*
X112569631Y-104853245D01*
X112569630Y-104853250D01*
X112549435Y-105032496D01*
X112549435Y-105032503D01*
X112569630Y-105211749D01*
X112569631Y-105211754D01*
X112629211Y-105382023D01*
X112710724Y-105511749D01*
X112725184Y-105534762D01*
X112852738Y-105662316D01*
X113005478Y-105758289D01*
X113124670Y-105799996D01*
X113175745Y-105817868D01*
X113175750Y-105817869D01*
X113354996Y-105838065D01*
X113355000Y-105838065D01*
X113355004Y-105838065D01*
X113534249Y-105817869D01*
X113534252Y-105817868D01*
X113534255Y-105817868D01*
X113704522Y-105758289D01*
X113857262Y-105662316D01*
X113984816Y-105534762D01*
X114080789Y-105382022D01*
X114140368Y-105211755D01*
X114140369Y-105211749D01*
X114160565Y-105032503D01*
X114160565Y-105032496D01*
X114140369Y-104853250D01*
X114140368Y-104853245D01*
X114080789Y-104682978D01*
X113984816Y-104530238D01*
X113857262Y-104402684D01*
X113833084Y-104387492D01*
X113786796Y-104335161D01*
X113776146Y-104266107D01*
X113804521Y-104202258D01*
X113833082Y-104177509D01*
X113857262Y-104162316D01*
X113984816Y-104034762D01*
X114080789Y-103882022D01*
X114140368Y-103711755D01*
X114140369Y-103711749D01*
X114160565Y-103532503D01*
X114160565Y-103532496D01*
X114140369Y-103353250D01*
X114140368Y-103353245D01*
X114080789Y-103182978D01*
X113984816Y-103030238D01*
X113857262Y-102902684D01*
X113852984Y-102899996D01*
X116494435Y-102899996D01*
X116494435Y-102900003D01*
X116514630Y-103079249D01*
X116514631Y-103079254D01*
X116574211Y-103249523D01*
X116666994Y-103397185D01*
X116670184Y-103402262D01*
X116797738Y-103529816D01*
X116859902Y-103568876D01*
X116932721Y-103614632D01*
X116950478Y-103625789D01*
X117088860Y-103674211D01*
X117120745Y-103685368D01*
X117120750Y-103685369D01*
X117299996Y-103705565D01*
X117300000Y-103705565D01*
X117300004Y-103705565D01*
X117479249Y-103685369D01*
X117479252Y-103685368D01*
X117479255Y-103685368D01*
X117649522Y-103625789D01*
X117802262Y-103529816D01*
X117929816Y-103402262D01*
X118025789Y-103249522D01*
X118085368Y-103079255D01*
X118095825Y-102986442D01*
X118122891Y-102922029D01*
X118178089Y-102883284D01*
X118249522Y-102858289D01*
X118402262Y-102762316D01*
X118529816Y-102634762D01*
X118625789Y-102482022D01*
X118685368Y-102311755D01*
X118685369Y-102311749D01*
X118705565Y-102132503D01*
X118705565Y-102132496D01*
X118690636Y-101999996D01*
X126694435Y-101999996D01*
X126694435Y-102000003D01*
X126714630Y-102179249D01*
X126714631Y-102179254D01*
X126774211Y-102349523D01*
X126837646Y-102450478D01*
X126870184Y-102502262D01*
X126997738Y-102629816D01*
X127095653Y-102691340D01*
X127136519Y-102717018D01*
X127182810Y-102769353D01*
X127193458Y-102838406D01*
X127165083Y-102902255D01*
X127158229Y-102909693D01*
X127070183Y-102997739D01*
X126974211Y-103150476D01*
X126914631Y-103320745D01*
X126914630Y-103320750D01*
X126894435Y-103499996D01*
X126894435Y-103500003D01*
X126914630Y-103679249D01*
X126914631Y-103679254D01*
X126974211Y-103849523D01*
X127004507Y-103897738D01*
X127070184Y-104002262D01*
X127197738Y-104129816D01*
X127273635Y-104177505D01*
X127342450Y-104220745D01*
X127350478Y-104225789D01*
X127512549Y-104282500D01*
X127520745Y-104285368D01*
X127520750Y-104285369D01*
X127686606Y-104304056D01*
X127751020Y-104331122D01*
X127790575Y-104388717D01*
X127795943Y-104413392D01*
X127814630Y-104579250D01*
X127814631Y-104579254D01*
X127874211Y-104749523D01*
X127949104Y-104868713D01*
X127970184Y-104902262D01*
X128097738Y-105029816D01*
X128250478Y-105125789D01*
X128328943Y-105153245D01*
X128420745Y-105185368D01*
X128420750Y-105185369D01*
X128599996Y-105205565D01*
X128599998Y-105205565D01*
X128599998Y-105205564D01*
X128600000Y-105205565D01*
X128619050Y-105203418D01*
X128687870Y-105215471D01*
X128739251Y-105262818D01*
X128756935Y-105326638D01*
X128756935Y-105332503D01*
X128777130Y-105511749D01*
X128777131Y-105511754D01*
X128836711Y-105682023D01*
X128910843Y-105800003D01*
X128932684Y-105834762D01*
X129060238Y-105962316D01*
X129212978Y-106058289D01*
X129383245Y-106117868D01*
X129383250Y-106117869D01*
X129562496Y-106138065D01*
X129562500Y-106138065D01*
X129562504Y-106138065D01*
X129741749Y-106117869D01*
X129741752Y-106117868D01*
X129741755Y-106117868D01*
X129912022Y-106058289D01*
X130064762Y-105962316D01*
X130192316Y-105834762D01*
X130288289Y-105682022D01*
X130347868Y-105511755D01*
X130347869Y-105511749D01*
X130368065Y-105332503D01*
X130368065Y-105332496D01*
X130347869Y-105153250D01*
X130347868Y-105153245D01*
X130315720Y-105061371D01*
X130288289Y-104982978D01*
X130192316Y-104830238D01*
X130064762Y-104702684D01*
X130033397Y-104682976D01*
X129912023Y-104606711D01*
X129741754Y-104547131D01*
X129741749Y-104547130D01*
X129562504Y-104526935D01*
X129562496Y-104526935D01*
X129543447Y-104529081D01*
X129474625Y-104517026D01*
X129423246Y-104469676D01*
X129405565Y-104405861D01*
X129405565Y-104399996D01*
X129385369Y-104220750D01*
X129385368Y-104220745D01*
X129364922Y-104162313D01*
X129325789Y-104050478D01*
X129229816Y-103897738D01*
X129102262Y-103770184D01*
X129009273Y-103711755D01*
X128949523Y-103674211D01*
X128779254Y-103614631D01*
X128779250Y-103614630D01*
X128613392Y-103595943D01*
X128548978Y-103568876D01*
X128509423Y-103511282D01*
X128504056Y-103486606D01*
X128485369Y-103320750D01*
X128485368Y-103320745D01*
X128425789Y-103150478D01*
X128425188Y-103149522D01*
X128350236Y-103030237D01*
X128329816Y-102997738D01*
X128232074Y-102899996D01*
X138794435Y-102899996D01*
X138794435Y-102900003D01*
X138814630Y-103079249D01*
X138814631Y-103079254D01*
X138874211Y-103249523D01*
X138966994Y-103397185D01*
X138970184Y-103402262D01*
X139097738Y-103529816D01*
X139159902Y-103568876D01*
X139232721Y-103614632D01*
X139250478Y-103625789D01*
X139388860Y-103674211D01*
X139420745Y-103685368D01*
X139420750Y-103685369D01*
X139599996Y-103705565D01*
X139600000Y-103705565D01*
X139600004Y-103705565D01*
X139779249Y-103685369D01*
X139779252Y-103685368D01*
X139779255Y-103685368D01*
X139949522Y-103625789D01*
X140102262Y-103529816D01*
X140229816Y-103402262D01*
X140325789Y-103249522D01*
X140385368Y-103079255D01*
X140390891Y-103030237D01*
X140405565Y-102900003D01*
X140405565Y-102899996D01*
X140394298Y-102799996D01*
X142394435Y-102799996D01*
X142394435Y-102800003D01*
X142414630Y-102979249D01*
X142414631Y-102979254D01*
X142474211Y-103149523D01*
X142537045Y-103249522D01*
X142570184Y-103302262D01*
X142697738Y-103429816D01*
X142850478Y-103525789D01*
X142971216Y-103568037D01*
X143020745Y-103585368D01*
X143020750Y-103585369D01*
X143199996Y-103605565D01*
X143200000Y-103605565D01*
X143200004Y-103605565D01*
X143379249Y-103585369D01*
X143379252Y-103585368D01*
X143379255Y-103585368D01*
X143549522Y-103525789D01*
X143702262Y-103429816D01*
X143829816Y-103302262D01*
X143925789Y-103149522D01*
X143985368Y-102979255D01*
X143993282Y-102909017D01*
X144005565Y-102800003D01*
X144005565Y-102799996D01*
X143985369Y-102620750D01*
X143985368Y-102620745D01*
X143974717Y-102590305D01*
X143925789Y-102450478D01*
X143914158Y-102431968D01*
X143838623Y-102311754D01*
X143829816Y-102297738D01*
X143702262Y-102170184D01*
X143642293Y-102132503D01*
X143549523Y-102074211D01*
X143379254Y-102014631D01*
X143379249Y-102014630D01*
X143200004Y-101994435D01*
X143199996Y-101994435D01*
X143020750Y-102014630D01*
X143020745Y-102014631D01*
X142850476Y-102074211D01*
X142697737Y-102170184D01*
X142570184Y-102297737D01*
X142474211Y-102450476D01*
X142414631Y-102620745D01*
X142414630Y-102620750D01*
X142394435Y-102799996D01*
X140394298Y-102799996D01*
X140385369Y-102720750D01*
X140385368Y-102720745D01*
X140355281Y-102634762D01*
X140325789Y-102550478D01*
X140229816Y-102397738D01*
X140102262Y-102270184D01*
X140031608Y-102225789D01*
X139949523Y-102174211D01*
X139779254Y-102114631D01*
X139779249Y-102114630D01*
X139600004Y-102094435D01*
X139599996Y-102094435D01*
X139420750Y-102114630D01*
X139420745Y-102114631D01*
X139250476Y-102174211D01*
X139097737Y-102270184D01*
X138970184Y-102397737D01*
X138874211Y-102550476D01*
X138814631Y-102720745D01*
X138814630Y-102720750D01*
X138794435Y-102899996D01*
X128232074Y-102899996D01*
X128202262Y-102870184D01*
X128135176Y-102828031D01*
X128063480Y-102782981D01*
X128017189Y-102730646D01*
X128006541Y-102661592D01*
X128034916Y-102597744D01*
X128041747Y-102590330D01*
X128129816Y-102502262D01*
X128225789Y-102349522D01*
X128285368Y-102179255D01*
X128285369Y-102179249D01*
X128305565Y-102000003D01*
X128305565Y-101999996D01*
X128285369Y-101820750D01*
X128285368Y-101820745D01*
X128266866Y-101767869D01*
X128225789Y-101650478D01*
X128213071Y-101630238D01*
X128140397Y-101514578D01*
X128129816Y-101497738D01*
X128002262Y-101370184D01*
X127969379Y-101349522D01*
X127849523Y-101274211D01*
X127679254Y-101214631D01*
X127679249Y-101214630D01*
X127500004Y-101194435D01*
X127499996Y-101194435D01*
X127320750Y-101214630D01*
X127320745Y-101214631D01*
X127150476Y-101274211D01*
X126997737Y-101370184D01*
X126870184Y-101497737D01*
X126774211Y-101650476D01*
X126714631Y-101820745D01*
X126714630Y-101820750D01*
X126694435Y-101999996D01*
X118690636Y-101999996D01*
X118685369Y-101953250D01*
X118685368Y-101953245D01*
X118638497Y-101819295D01*
X118625789Y-101782978D01*
X118616295Y-101767869D01*
X118555616Y-101671299D01*
X118529816Y-101630238D01*
X118402262Y-101502684D01*
X118397984Y-101499996D01*
X118249523Y-101406711D01*
X118079254Y-101347131D01*
X118079249Y-101347130D01*
X117900004Y-101326935D01*
X117899996Y-101326935D01*
X117720750Y-101347130D01*
X117720745Y-101347131D01*
X117550476Y-101406711D01*
X117397737Y-101502684D01*
X117270184Y-101630237D01*
X117174210Y-101782978D01*
X117114630Y-101953250D01*
X117104173Y-102046059D01*
X117077106Y-102110472D01*
X117021910Y-102149215D01*
X116950474Y-102174212D01*
X116797737Y-102270184D01*
X116670184Y-102397737D01*
X116574211Y-102550476D01*
X116514631Y-102720745D01*
X116514630Y-102720750D01*
X116494435Y-102899996D01*
X113852984Y-102899996D01*
X113786608Y-102858289D01*
X113704523Y-102806711D01*
X113534254Y-102747131D01*
X113534249Y-102747130D01*
X113355004Y-102726935D01*
X113354996Y-102726935D01*
X113175750Y-102747130D01*
X113175745Y-102747131D01*
X113005476Y-102806711D01*
X112852737Y-102902684D01*
X112725184Y-103030237D01*
X112629211Y-103182976D01*
X112569631Y-103353245D01*
X112569630Y-103353250D01*
X112549435Y-103532496D01*
X105034718Y-103532496D01*
X105085798Y-103286686D01*
X105105408Y-103000000D01*
X105085798Y-102713314D01*
X105027334Y-102431968D01*
X104931105Y-102161206D01*
X104931106Y-102161206D01*
X104798901Y-101906064D01*
X104633187Y-101671299D01*
X104537434Y-101568774D01*
X104437053Y-101461292D01*
X104214147Y-101279945D01*
X104214146Y-101279944D01*
X103968617Y-101130634D01*
X103705063Y-101016158D01*
X103705061Y-101016157D01*
X103705058Y-101016156D01*
X103575578Y-100979877D01*
X103428364Y-100938630D01*
X103428359Y-100938629D01*
X103428358Y-100938629D01*
X103236367Y-100912240D01*
X103143679Y-100899500D01*
X103143678Y-100899500D01*
X102856322Y-100899500D01*
X102856321Y-100899500D01*
X102571642Y-100938629D01*
X102571635Y-100938630D01*
X102363861Y-100996845D01*
X102294942Y-101016156D01*
X102294939Y-101016156D01*
X102294936Y-101016158D01*
X102294935Y-101016158D01*
X102031382Y-101130634D01*
X101785853Y-101279944D01*
X101562950Y-101461289D01*
X101366812Y-101671299D01*
X101201098Y-101906064D01*
X101068894Y-102161206D01*
X100972667Y-102431962D01*
X100972666Y-102431965D01*
X100914201Y-102713319D01*
X100894592Y-103000000D01*
X100500613Y-103000000D01*
X100500726Y-102996263D01*
X100505216Y-102922029D01*
X100518271Y-102706201D01*
X100520076Y-102691340D01*
X100530445Y-102634762D01*
X100571780Y-102409197D01*
X100575364Y-102394663D01*
X100660696Y-102120822D01*
X100665998Y-102106841D01*
X100783731Y-101845249D01*
X100790676Y-101832016D01*
X100939080Y-101586526D01*
X100947567Y-101574230D01*
X101124480Y-101348417D01*
X101134395Y-101337226D01*
X101337226Y-101134395D01*
X101348417Y-101124480D01*
X101574230Y-100947567D01*
X101586526Y-100939080D01*
X101832016Y-100790676D01*
X101845249Y-100783731D01*
X102106841Y-100665998D01*
X102120822Y-100660696D01*
X102394668Y-100575362D01*
X102409197Y-100571780D01*
X102691344Y-100520075D01*
X102706201Y-100518271D01*
X102996264Y-100500726D01*
X103003751Y-100500500D01*
X103065892Y-100500500D01*
X112802886Y-100500500D01*
X112869925Y-100520185D01*
G37*
%TD.AperFunction*%
%TD*%
M02*
