%TF.GenerationSoftware,KiCad,Pcbnew,8.0.5-dirty*%
%TF.CreationDate,2024-10-01T21:11:00+10:00*%
%TF.ProjectId,kestral,6b657374-7261-46c2-9e6b-696361645f70,rev?*%
%TF.SameCoordinates,Original*%
%TF.FileFunction,Copper,L3,Inr*%
%TF.FilePolarity,Positive*%
%FSLAX46Y46*%
G04 Gerber Fmt 4.6, Leading zero omitted, Abs format (unit mm)*
G04 Created by KiCad (PCBNEW 8.0.5-dirty) date 2024-10-01 21:11:00*
%MOMM*%
%LPD*%
G01*
G04 APERTURE LIST*
%TA.AperFunction,ComponentPad*%
%ADD10C,1.803400*%
%TD*%
%TA.AperFunction,ComponentPad*%
%ADD11O,2.100000X1.000000*%
%TD*%
%TA.AperFunction,ComponentPad*%
%ADD12O,1.800000X1.000000*%
%TD*%
%TA.AperFunction,ViaPad*%
%ADD13C,0.600000*%
%TD*%
%TA.AperFunction,Conductor*%
%ADD14C,0.200000*%
%TD*%
G04 APERTURE END LIST*
D10*
%TO.N,VBATT*%
%TO.C,J2*%
X112689999Y-121400000D03*
%TO.N,GND*%
X116500000Y-121400000D03*
%TD*%
D11*
%TO.N,unconnected-(J3-SHIELD-PadS1)_3*%
%TO.C,J3*%
X106925000Y-108180000D03*
D12*
%TO.N,unconnected-(J3-SHIELD-PadS1)_1*%
X102725000Y-108180000D03*
D11*
%TO.N,unconnected-(J3-SHIELD-PadS1)*%
X106925000Y-116820000D03*
D12*
%TO.N,unconnected-(J3-SHIELD-PadS1)_2*%
X102725000Y-116820000D03*
%TD*%
D13*
%TO.N,QSPI_SS*%
X109450000Y-118450000D03*
%TO.N,+3V3*%
X101700000Y-118400000D03*
%TO.N,GND*%
X105800000Y-124200000D03*
X128475000Y-121700000D03*
X119200000Y-111820000D03*
X119200000Y-114900000D03*
X148750000Y-110500000D03*
X115205000Y-114232500D03*
X148750000Y-109000000D03*
X148750000Y-117500000D03*
X130200000Y-109000000D03*
X146100000Y-102500000D03*
X148750000Y-107500000D03*
X108975000Y-116250000D03*
X138200000Y-118200000D03*
X148750000Y-120500000D03*
X134850000Y-122650000D03*
X106200000Y-101100000D03*
X148750000Y-123500000D03*
X148750000Y-116000000D03*
X122762500Y-123275000D03*
X148750000Y-106000000D03*
X148750000Y-104500000D03*
X127912500Y-107482500D03*
X106200000Y-104900000D03*
X117210000Y-113800000D03*
X148750000Y-122000000D03*
X108975000Y-108750000D03*
X123795634Y-114802885D03*
X132100000Y-103200000D03*
X127100000Y-113900000D03*
X122318488Y-113384315D03*
X148750000Y-119000000D03*
X148750000Y-114500000D03*
X125150000Y-105532500D03*
X148750000Y-101500000D03*
X148750000Y-103000000D03*
%TO.N,Net-(J1-In)*%
X143600000Y-112500000D03*
%TO.N,USB_D+*%
X109000000Y-112400000D03*
X113355000Y-105032500D03*
%TO.N,USB_D-*%
X109000000Y-111599997D03*
X113355000Y-103532500D03*
%TO.N,RF_DIO*%
X141500000Y-117900000D03*
X122800000Y-110200000D03*
%TO.N,RF_RST*%
X123700000Y-110400000D03*
X134300000Y-109500000D03*
%TO.N,MISO*%
X143200000Y-102800000D03*
X127500000Y-102000000D03*
%TO.N,+3V3*%
X119987500Y-118125000D03*
X112265000Y-106932500D03*
X119987500Y-119525000D03*
X109800000Y-105800000D03*
X137500000Y-101000000D03*
X119987500Y-118825000D03*
X129562500Y-105332500D03*
X117900000Y-102132500D03*
X127700000Y-103500000D03*
X126925000Y-121575000D03*
X123400000Y-111500000D03*
X123800000Y-100982500D03*
X139487500Y-122687500D03*
X117223131Y-105532500D03*
X122100000Y-111200000D03*
X118124265Y-110224265D03*
%TO.N,MOSI*%
X141300000Y-108300000D03*
X125000000Y-100982500D03*
%TO.N,+1V1*%
X117300000Y-102900000D03*
X124700000Y-111420000D03*
X128600000Y-104400000D03*
X118251472Y-105532500D03*
%TO.N,MCU_RX*%
X119800000Y-111000000D03*
X142100000Y-122600000D03*
X125800000Y-123000000D03*
%TO.N,GPS_RST*%
X139600000Y-102900000D03*
X136750000Y-110750000D03*
X120883750Y-111516250D03*
%TO.N,MCU_TX*%
X143800000Y-122400000D03*
X124900000Y-123400000D03*
X119000000Y-110400000D03*
%TO.N,Net-(U3-QSPI_SD1)*%
X112670000Y-114220000D03*
X117278765Y-107628735D03*
%TO.N,Net-(U3-QSPI_SD2)*%
X118180113Y-107532500D03*
X113940000Y-114220000D03*
%TO.N,QSPI_SS*%
X111375000Y-114230000D03*
X116382528Y-107532500D03*
%TO.N,GPS_1PPS*%
X129500000Y-122300000D03*
X113300000Y-116000000D03*
X113100000Y-101500000D03*
%TD*%
D14*
%TO.N,+3V3*%
X122100000Y-111200000D02*
X122533529Y-111200000D01*
X122533529Y-111200000D02*
X122833529Y-111500000D01*
X122833529Y-111500000D02*
X123400000Y-111500000D01*
%TO.N,+1V1*%
X125950000Y-104957500D02*
X125456250Y-104463750D01*
X125456250Y-104463750D02*
X125750000Y-104757500D01*
X125456250Y-104463750D02*
X124750000Y-103757500D01*
X118157500Y-103757500D02*
X120455000Y-103757500D01*
X124750000Y-103757500D02*
X120455000Y-103757500D01*
X118680000Y-105532500D02*
X120455000Y-103757500D01*
X128600000Y-104400000D02*
X128042500Y-104957500D01*
X117300000Y-102900000D02*
X118157500Y-103757500D01*
X128042500Y-104957500D02*
X125950000Y-104957500D01*
X125750000Y-104757500D02*
X125750000Y-110370000D01*
X118251472Y-105532500D02*
X118680000Y-105532500D01*
X125750000Y-110370000D02*
X124700000Y-111420000D01*
%TO.N,MCU_RX*%
X119800000Y-111000000D02*
X119800000Y-112900000D01*
X125200000Y-122400000D02*
X125800000Y-123000000D01*
X119800000Y-112900000D02*
X125200000Y-118300000D01*
X125200000Y-118300000D02*
X125200000Y-122400000D01*
%TO.N,GPS_RST*%
X136750000Y-110750000D02*
X139600000Y-107900000D01*
X139600000Y-107900000D02*
X139600000Y-102900000D01*
%TO.N,MCU_TX*%
X118500000Y-110900000D02*
X118500000Y-113351471D01*
X119000000Y-110400000D02*
X118500000Y-110900000D01*
X124300000Y-122800000D02*
X124900000Y-123400000D01*
X124300000Y-119151471D02*
X124300000Y-122800000D01*
X118500000Y-113351471D02*
X124300000Y-119151471D01*
%TO.N,GPS_1PPS*%
X114000000Y-101900000D02*
X114000000Y-105236029D01*
X113300000Y-105936029D02*
X113300000Y-116000000D01*
X113100000Y-101500000D02*
X113600000Y-101500000D01*
X114000000Y-105236029D02*
X113300000Y-105936029D01*
X113600000Y-101500000D02*
X114000000Y-101900000D01*
%TD*%
%TA.AperFunction,Conductor*%
%TO.N,+3V3*%
G36*
X105473960Y-100520185D02*
G01*
X105519715Y-100572989D01*
X105529659Y-100642147D01*
X105511915Y-100690472D01*
X105474211Y-100750476D01*
X105414631Y-100920745D01*
X105414630Y-100920750D01*
X105394435Y-101099996D01*
X105394435Y-101100003D01*
X105414630Y-101279249D01*
X105414631Y-101279254D01*
X105474211Y-101449523D01*
X105560305Y-101586540D01*
X105570184Y-101602262D01*
X105697738Y-101729816D01*
X105758299Y-101767869D01*
X105842765Y-101820943D01*
X105850478Y-101825789D01*
X105918306Y-101849523D01*
X106020745Y-101885368D01*
X106020750Y-101885369D01*
X106199996Y-101905565D01*
X106200000Y-101905565D01*
X106200004Y-101905565D01*
X106379249Y-101885369D01*
X106379252Y-101885368D01*
X106379255Y-101885368D01*
X106549522Y-101825789D01*
X106702262Y-101729816D01*
X106829816Y-101602262D01*
X106925789Y-101449522D01*
X106985368Y-101279255D01*
X106985369Y-101279249D01*
X107005565Y-101100003D01*
X107005565Y-101099996D01*
X106985369Y-100920750D01*
X106985368Y-100920745D01*
X106977562Y-100898438D01*
X106925789Y-100750478D01*
X106920174Y-100741542D01*
X106888085Y-100690472D01*
X106869085Y-100623235D01*
X106889453Y-100556400D01*
X106942721Y-100511186D01*
X106993079Y-100500500D01*
X112802886Y-100500500D01*
X112869925Y-100520185D01*
X112915680Y-100572989D01*
X112925624Y-100642147D01*
X112896599Y-100705703D01*
X112843840Y-100741542D01*
X112750478Y-100774210D01*
X112597737Y-100870184D01*
X112470184Y-100997737D01*
X112374211Y-101150476D01*
X112314631Y-101320745D01*
X112314630Y-101320750D01*
X112294435Y-101499996D01*
X112294435Y-101500003D01*
X112314630Y-101679249D01*
X112314631Y-101679254D01*
X112374211Y-101849523D01*
X112432616Y-101942473D01*
X112470184Y-102002262D01*
X112597738Y-102129816D01*
X112750478Y-102225789D01*
X112877352Y-102270184D01*
X112920745Y-102285368D01*
X112920750Y-102285369D01*
X113099996Y-102305565D01*
X113100000Y-102305565D01*
X113100004Y-102305565D01*
X113261617Y-102287356D01*
X113330439Y-102299411D01*
X113381818Y-102346760D01*
X113399500Y-102410576D01*
X113399500Y-102611107D01*
X113379815Y-102678146D01*
X113327011Y-102723901D01*
X113289384Y-102734327D01*
X113175749Y-102747130D01*
X113175745Y-102747131D01*
X113005476Y-102806711D01*
X112852737Y-102902684D01*
X112725184Y-103030237D01*
X112629211Y-103182976D01*
X112569631Y-103353245D01*
X112569630Y-103353250D01*
X112549435Y-103532496D01*
X112549435Y-103532503D01*
X112569630Y-103711749D01*
X112569631Y-103711754D01*
X112629211Y-103882023D01*
X112701920Y-103997738D01*
X112725184Y-104034762D01*
X112852738Y-104162316D01*
X112871669Y-104174211D01*
X112876913Y-104177506D01*
X112923204Y-104229841D01*
X112933852Y-104298895D01*
X112905477Y-104362743D01*
X112876913Y-104387494D01*
X112852737Y-104402684D01*
X112725184Y-104530237D01*
X112629211Y-104682976D01*
X112569631Y-104853245D01*
X112569630Y-104853250D01*
X112549435Y-105032496D01*
X112549435Y-105032503D01*
X112569630Y-105211749D01*
X112569631Y-105211754D01*
X112629211Y-105382023D01*
X112725184Y-105534762D01*
X112729599Y-105539177D01*
X112763084Y-105600500D01*
X112758100Y-105670192D01*
X112749308Y-105688853D01*
X112740424Y-105704241D01*
X112740423Y-105704244D01*
X112699499Y-105856972D01*
X112699499Y-105856974D01*
X112699499Y-106025075D01*
X112699500Y-106025088D01*
X112699500Y-113300297D01*
X112679815Y-113367336D01*
X112627011Y-113413091D01*
X112589384Y-113423517D01*
X112490749Y-113434630D01*
X112490745Y-113434631D01*
X112320476Y-113494211D01*
X112167739Y-113590183D01*
X112105179Y-113652742D01*
X112043855Y-113686226D01*
X111974164Y-113681240D01*
X111929818Y-113652740D01*
X111877262Y-113600184D01*
X111724523Y-113504211D01*
X111554254Y-113444631D01*
X111554249Y-113444630D01*
X111375004Y-113424435D01*
X111374996Y-113424435D01*
X111195750Y-113444630D01*
X111195745Y-113444631D01*
X111025476Y-113504211D01*
X110872737Y-113600184D01*
X110745184Y-113727737D01*
X110649211Y-113880476D01*
X110589631Y-114050745D01*
X110589630Y-114050750D01*
X110569435Y-114229996D01*
X110569435Y-114230003D01*
X110589630Y-114409249D01*
X110589631Y-114409254D01*
X110649211Y-114579523D01*
X110738901Y-114722262D01*
X110745184Y-114732262D01*
X110872738Y-114859816D01*
X110936695Y-114900003D01*
X111009561Y-114945788D01*
X111025478Y-114955789D01*
X111189332Y-115013124D01*
X111195745Y-115015368D01*
X111195750Y-115015369D01*
X111374996Y-115035565D01*
X111375000Y-115035565D01*
X111375004Y-115035565D01*
X111554249Y-115015369D01*
X111554252Y-115015368D01*
X111554255Y-115015368D01*
X111724522Y-114955789D01*
X111877262Y-114859816D01*
X111939819Y-114797259D01*
X112001142Y-114763774D01*
X112070834Y-114768758D01*
X112115181Y-114797259D01*
X112167738Y-114849816D01*
X112320478Y-114945789D01*
X112481869Y-115002262D01*
X112490745Y-115005368D01*
X112490750Y-115005369D01*
X112589383Y-115016482D01*
X112653797Y-115043548D01*
X112693352Y-115101143D01*
X112699500Y-115139702D01*
X112699500Y-115417587D01*
X112679815Y-115484626D01*
X112672450Y-115494896D01*
X112670186Y-115497734D01*
X112574211Y-115650476D01*
X112514631Y-115820745D01*
X112514630Y-115820750D01*
X112494435Y-115999996D01*
X112494435Y-116000003D01*
X112514630Y-116179249D01*
X112514631Y-116179254D01*
X112574211Y-116349523D01*
X112670184Y-116502262D01*
X112797738Y-116629816D01*
X112821913Y-116645006D01*
X112943586Y-116721459D01*
X112950478Y-116725789D01*
X113088860Y-116774211D01*
X113120745Y-116785368D01*
X113120750Y-116785369D01*
X113299996Y-116805565D01*
X113300000Y-116805565D01*
X113300004Y-116805565D01*
X113479249Y-116785369D01*
X113479252Y-116785368D01*
X113479255Y-116785368D01*
X113649522Y-116725789D01*
X113802262Y-116629816D01*
X113929816Y-116502262D01*
X114025789Y-116349522D01*
X114085368Y-116179255D01*
X114092636Y-116114752D01*
X114105565Y-116000003D01*
X114105565Y-115999996D01*
X114085369Y-115820750D01*
X114085368Y-115820745D01*
X114059567Y-115747011D01*
X114025789Y-115650478D01*
X114015120Y-115633499D01*
X113971380Y-115563887D01*
X113929816Y-115497738D01*
X113929814Y-115497736D01*
X113929813Y-115497734D01*
X113927550Y-115494896D01*
X113926659Y-115492715D01*
X113926111Y-115491842D01*
X113926264Y-115491745D01*
X113901144Y-115430209D01*
X113900500Y-115417587D01*
X113900500Y-115140828D01*
X113920185Y-115073789D01*
X113972989Y-115028034D01*
X114010615Y-115017608D01*
X114065950Y-115011373D01*
X114119249Y-115005369D01*
X114119252Y-115005368D01*
X114119255Y-115005368D01*
X114289522Y-114945789D01*
X114442262Y-114849816D01*
X114478568Y-114813509D01*
X114539889Y-114780024D01*
X114609581Y-114785008D01*
X114653929Y-114813508D01*
X114689944Y-114849522D01*
X114702738Y-114862316D01*
X114793080Y-114919082D01*
X114851497Y-114955788D01*
X114855478Y-114958289D01*
X114981146Y-115002262D01*
X115025745Y-115017868D01*
X115025750Y-115017869D01*
X115204996Y-115038065D01*
X115205000Y-115038065D01*
X115205004Y-115038065D01*
X115384249Y-115017869D01*
X115384252Y-115017868D01*
X115384255Y-115017868D01*
X115554522Y-114958289D01*
X115707262Y-114862316D01*
X115834816Y-114734762D01*
X115930789Y-114582022D01*
X115990368Y-114411755D01*
X115990650Y-114409254D01*
X116010565Y-114232503D01*
X116010565Y-114232496D01*
X115990369Y-114053250D01*
X115990368Y-114053245D01*
X115977866Y-114017516D01*
X115930789Y-113882978D01*
X115878648Y-113799996D01*
X116404435Y-113799996D01*
X116404435Y-113800003D01*
X116424630Y-113979249D01*
X116424631Y-113979254D01*
X116484211Y-114149523D01*
X116554427Y-114261270D01*
X116580184Y-114302262D01*
X116707738Y-114429816D01*
X116860478Y-114525789D01*
X117014038Y-114579522D01*
X117030745Y-114585368D01*
X117030750Y-114585369D01*
X117209996Y-114605565D01*
X117210000Y-114605565D01*
X117210004Y-114605565D01*
X117389249Y-114585369D01*
X117389252Y-114585368D01*
X117389255Y-114585368D01*
X117559522Y-114525789D01*
X117712262Y-114429816D01*
X117839816Y-114302262D01*
X117935789Y-114149522D01*
X117995368Y-113979255D01*
X117995369Y-113979249D01*
X117996917Y-113972468D01*
X117998492Y-113972827D01*
X118022268Y-113916221D01*
X118079857Y-113876657D01*
X118149693Y-113874508D01*
X118206115Y-113906822D01*
X118378543Y-114079249D01*
X118549209Y-114249915D01*
X118582693Y-114311237D01*
X118577709Y-114380928D01*
X118566521Y-114403567D01*
X118474211Y-114550476D01*
X118414631Y-114720745D01*
X118414630Y-114720750D01*
X118394435Y-114899996D01*
X118394435Y-114900003D01*
X118414630Y-115079249D01*
X118414631Y-115079254D01*
X118474211Y-115249523D01*
X118550028Y-115370184D01*
X118570184Y-115402262D01*
X118697738Y-115529816D01*
X118703568Y-115533479D01*
X118841557Y-115620184D01*
X118850478Y-115625789D01*
X118967152Y-115666615D01*
X119020745Y-115685368D01*
X119020750Y-115685369D01*
X119199996Y-115705565D01*
X119200000Y-115705565D01*
X119200004Y-115705565D01*
X119379249Y-115685369D01*
X119379252Y-115685368D01*
X119379255Y-115685368D01*
X119549522Y-115625789D01*
X119696432Y-115533478D01*
X119763668Y-115514479D01*
X119830504Y-115534847D01*
X119850085Y-115550792D01*
X123663181Y-119363887D01*
X123696666Y-119425210D01*
X123699500Y-119451568D01*
X123699500Y-122713330D01*
X123699499Y-122713348D01*
X123699499Y-122831202D01*
X123679814Y-122898241D01*
X123627010Y-122943996D01*
X123557852Y-122953940D01*
X123494296Y-122924915D01*
X123470506Y-122897175D01*
X123392317Y-122772739D01*
X123264762Y-122645184D01*
X123112023Y-122549211D01*
X122941754Y-122489631D01*
X122941749Y-122489630D01*
X122762504Y-122469435D01*
X122762496Y-122469435D01*
X122583250Y-122489630D01*
X122583245Y-122489631D01*
X122412976Y-122549211D01*
X122260237Y-122645184D01*
X122132684Y-122772737D01*
X122036711Y-122925476D01*
X121977131Y-123095745D01*
X121977130Y-123095750D01*
X121956935Y-123274996D01*
X121956935Y-123275003D01*
X121977130Y-123454249D01*
X121977131Y-123454254D01*
X122036711Y-123624523D01*
X122100341Y-123725789D01*
X122132684Y-123777262D01*
X122260238Y-123904816D01*
X122412978Y-124000789D01*
X122560537Y-124052422D01*
X122583245Y-124060368D01*
X122583250Y-124060369D01*
X122762496Y-124080565D01*
X122762500Y-124080565D01*
X122762504Y-124080565D01*
X122941749Y-124060369D01*
X122941752Y-124060368D01*
X122941755Y-124060368D01*
X123112022Y-124000789D01*
X123264762Y-123904816D01*
X123392316Y-123777262D01*
X123488289Y-123624522D01*
X123547868Y-123454255D01*
X123551076Y-123425782D01*
X123568065Y-123275003D01*
X123568065Y-123274997D01*
X123558764Y-123192449D01*
X123570818Y-123123627D01*
X123618167Y-123072247D01*
X123685778Y-123054623D01*
X123752184Y-123076349D01*
X123789370Y-123116564D01*
X123809980Y-123152262D01*
X123819481Y-123168717D01*
X123938349Y-123287585D01*
X123938355Y-123287590D01*
X124069298Y-123418533D01*
X124102783Y-123479856D01*
X124104837Y-123492330D01*
X124114630Y-123579249D01*
X124174210Y-123749521D01*
X124196735Y-123785369D01*
X124270184Y-123902262D01*
X124397738Y-124029816D01*
X124550478Y-124125789D01*
X124561984Y-124129815D01*
X124720745Y-124185368D01*
X124720750Y-124185369D01*
X124899996Y-124205565D01*
X124900000Y-124205565D01*
X124900004Y-124205565D01*
X125079249Y-124185369D01*
X125079252Y-124185368D01*
X125079255Y-124185368D01*
X125249522Y-124125789D01*
X125402262Y-124029816D01*
X125529816Y-123902262D01*
X125562968Y-123849500D01*
X125615300Y-123803210D01*
X125681844Y-123792252D01*
X125744290Y-123799288D01*
X125799998Y-123805565D01*
X125800000Y-123805565D01*
X125800004Y-123805565D01*
X125979249Y-123785369D01*
X125979252Y-123785368D01*
X125979255Y-123785368D01*
X126149522Y-123725789D01*
X126302262Y-123629816D01*
X126429816Y-123502262D01*
X126525789Y-123349522D01*
X126585368Y-123179255D01*
X126585369Y-123179249D01*
X126605565Y-123000003D01*
X126605565Y-122999996D01*
X126585369Y-122820750D01*
X126585368Y-122820745D01*
X126581663Y-122810157D01*
X126525789Y-122650478D01*
X126525188Y-122649522D01*
X126462159Y-122549211D01*
X126429816Y-122497738D01*
X126302262Y-122370184D01*
X126191326Y-122300478D01*
X126149521Y-122274210D01*
X125996725Y-122220745D01*
X125979255Y-122214632D01*
X125979254Y-122214631D01*
X125979249Y-122214630D01*
X125910616Y-122206897D01*
X125846202Y-122179830D01*
X125806647Y-122122235D01*
X125800500Y-122083677D01*
X125800500Y-121699996D01*
X127669435Y-121699996D01*
X127669435Y-121700003D01*
X127689630Y-121879249D01*
X127689631Y-121879254D01*
X127749211Y-122049523D01*
X127810924Y-122147738D01*
X127845184Y-122202262D01*
X127972738Y-122329816D01*
X128036983Y-122370184D01*
X128117450Y-122420745D01*
X128125478Y-122425789D01*
X128236994Y-122464810D01*
X128295745Y-122485368D01*
X128295750Y-122485369D01*
X128474996Y-122505565D01*
X128475000Y-122505565D01*
X128475003Y-122505565D01*
X128569803Y-122494883D01*
X128616134Y-122489663D01*
X128684956Y-122501717D01*
X128736336Y-122549066D01*
X128747060Y-122571929D01*
X128774210Y-122649521D01*
X128846112Y-122763952D01*
X128870184Y-122802262D01*
X128997738Y-122929816D01*
X129088080Y-122986582D01*
X129105833Y-122997737D01*
X129150478Y-123025789D01*
X129294970Y-123076349D01*
X129320745Y-123085368D01*
X129320750Y-123085369D01*
X129499996Y-123105565D01*
X129500000Y-123105565D01*
X129500004Y-123105565D01*
X129679249Y-123085369D01*
X129679252Y-123085368D01*
X129679255Y-123085368D01*
X129849522Y-123025789D01*
X130002262Y-122929816D01*
X130129816Y-122802262D01*
X130225491Y-122649996D01*
X134044435Y-122649996D01*
X134044435Y-122650003D01*
X134064630Y-122829249D01*
X134064631Y-122829254D01*
X134124211Y-122999523D01*
X134183535Y-123093936D01*
X134220184Y-123152262D01*
X134347738Y-123279816D01*
X134500478Y-123375789D01*
X134626477Y-123419878D01*
X134670745Y-123435368D01*
X134670750Y-123435369D01*
X134849996Y-123455565D01*
X134850000Y-123455565D01*
X134850004Y-123455565D01*
X135029249Y-123435369D01*
X135029252Y-123435368D01*
X135029255Y-123435368D01*
X135199522Y-123375789D01*
X135352262Y-123279816D01*
X135479816Y-123152262D01*
X135575789Y-122999522D01*
X135635368Y-122829255D01*
X135635369Y-122829249D01*
X135655565Y-122650003D01*
X135655565Y-122649996D01*
X135649931Y-122599996D01*
X141294435Y-122599996D01*
X141294435Y-122600003D01*
X141314630Y-122779249D01*
X141314631Y-122779254D01*
X141374211Y-122949523D01*
X141424662Y-123029815D01*
X141470184Y-123102262D01*
X141597738Y-123229816D01*
X141688080Y-123286582D01*
X141742450Y-123320745D01*
X141750478Y-123325789D01*
X141818306Y-123349523D01*
X141920745Y-123385368D01*
X141920750Y-123385369D01*
X142099996Y-123405565D01*
X142100000Y-123405565D01*
X142100004Y-123405565D01*
X142279249Y-123385369D01*
X142279252Y-123385368D01*
X142279255Y-123385368D01*
X142449522Y-123325789D01*
X142602262Y-123229816D01*
X142729816Y-123102262D01*
X142825789Y-122949522D01*
X142874555Y-122810157D01*
X142915277Y-122753380D01*
X142980230Y-122727633D01*
X143048791Y-122741089D01*
X143096590Y-122785138D01*
X143170184Y-122902262D01*
X143297738Y-123029816D01*
X143450478Y-123125789D01*
X143573159Y-123168717D01*
X143620745Y-123185368D01*
X143620750Y-123185369D01*
X143799996Y-123205565D01*
X143800000Y-123205565D01*
X143800004Y-123205565D01*
X143979249Y-123185369D01*
X143979252Y-123185368D01*
X143979255Y-123185368D01*
X144149522Y-123125789D01*
X144302262Y-123029816D01*
X144429816Y-122902262D01*
X144525789Y-122749522D01*
X144585368Y-122579255D01*
X144585522Y-122577892D01*
X144605565Y-122400003D01*
X144605565Y-122399996D01*
X144585369Y-122220750D01*
X144585368Y-122220745D01*
X144580522Y-122206897D01*
X144525789Y-122050478D01*
X144525188Y-122049522D01*
X144462955Y-121950478D01*
X144429816Y-121897738D01*
X144302262Y-121770184D01*
X144149523Y-121674211D01*
X143979254Y-121614631D01*
X143979249Y-121614630D01*
X143800004Y-121594435D01*
X143799996Y-121594435D01*
X143620750Y-121614630D01*
X143620745Y-121614631D01*
X143450476Y-121674211D01*
X143297737Y-121770184D01*
X143170184Y-121897737D01*
X143074208Y-122050480D01*
X143025443Y-122189843D01*
X142984721Y-122246619D01*
X142919768Y-122272366D01*
X142851207Y-122258909D01*
X142803409Y-122214861D01*
X142729816Y-122097738D01*
X142602262Y-121970184D01*
X142570897Y-121950476D01*
X142449523Y-121874211D01*
X142279254Y-121814631D01*
X142279249Y-121814630D01*
X142100004Y-121794435D01*
X142099996Y-121794435D01*
X141920750Y-121814630D01*
X141920745Y-121814631D01*
X141750476Y-121874211D01*
X141597737Y-121970184D01*
X141470184Y-122097737D01*
X141374211Y-122250476D01*
X141314631Y-122420745D01*
X141314630Y-122420750D01*
X141294435Y-122599996D01*
X135649931Y-122599996D01*
X135635369Y-122470750D01*
X135635368Y-122470745D01*
X135600180Y-122370184D01*
X135575789Y-122300478D01*
X135549669Y-122258909D01*
X135536582Y-122238080D01*
X135479816Y-122147738D01*
X135352262Y-122020184D01*
X135320144Y-122000003D01*
X135199523Y-121924211D01*
X135029254Y-121864631D01*
X135029249Y-121864630D01*
X134850004Y-121844435D01*
X134849996Y-121844435D01*
X134670750Y-121864630D01*
X134670745Y-121864631D01*
X134500476Y-121924211D01*
X134347737Y-122020184D01*
X134220184Y-122147737D01*
X134124211Y-122300476D01*
X134064631Y-122470745D01*
X134064630Y-122470750D01*
X134044435Y-122649996D01*
X130225491Y-122649996D01*
X130225789Y-122649522D01*
X130285368Y-122479255D01*
X130285369Y-122479249D01*
X130305565Y-122300003D01*
X130305565Y-122299996D01*
X130285369Y-122120750D01*
X130285368Y-122120745D01*
X130225789Y-121950478D01*
X130129816Y-121797738D01*
X130002262Y-121670184D01*
X129940834Y-121631586D01*
X129849523Y-121574211D01*
X129679254Y-121514631D01*
X129679249Y-121514630D01*
X129500004Y-121494435D01*
X129499996Y-121494435D01*
X129358864Y-121510336D01*
X129290042Y-121498281D01*
X129238663Y-121450932D01*
X129227939Y-121428069D01*
X129200790Y-121350479D01*
X129137654Y-121250000D01*
X129104816Y-121197738D01*
X128977262Y-121070184D01*
X128890660Y-121015768D01*
X128824523Y-120974211D01*
X128654254Y-120914631D01*
X128654249Y-120914630D01*
X128475004Y-120894435D01*
X128474996Y-120894435D01*
X128295750Y-120914630D01*
X128295745Y-120914631D01*
X128125476Y-120974211D01*
X127972737Y-121070184D01*
X127845184Y-121197737D01*
X127749211Y-121350476D01*
X127689631Y-121520745D01*
X127689630Y-121520750D01*
X127669435Y-121699996D01*
X125800500Y-121699996D01*
X125800500Y-118220945D01*
X125800500Y-118220943D01*
X125796101Y-118204523D01*
X125794888Y-118199996D01*
X137394435Y-118199996D01*
X137394435Y-118200003D01*
X137414630Y-118379249D01*
X137414631Y-118379254D01*
X137474211Y-118549523D01*
X137537646Y-118650478D01*
X137570184Y-118702262D01*
X137697738Y-118829816D01*
X137850478Y-118925789D01*
X138020745Y-118985368D01*
X138020750Y-118985369D01*
X138199996Y-119005565D01*
X138200000Y-119005565D01*
X138200004Y-119005565D01*
X138379249Y-118985369D01*
X138379252Y-118985368D01*
X138379255Y-118985368D01*
X138549522Y-118925789D01*
X138702262Y-118829816D01*
X138829816Y-118702262D01*
X138925789Y-118549522D01*
X138985368Y-118379255D01*
X138988102Y-118354994D01*
X139005565Y-118200003D01*
X139005565Y-118199996D01*
X138985369Y-118020750D01*
X138985368Y-118020745D01*
X138978901Y-118002263D01*
X138943116Y-117899996D01*
X140694435Y-117899996D01*
X140694435Y-117900003D01*
X140714630Y-118079249D01*
X140714631Y-118079254D01*
X140774211Y-118249523D01*
X140850028Y-118370184D01*
X140870184Y-118402262D01*
X140997738Y-118529816D01*
X141150478Y-118625789D01*
X141320745Y-118685368D01*
X141320750Y-118685369D01*
X141499996Y-118705565D01*
X141500000Y-118705565D01*
X141500004Y-118705565D01*
X141679249Y-118685369D01*
X141679252Y-118685368D01*
X141679255Y-118685368D01*
X141849522Y-118625789D01*
X142002262Y-118529816D01*
X142129816Y-118402262D01*
X142225789Y-118249522D01*
X142285368Y-118079255D01*
X142291960Y-118020750D01*
X142305565Y-117900003D01*
X142305565Y-117899996D01*
X142285369Y-117720750D01*
X142285368Y-117720745D01*
X142280428Y-117706628D01*
X142225789Y-117550478D01*
X142129816Y-117397738D01*
X142002262Y-117270184D01*
X141849523Y-117174211D01*
X141679254Y-117114631D01*
X141679249Y-117114630D01*
X141500004Y-117094435D01*
X141499996Y-117094435D01*
X141320750Y-117114630D01*
X141320745Y-117114631D01*
X141150476Y-117174211D01*
X140997737Y-117270184D01*
X140870184Y-117397737D01*
X140774211Y-117550476D01*
X140714631Y-117720745D01*
X140714630Y-117720750D01*
X140694435Y-117899996D01*
X138943116Y-117899996D01*
X138925789Y-117850478D01*
X138925188Y-117849522D01*
X138829815Y-117697737D01*
X138702262Y-117570184D01*
X138549523Y-117474211D01*
X138379254Y-117414631D01*
X138379249Y-117414630D01*
X138200004Y-117394435D01*
X138199996Y-117394435D01*
X138020750Y-117414630D01*
X138020745Y-117414631D01*
X137850476Y-117474211D01*
X137697737Y-117570184D01*
X137570184Y-117697737D01*
X137474211Y-117850476D01*
X137414631Y-118020745D01*
X137414630Y-118020750D01*
X137394435Y-118199996D01*
X125794888Y-118199996D01*
X125759577Y-118068215D01*
X125721499Y-118002262D01*
X125721499Y-118002261D01*
X125680524Y-117931290D01*
X125680521Y-117931286D01*
X125680520Y-117931284D01*
X125568716Y-117819480D01*
X125568715Y-117819479D01*
X125564385Y-117815149D01*
X125564374Y-117815139D01*
X123552652Y-115803417D01*
X123519167Y-115742094D01*
X123524151Y-115672402D01*
X123566023Y-115616469D01*
X123631487Y-115592052D01*
X123654213Y-115592515D01*
X123718167Y-115599721D01*
X123795631Y-115608450D01*
X123795634Y-115608450D01*
X123795638Y-115608450D01*
X123974883Y-115588254D01*
X123974886Y-115588253D01*
X123974889Y-115588253D01*
X124145156Y-115528674D01*
X124297896Y-115432701D01*
X124425450Y-115305147D01*
X124521423Y-115152407D01*
X124581002Y-114982140D01*
X124582347Y-114970202D01*
X124601199Y-114802888D01*
X124601199Y-114802881D01*
X124581003Y-114623635D01*
X124581002Y-114623630D01*
X124567614Y-114585369D01*
X124521423Y-114453363D01*
X124506627Y-114429816D01*
X124444513Y-114330962D01*
X124425450Y-114300623D01*
X124297896Y-114173069D01*
X124261943Y-114150478D01*
X124145157Y-114077096D01*
X123974888Y-114017516D01*
X123974883Y-114017515D01*
X123795638Y-113997320D01*
X123795630Y-113997320D01*
X123616384Y-114017515D01*
X123616379Y-114017516D01*
X123446110Y-114077096D01*
X123293371Y-114173069D01*
X123165818Y-114300622D01*
X123069845Y-114453361D01*
X123010265Y-114623630D01*
X123010264Y-114623635D01*
X122990069Y-114802881D01*
X122990069Y-114802888D01*
X123006002Y-114944302D01*
X122993947Y-115013124D01*
X122946598Y-115064503D01*
X122878988Y-115082127D01*
X122812582Y-115060400D01*
X122795101Y-115045866D01*
X122141520Y-114392285D01*
X122108035Y-114330962D01*
X122113019Y-114261270D01*
X122154891Y-114205337D01*
X122220355Y-114180920D01*
X122243082Y-114181383D01*
X122278663Y-114185392D01*
X122318486Y-114189880D01*
X122318488Y-114189880D01*
X122318492Y-114189880D01*
X122497737Y-114169684D01*
X122497740Y-114169683D01*
X122497743Y-114169683D01*
X122668010Y-114110104D01*
X122820750Y-114014131D01*
X122934885Y-113899996D01*
X126294435Y-113899996D01*
X126294435Y-113900003D01*
X126314630Y-114079249D01*
X126314631Y-114079254D01*
X126374211Y-114249523D01*
X126425383Y-114330962D01*
X126470184Y-114402262D01*
X126597738Y-114529816D01*
X126750478Y-114625789D01*
X126903258Y-114679249D01*
X126920745Y-114685368D01*
X126920750Y-114685369D01*
X127099996Y-114705565D01*
X127100000Y-114705565D01*
X127100004Y-114705565D01*
X127279249Y-114685369D01*
X127279252Y-114685368D01*
X127279255Y-114685368D01*
X127449522Y-114625789D01*
X127602262Y-114529816D01*
X127729816Y-114402262D01*
X127825789Y-114249522D01*
X127885368Y-114079255D01*
X127885369Y-114079249D01*
X127905565Y-113900003D01*
X127905565Y-113899996D01*
X127885369Y-113720750D01*
X127885368Y-113720745D01*
X127844057Y-113602686D01*
X127825789Y-113550478D01*
X127812004Y-113528540D01*
X127762955Y-113450478D01*
X127729816Y-113397738D01*
X127602262Y-113270184D01*
X127531608Y-113225789D01*
X127449523Y-113174211D01*
X127279254Y-113114631D01*
X127279249Y-113114630D01*
X127100004Y-113094435D01*
X127099996Y-113094435D01*
X126920750Y-113114630D01*
X126920745Y-113114631D01*
X126750476Y-113174211D01*
X126597737Y-113270184D01*
X126470184Y-113397737D01*
X126374211Y-113550476D01*
X126314631Y-113720745D01*
X126314630Y-113720750D01*
X126294435Y-113899996D01*
X122934885Y-113899996D01*
X122948304Y-113886577D01*
X123044277Y-113733837D01*
X123103856Y-113563570D01*
X123105331Y-113550478D01*
X123124053Y-113384318D01*
X123124053Y-113384311D01*
X123103857Y-113205065D01*
X123103856Y-113205060D01*
X123096965Y-113185368D01*
X123044277Y-113034793D01*
X123031608Y-113014631D01*
X122948303Y-112882052D01*
X122820750Y-112754499D01*
X122668011Y-112658526D01*
X122497742Y-112598946D01*
X122497737Y-112598945D01*
X122318492Y-112578750D01*
X122318484Y-112578750D01*
X122139238Y-112598945D01*
X122139233Y-112598946D01*
X121968964Y-112658526D01*
X121816225Y-112754499D01*
X121688672Y-112882052D01*
X121592699Y-113034791D01*
X121533119Y-113205060D01*
X121533118Y-113205065D01*
X121512923Y-113384311D01*
X121512923Y-113384319D01*
X121521418Y-113459718D01*
X121509363Y-113528540D01*
X121462014Y-113579919D01*
X121394404Y-113597543D01*
X121327998Y-113575816D01*
X121310517Y-113561282D01*
X120436819Y-112687584D01*
X120403334Y-112626261D01*
X120400500Y-112599903D01*
X120400500Y-112499996D01*
X142794435Y-112499996D01*
X142794435Y-112500003D01*
X142814630Y-112679249D01*
X142814631Y-112679254D01*
X142874211Y-112849523D01*
X142955603Y-112979057D01*
X142970184Y-113002262D01*
X143097738Y-113129816D01*
X143250478Y-113225789D01*
X143377352Y-113270184D01*
X143420745Y-113285368D01*
X143420750Y-113285369D01*
X143599996Y-113305565D01*
X143600000Y-113305565D01*
X143600004Y-113305565D01*
X143779249Y-113285369D01*
X143779252Y-113285368D01*
X143779255Y-113285368D01*
X143949522Y-113225789D01*
X144102262Y-113129816D01*
X144229816Y-113002262D01*
X144325789Y-112849522D01*
X144385368Y-112679255D01*
X144394309Y-112599903D01*
X144405565Y-112500003D01*
X144405565Y-112499996D01*
X144385369Y-112320750D01*
X144385368Y-112320745D01*
X144379148Y-112302968D01*
X144325789Y-112150478D01*
X144229816Y-111997738D01*
X144102262Y-111870184D01*
X144095240Y-111865772D01*
X143949523Y-111774211D01*
X143779254Y-111714631D01*
X143779249Y-111714630D01*
X143600004Y-111694435D01*
X143599996Y-111694435D01*
X143420750Y-111714630D01*
X143420745Y-111714631D01*
X143250476Y-111774211D01*
X143097737Y-111870184D01*
X142970184Y-111997737D01*
X142874211Y-112150476D01*
X142814631Y-112320745D01*
X142814630Y-112320750D01*
X142794435Y-112499996D01*
X120400500Y-112499996D01*
X120400500Y-112370007D01*
X120420185Y-112302968D01*
X120472989Y-112257213D01*
X120542147Y-112247269D01*
X120565455Y-112252966D01*
X120704487Y-112301616D01*
X120704493Y-112301617D01*
X120704495Y-112301618D01*
X120704496Y-112301618D01*
X120704500Y-112301619D01*
X120883746Y-112321815D01*
X120883750Y-112321815D01*
X120883754Y-112321815D01*
X121062999Y-112301619D01*
X121063002Y-112301618D01*
X121063005Y-112301618D01*
X121233272Y-112242039D01*
X121386012Y-112146066D01*
X121513566Y-112018512D01*
X121609539Y-111865772D01*
X121669118Y-111695505D01*
X121679963Y-111599254D01*
X121689315Y-111516253D01*
X121689315Y-111516246D01*
X121669119Y-111337000D01*
X121669118Y-111336995D01*
X121641277Y-111257431D01*
X121609539Y-111166728D01*
X121513566Y-111013988D01*
X121386012Y-110886434D01*
X121233273Y-110790461D01*
X121063004Y-110730881D01*
X121062999Y-110730880D01*
X120883754Y-110710685D01*
X120883746Y-110710685D01*
X120704498Y-110730880D01*
X120687387Y-110736868D01*
X120617608Y-110740428D01*
X120556981Y-110705697D01*
X120529393Y-110660779D01*
X120525789Y-110650478D01*
X120429816Y-110497738D01*
X120302262Y-110370184D01*
X120271387Y-110350784D01*
X120149523Y-110274211D01*
X119979254Y-110214631D01*
X119979250Y-110214630D01*
X119852607Y-110200361D01*
X119788193Y-110173294D01*
X119749449Y-110118095D01*
X119739710Y-110090264D01*
X119725789Y-110050478D01*
X119707106Y-110020745D01*
X119686582Y-109988080D01*
X119629816Y-109897738D01*
X119502262Y-109770184D01*
X119496232Y-109766395D01*
X119349523Y-109674211D01*
X119179254Y-109614631D01*
X119179249Y-109614630D01*
X119000004Y-109594435D01*
X118999996Y-109594435D01*
X118820750Y-109614630D01*
X118820745Y-109614631D01*
X118650476Y-109674211D01*
X118497737Y-109770184D01*
X118370184Y-109897737D01*
X118274210Y-110050478D01*
X118214630Y-110220750D01*
X118204837Y-110307666D01*
X118177770Y-110372080D01*
X118169299Y-110381462D01*
X118124237Y-110426524D01*
X118124212Y-110426552D01*
X118019478Y-110531286D01*
X117983745Y-110593180D01*
X117983744Y-110593182D01*
X117940423Y-110668214D01*
X117929043Y-110710685D01*
X117899499Y-110820943D01*
X117899499Y-110820945D01*
X117899499Y-110989046D01*
X117899500Y-110989059D01*
X117899500Y-113063472D01*
X117879815Y-113130511D01*
X117827011Y-113176266D01*
X117757853Y-113186210D01*
X117709528Y-113168466D01*
X117559523Y-113074211D01*
X117389254Y-113014631D01*
X117389249Y-113014630D01*
X117210004Y-112994435D01*
X117209996Y-112994435D01*
X117030750Y-113014630D01*
X117030745Y-113014631D01*
X116860476Y-113074211D01*
X116707737Y-113170184D01*
X116580184Y-113297737D01*
X116484211Y-113450476D01*
X116424631Y-113620745D01*
X116424630Y-113620750D01*
X116404435Y-113799996D01*
X115878648Y-113799996D01*
X115834816Y-113730238D01*
X115707262Y-113602684D01*
X115699080Y-113597543D01*
X115554523Y-113506711D01*
X115384254Y-113447131D01*
X115384249Y-113447130D01*
X115205004Y-113426935D01*
X115204996Y-113426935D01*
X115025750Y-113447130D01*
X115025745Y-113447131D01*
X114855476Y-113506711D01*
X114702734Y-113602686D01*
X114702733Y-113602686D01*
X114666429Y-113638991D01*
X114605106Y-113672476D01*
X114535414Y-113667490D01*
X114491068Y-113638990D01*
X114442262Y-113590184D01*
X114289523Y-113494211D01*
X114119254Y-113434631D01*
X114119249Y-113434630D01*
X114010617Y-113422391D01*
X113946203Y-113395325D01*
X113906647Y-113337730D01*
X113900500Y-113299171D01*
X113900500Y-107532496D01*
X115576963Y-107532496D01*
X115576963Y-107532503D01*
X115597158Y-107711749D01*
X115597159Y-107711754D01*
X115656739Y-107882023D01*
X115708646Y-107964632D01*
X115752712Y-108034762D01*
X115880266Y-108162316D01*
X115931383Y-108194435D01*
X116016212Y-108247737D01*
X116033006Y-108258289D01*
X116118101Y-108288065D01*
X116203273Y-108317868D01*
X116203278Y-108317869D01*
X116382524Y-108338065D01*
X116382528Y-108338065D01*
X116382532Y-108338065D01*
X116561777Y-108317869D01*
X116561780Y-108317868D01*
X116561783Y-108317868D01*
X116561784Y-108317867D01*
X116561787Y-108317867D01*
X116612838Y-108300003D01*
X116703972Y-108268113D01*
X116773747Y-108264551D01*
X116810897Y-108280162D01*
X116929240Y-108354523D01*
X117099510Y-108414103D01*
X117099515Y-108414104D01*
X117278761Y-108434300D01*
X117278765Y-108434300D01*
X117278769Y-108434300D01*
X117458014Y-108414104D01*
X117458017Y-108414103D01*
X117458020Y-108414103D01*
X117628287Y-108354524D01*
X117748461Y-108279013D01*
X117815696Y-108260013D01*
X117855387Y-108266966D01*
X118000850Y-108317866D01*
X118000856Y-108317867D01*
X118000858Y-108317868D01*
X118000859Y-108317868D01*
X118000863Y-108317869D01*
X118180109Y-108338065D01*
X118180113Y-108338065D01*
X118180117Y-108338065D01*
X118359362Y-108317869D01*
X118359365Y-108317868D01*
X118359368Y-108317868D01*
X118529635Y-108258289D01*
X118682375Y-108162316D01*
X118809929Y-108034762D01*
X118905902Y-107882022D01*
X118965481Y-107711755D01*
X118970165Y-107670184D01*
X118985678Y-107532503D01*
X118985678Y-107532496D01*
X118965482Y-107353250D01*
X118965481Y-107353245D01*
X118905902Y-107182978D01*
X118809929Y-107030238D01*
X118682375Y-106902684D01*
X118667154Y-106893120D01*
X118529636Y-106806711D01*
X118359367Y-106747131D01*
X118359362Y-106747130D01*
X118180117Y-106726935D01*
X118180109Y-106726935D01*
X118000863Y-106747130D01*
X118000858Y-106747131D01*
X117830589Y-106806711D01*
X117710417Y-106882221D01*
X117643180Y-106901221D01*
X117603490Y-106894269D01*
X117458019Y-106843366D01*
X117458014Y-106843365D01*
X117278769Y-106823170D01*
X117278761Y-106823170D01*
X117099515Y-106843365D01*
X117099507Y-106843367D01*
X116957321Y-106893120D01*
X116887542Y-106896681D01*
X116850395Y-106881072D01*
X116732051Y-106806711D01*
X116561782Y-106747131D01*
X116561777Y-106747130D01*
X116382532Y-106726935D01*
X116382524Y-106726935D01*
X116203278Y-106747130D01*
X116203273Y-106747131D01*
X116033004Y-106806711D01*
X115880265Y-106902684D01*
X115752712Y-107030237D01*
X115656739Y-107182976D01*
X115597159Y-107353245D01*
X115597158Y-107353250D01*
X115576963Y-107532496D01*
X113900500Y-107532496D01*
X113900500Y-106236125D01*
X113920185Y-106169086D01*
X113936815Y-106148448D01*
X114358506Y-105726756D01*
X114358511Y-105726753D01*
X114368714Y-105716549D01*
X114368716Y-105716549D01*
X114480520Y-105604745D01*
X114559577Y-105467813D01*
X114600500Y-105315086D01*
X114600500Y-102899996D01*
X116494435Y-102899996D01*
X116494435Y-102900003D01*
X116514630Y-103079249D01*
X116514631Y-103079254D01*
X116574211Y-103249523D01*
X116655724Y-103379249D01*
X116670184Y-103402262D01*
X116797738Y-103529816D01*
X116950478Y-103625789D01*
X117120745Y-103685368D01*
X117207669Y-103695161D01*
X117272080Y-103722226D01*
X117281465Y-103730700D01*
X117672639Y-104121874D01*
X117672649Y-104121885D01*
X117676979Y-104126215D01*
X117676980Y-104126216D01*
X117788784Y-104238020D01*
X117874147Y-104287304D01*
X117925715Y-104317077D01*
X118078443Y-104358000D01*
X118236557Y-104358000D01*
X118705903Y-104358000D01*
X118772942Y-104377685D01*
X118818697Y-104430489D01*
X118828641Y-104499647D01*
X118799616Y-104563203D01*
X118793590Y-104569673D01*
X118684015Y-104679249D01*
X118623167Y-104740097D01*
X118561844Y-104773582D01*
X118494532Y-104769458D01*
X118430724Y-104747131D01*
X118251476Y-104726935D01*
X118251468Y-104726935D01*
X118072222Y-104747130D01*
X118072217Y-104747131D01*
X117901948Y-104806711D01*
X117749209Y-104902684D01*
X117621656Y-105030237D01*
X117525683Y-105182976D01*
X117466103Y-105353245D01*
X117466102Y-105353250D01*
X117445907Y-105532496D01*
X117445907Y-105532503D01*
X117466102Y-105711749D01*
X117466103Y-105711754D01*
X117525683Y-105882023D01*
X117609293Y-106015086D01*
X117621656Y-106034762D01*
X117749210Y-106162316D01*
X117901950Y-106258289D01*
X118072214Y-106317867D01*
X118072217Y-106317868D01*
X118072222Y-106317869D01*
X118251468Y-106338065D01*
X118251472Y-106338065D01*
X118251476Y-106338065D01*
X118430721Y-106317869D01*
X118430724Y-106317868D01*
X118430727Y-106317868D01*
X118600994Y-106258289D01*
X118753734Y-106162316D01*
X118768334Y-106147714D01*
X118823922Y-106115619D01*
X118911785Y-106092077D01*
X118961904Y-106063139D01*
X119048716Y-106013020D01*
X119160520Y-105901216D01*
X119160520Y-105901214D01*
X119170728Y-105891007D01*
X119170729Y-105891004D01*
X120667416Y-104394319D01*
X120728739Y-104360834D01*
X120755097Y-104358000D01*
X124449903Y-104358000D01*
X124516942Y-104377685D01*
X124537584Y-104394319D01*
X124782339Y-104639074D01*
X124815824Y-104700397D01*
X124810840Y-104770089D01*
X124768968Y-104826022D01*
X124760630Y-104831749D01*
X124647737Y-104902684D01*
X124520184Y-105030237D01*
X124424211Y-105182976D01*
X124364631Y-105353245D01*
X124364630Y-105353250D01*
X124344435Y-105532496D01*
X124344435Y-105532503D01*
X124364630Y-105711749D01*
X124364631Y-105711754D01*
X124424211Y-105882023D01*
X124507821Y-106015086D01*
X124520184Y-106034762D01*
X124647738Y-106162316D01*
X124800478Y-106258289D01*
X124970745Y-106317868D01*
X125039384Y-106325601D01*
X125103796Y-106352666D01*
X125143352Y-106410260D01*
X125149500Y-106448821D01*
X125149500Y-110069902D01*
X125129815Y-110136941D01*
X125113181Y-110157583D01*
X124709770Y-110560993D01*
X124648447Y-110594478D01*
X124578755Y-110589494D01*
X124522822Y-110547622D01*
X124498405Y-110482158D01*
X124498869Y-110459428D01*
X124500038Y-110449058D01*
X124502573Y-110426552D01*
X124505565Y-110400002D01*
X124505565Y-110399996D01*
X124485369Y-110220750D01*
X124485368Y-110220745D01*
X124463267Y-110157583D01*
X124425789Y-110050478D01*
X124407106Y-110020745D01*
X124386582Y-109988080D01*
X124329816Y-109897738D01*
X124202262Y-109770184D01*
X124196232Y-109766395D01*
X124049523Y-109674211D01*
X123879254Y-109614631D01*
X123879249Y-109614630D01*
X123700004Y-109594435D01*
X123699996Y-109594435D01*
X123520750Y-109614630D01*
X123520738Y-109614633D01*
X123465361Y-109634010D01*
X123395582Y-109637571D01*
X123336727Y-109604649D01*
X123302262Y-109570184D01*
X123149523Y-109474211D01*
X122979254Y-109414631D01*
X122979249Y-109414630D01*
X122800004Y-109394435D01*
X122799996Y-109394435D01*
X122620750Y-109414630D01*
X122620745Y-109414631D01*
X122450476Y-109474211D01*
X122297737Y-109570184D01*
X122170184Y-109697737D01*
X122074211Y-109850476D01*
X122014631Y-110020745D01*
X122014630Y-110020750D01*
X121994435Y-110199996D01*
X121994435Y-110200003D01*
X122014630Y-110379249D01*
X122014631Y-110379254D01*
X122074211Y-110549523D01*
X122141407Y-110656464D01*
X122170184Y-110702262D01*
X122297738Y-110829816D01*
X122450478Y-110925789D01*
X122555181Y-110962426D01*
X122620745Y-110985368D01*
X122620750Y-110985369D01*
X122799996Y-111005565D01*
X122800000Y-111005565D01*
X122800004Y-111005565D01*
X122979249Y-110985369D01*
X122979250Y-110985368D01*
X122979255Y-110985368D01*
X123034635Y-110965988D01*
X123104413Y-110962426D01*
X123163271Y-110995349D01*
X123197738Y-111029816D01*
X123350478Y-111125789D01*
X123361984Y-111129815D01*
X123520745Y-111185368D01*
X123520750Y-111185369D01*
X123699996Y-111205565D01*
X123700000Y-111205565D01*
X123700002Y-111205565D01*
X123739968Y-111201061D01*
X123766892Y-111198028D01*
X123835714Y-111210082D01*
X123887093Y-111257431D01*
X123904718Y-111325041D01*
X123903996Y-111335130D01*
X123894435Y-111419994D01*
X123894435Y-111420003D01*
X123914630Y-111599249D01*
X123914631Y-111599254D01*
X123974211Y-111769523D01*
X124037461Y-111870184D01*
X124070184Y-111922262D01*
X124197738Y-112049816D01*
X124350478Y-112145789D01*
X124520745Y-112205368D01*
X124520750Y-112205369D01*
X124699996Y-112225565D01*
X124700000Y-112225565D01*
X124700004Y-112225565D01*
X124879249Y-112205369D01*
X124879252Y-112205368D01*
X124879255Y-112205368D01*
X125049522Y-112145789D01*
X125202262Y-112049816D01*
X125329816Y-111922262D01*
X125425789Y-111769522D01*
X125485368Y-111599255D01*
X125495161Y-111512329D01*
X125522226Y-111447918D01*
X125530690Y-111438543D01*
X126108506Y-110860728D01*
X126108511Y-110860724D01*
X126118714Y-110850520D01*
X126118716Y-110850520D01*
X126219240Y-110749996D01*
X135944435Y-110749996D01*
X135944435Y-110750003D01*
X135964630Y-110929249D01*
X135964631Y-110929254D01*
X136024211Y-111099523D01*
X136103549Y-111225788D01*
X136120184Y-111252262D01*
X136247738Y-111379816D01*
X136311695Y-111420003D01*
X136390015Y-111469215D01*
X136400478Y-111475789D01*
X136570745Y-111535368D01*
X136570750Y-111535369D01*
X136749996Y-111555565D01*
X136750000Y-111555565D01*
X136750004Y-111555565D01*
X136929249Y-111535369D01*
X136929252Y-111535368D01*
X136929255Y-111535368D01*
X137099522Y-111475789D01*
X137252262Y-111379816D01*
X137379816Y-111252262D01*
X137475789Y-111099522D01*
X137535368Y-110929255D01*
X137545161Y-110842329D01*
X137572226Y-110777918D01*
X137580690Y-110768543D01*
X140049240Y-108299996D01*
X140494435Y-108299996D01*
X140494435Y-108300003D01*
X140514630Y-108479249D01*
X140514631Y-108479254D01*
X140574211Y-108649523D01*
X140637347Y-108750003D01*
X140670184Y-108802262D01*
X140797738Y-108929816D01*
X140874860Y-108978275D01*
X140905833Y-108997737D01*
X140950478Y-109025789D01*
X141051960Y-109061299D01*
X141120745Y-109085368D01*
X141120750Y-109085369D01*
X141299996Y-109105565D01*
X141300000Y-109105565D01*
X141300004Y-109105565D01*
X141479249Y-109085369D01*
X141479252Y-109085368D01*
X141479255Y-109085368D01*
X141649522Y-109025789D01*
X141802262Y-108929816D01*
X141929816Y-108802262D01*
X142025789Y-108649522D01*
X142085368Y-108479255D01*
X142094244Y-108400478D01*
X142105565Y-108300003D01*
X142105565Y-108299996D01*
X142085369Y-108120750D01*
X142085368Y-108120745D01*
X142052394Y-108026510D01*
X142025789Y-107950478D01*
X141929816Y-107797738D01*
X141802262Y-107670184D01*
X141772151Y-107651264D01*
X141649523Y-107574211D01*
X141479254Y-107514631D01*
X141479249Y-107514630D01*
X141300004Y-107494435D01*
X141299996Y-107494435D01*
X141120750Y-107514630D01*
X141120745Y-107514631D01*
X140950476Y-107574211D01*
X140797737Y-107670184D01*
X140670184Y-107797737D01*
X140574211Y-107950476D01*
X140514631Y-108120745D01*
X140514630Y-108120750D01*
X140494435Y-108299996D01*
X140049240Y-108299996D01*
X140080520Y-108268716D01*
X140159577Y-108131784D01*
X140200501Y-107979057D01*
X140200501Y-107820942D01*
X140200501Y-107813347D01*
X140200500Y-107813329D01*
X140200500Y-103482412D01*
X140220185Y-103415373D01*
X140227555Y-103405097D01*
X140229810Y-103402267D01*
X140229816Y-103402262D01*
X140325789Y-103249522D01*
X140385368Y-103079255D01*
X140391960Y-103020750D01*
X140405565Y-102900003D01*
X140405565Y-102899996D01*
X140394298Y-102799996D01*
X142394435Y-102799996D01*
X142394435Y-102800003D01*
X142414630Y-102979249D01*
X142414631Y-102979254D01*
X142474211Y-103149523D01*
X142537045Y-103249522D01*
X142570184Y-103302262D01*
X142697738Y-103429816D01*
X142850478Y-103525789D01*
X142971216Y-103568037D01*
X143020745Y-103585368D01*
X143020750Y-103585369D01*
X143199996Y-103605565D01*
X143200000Y-103605565D01*
X143200004Y-103605565D01*
X143379249Y-103585369D01*
X143379252Y-103585368D01*
X143379255Y-103585368D01*
X143549522Y-103525789D01*
X143702262Y-103429816D01*
X143829816Y-103302262D01*
X143925789Y-103149522D01*
X143985368Y-102979255D01*
X143990455Y-102934108D01*
X144005565Y-102800003D01*
X144005565Y-102799996D01*
X143985369Y-102620750D01*
X143985368Y-102620745D01*
X143967676Y-102570184D01*
X143943116Y-102499996D01*
X145294435Y-102499996D01*
X145294435Y-102500003D01*
X145314630Y-102679249D01*
X145314631Y-102679254D01*
X145374211Y-102849523D01*
X145394282Y-102881465D01*
X145470184Y-103002262D01*
X145597738Y-103129816D01*
X145641001Y-103157000D01*
X145712670Y-103202033D01*
X145750478Y-103225789D01*
X145896776Y-103276981D01*
X145920745Y-103285368D01*
X145920750Y-103285369D01*
X146099996Y-103305565D01*
X146100000Y-103305565D01*
X146100004Y-103305565D01*
X146279249Y-103285369D01*
X146279252Y-103285368D01*
X146279255Y-103285368D01*
X146449522Y-103225789D01*
X146602262Y-103129816D01*
X146729816Y-103002262D01*
X146825789Y-102849522D01*
X146885368Y-102679255D01*
X146885493Y-102678146D01*
X146905565Y-102500003D01*
X146905565Y-102499996D01*
X146885369Y-102320750D01*
X146885368Y-102320745D01*
X146877903Y-102299411D01*
X146825789Y-102150478D01*
X146803265Y-102114632D01*
X146740431Y-102014632D01*
X146729816Y-101997738D01*
X146602262Y-101870184D01*
X146569379Y-101849522D01*
X146449523Y-101774211D01*
X146279254Y-101714631D01*
X146279249Y-101714630D01*
X146100004Y-101694435D01*
X146099996Y-101694435D01*
X145920750Y-101714630D01*
X145920745Y-101714631D01*
X145750476Y-101774211D01*
X145597737Y-101870184D01*
X145470184Y-101997737D01*
X145374211Y-102150476D01*
X145314631Y-102320745D01*
X145314630Y-102320750D01*
X145294435Y-102499996D01*
X143943116Y-102499996D01*
X143925789Y-102450478D01*
X143914158Y-102431968D01*
X143862354Y-102349522D01*
X143829816Y-102297738D01*
X143702262Y-102170184D01*
X143667628Y-102148422D01*
X143549523Y-102074211D01*
X143379254Y-102014631D01*
X143379249Y-102014630D01*
X143200004Y-101994435D01*
X143199996Y-101994435D01*
X143020750Y-102014630D01*
X143020745Y-102014631D01*
X142850476Y-102074211D01*
X142697737Y-102170184D01*
X142570184Y-102297737D01*
X142474211Y-102450476D01*
X142414631Y-102620745D01*
X142414630Y-102620750D01*
X142394435Y-102799996D01*
X140394298Y-102799996D01*
X140385369Y-102720750D01*
X140385368Y-102720745D01*
X140377661Y-102698719D01*
X140325789Y-102550478D01*
X140229816Y-102397738D01*
X140102262Y-102270184D01*
X140084896Y-102259272D01*
X139949523Y-102174211D01*
X139779254Y-102114631D01*
X139779249Y-102114630D01*
X139600004Y-102094435D01*
X139599996Y-102094435D01*
X139420750Y-102114630D01*
X139420745Y-102114631D01*
X139250476Y-102174211D01*
X139097737Y-102270184D01*
X138970184Y-102397737D01*
X138874211Y-102550476D01*
X138814631Y-102720745D01*
X138814630Y-102720750D01*
X138794435Y-102899996D01*
X138794435Y-102900003D01*
X138814630Y-103079249D01*
X138814631Y-103079254D01*
X138874211Y-103249523D01*
X138909425Y-103305565D01*
X138966158Y-103395855D01*
X138970185Y-103402263D01*
X138972445Y-103405097D01*
X138973334Y-103407275D01*
X138973889Y-103408158D01*
X138973734Y-103408255D01*
X138998855Y-103469783D01*
X138999500Y-103482412D01*
X138999500Y-107599902D01*
X138979815Y-107666941D01*
X138963181Y-107687583D01*
X136731465Y-109919298D01*
X136670142Y-109952783D01*
X136657668Y-109954837D01*
X136570750Y-109964630D01*
X136400478Y-110024210D01*
X136247737Y-110120184D01*
X136120184Y-110247737D01*
X136024211Y-110400476D01*
X135964631Y-110570745D01*
X135964630Y-110570750D01*
X135944435Y-110749996D01*
X126219240Y-110749996D01*
X126230520Y-110738716D01*
X126246704Y-110710685D01*
X126281464Y-110650479D01*
X126281464Y-110650478D01*
X126309577Y-110601785D01*
X126350500Y-110449058D01*
X126350500Y-110290943D01*
X126350500Y-108999996D01*
X129394435Y-108999996D01*
X129394435Y-109000003D01*
X129414630Y-109179249D01*
X129414631Y-109179254D01*
X129474211Y-109349523D01*
X129515122Y-109414632D01*
X129570184Y-109502262D01*
X129697738Y-109629816D01*
X129721913Y-109645006D01*
X129805833Y-109697737D01*
X129850478Y-109725789D01*
X129977352Y-109770184D01*
X130020745Y-109785368D01*
X130020750Y-109785369D01*
X130199996Y-109805565D01*
X130200000Y-109805565D01*
X130200004Y-109805565D01*
X130379249Y-109785369D01*
X130379252Y-109785368D01*
X130379255Y-109785368D01*
X130549522Y-109725789D01*
X130702262Y-109629816D01*
X130829816Y-109502262D01*
X130831240Y-109499996D01*
X133494435Y-109499996D01*
X133494435Y-109500003D01*
X133514630Y-109679249D01*
X133514631Y-109679254D01*
X133574211Y-109849523D01*
X133604507Y-109897738D01*
X133670184Y-110002262D01*
X133797738Y-110129816D01*
X133841929Y-110157583D01*
X133942450Y-110220745D01*
X133950478Y-110225789D01*
X134013202Y-110247737D01*
X134120745Y-110285368D01*
X134120750Y-110285369D01*
X134299996Y-110305565D01*
X134300000Y-110305565D01*
X134300004Y-110305565D01*
X134479249Y-110285369D01*
X134479252Y-110285368D01*
X134479255Y-110285368D01*
X134649522Y-110225789D01*
X134802262Y-110129816D01*
X134929816Y-110002262D01*
X135025789Y-109849522D01*
X135085368Y-109679255D01*
X135085369Y-109679249D01*
X135105565Y-109500003D01*
X135105565Y-109499996D01*
X135085369Y-109320750D01*
X135085368Y-109320745D01*
X135060442Y-109249511D01*
X135025789Y-109150478D01*
X134929816Y-108997738D01*
X134802262Y-108870184D01*
X134649523Y-108774211D01*
X134479254Y-108714631D01*
X134479249Y-108714630D01*
X134300004Y-108694435D01*
X134299996Y-108694435D01*
X134120750Y-108714630D01*
X134120745Y-108714631D01*
X133950476Y-108774211D01*
X133797737Y-108870184D01*
X133670184Y-108997737D01*
X133574211Y-109150476D01*
X133514631Y-109320745D01*
X133514630Y-109320750D01*
X133494435Y-109499996D01*
X130831240Y-109499996D01*
X130925789Y-109349522D01*
X130985368Y-109179255D01*
X130985369Y-109179249D01*
X131005565Y-109000003D01*
X131005565Y-108999996D01*
X130985369Y-108820750D01*
X130985368Y-108820745D01*
X130984331Y-108817781D01*
X130925789Y-108650478D01*
X130925188Y-108649522D01*
X130886582Y-108588080D01*
X130829816Y-108497738D01*
X130702262Y-108370184D01*
X130651145Y-108338065D01*
X130549523Y-108274211D01*
X130379254Y-108214631D01*
X130379249Y-108214630D01*
X130200004Y-108194435D01*
X130199996Y-108194435D01*
X130020750Y-108214630D01*
X130020745Y-108214631D01*
X129850476Y-108274211D01*
X129697737Y-108370184D01*
X129570184Y-108497737D01*
X129474211Y-108650476D01*
X129414631Y-108820745D01*
X129414630Y-108820750D01*
X129394435Y-108999996D01*
X126350500Y-108999996D01*
X126350500Y-107482496D01*
X127106935Y-107482496D01*
X127106935Y-107482503D01*
X127127130Y-107661749D01*
X127127131Y-107661754D01*
X127186711Y-107832023D01*
X127221987Y-107888164D01*
X127282684Y-107984762D01*
X127410238Y-108112316D01*
X127500580Y-108169082D01*
X127540929Y-108194435D01*
X127562978Y-108208289D01*
X127675714Y-108247737D01*
X127733245Y-108267868D01*
X127733250Y-108267869D01*
X127912496Y-108288065D01*
X127912500Y-108288065D01*
X127912504Y-108288065D01*
X128091749Y-108267869D01*
X128091752Y-108267868D01*
X128091755Y-108267868D01*
X128262022Y-108208289D01*
X128414762Y-108112316D01*
X128542316Y-107984762D01*
X128638289Y-107832022D01*
X128697868Y-107661755D01*
X128707732Y-107574211D01*
X128718065Y-107482503D01*
X128718065Y-107482496D01*
X128697869Y-107303250D01*
X128697868Y-107303245D01*
X128668022Y-107217950D01*
X128638289Y-107132978D01*
X128542316Y-106980238D01*
X128414762Y-106852684D01*
X128399931Y-106843365D01*
X128262023Y-106756711D01*
X128091754Y-106697131D01*
X128091749Y-106697130D01*
X127912504Y-106676935D01*
X127912496Y-106676935D01*
X127733250Y-106697130D01*
X127733245Y-106697131D01*
X127562976Y-106756711D01*
X127410237Y-106852684D01*
X127282684Y-106980237D01*
X127186711Y-107132976D01*
X127127131Y-107303245D01*
X127127130Y-107303250D01*
X127106935Y-107482496D01*
X126350500Y-107482496D01*
X126350500Y-105682000D01*
X126370185Y-105614961D01*
X126422989Y-105569206D01*
X126474500Y-105558000D01*
X127955831Y-105558000D01*
X127955847Y-105558001D01*
X127963443Y-105558001D01*
X128121554Y-105558001D01*
X128121557Y-105558001D01*
X128274285Y-105517077D01*
X128324404Y-105488139D01*
X128411216Y-105438020D01*
X128523020Y-105326216D01*
X128523020Y-105326214D01*
X128533228Y-105316007D01*
X128533230Y-105316004D01*
X128618535Y-105230698D01*
X128679856Y-105197215D01*
X128692311Y-105195163D01*
X128779255Y-105185368D01*
X128949522Y-105125789D01*
X129102262Y-105029816D01*
X129229816Y-104902262D01*
X129325789Y-104749522D01*
X129385368Y-104579255D01*
X129387177Y-104563203D01*
X129405565Y-104400003D01*
X129405565Y-104399996D01*
X129385369Y-104220750D01*
X129385368Y-104220745D01*
X129364922Y-104162315D01*
X129325789Y-104050478D01*
X129229816Y-103897738D01*
X129102262Y-103770184D01*
X129096232Y-103766395D01*
X128949523Y-103674211D01*
X128779254Y-103614631D01*
X128779249Y-103614630D01*
X128600004Y-103594435D01*
X128599996Y-103594435D01*
X128420750Y-103614630D01*
X128420745Y-103614631D01*
X128250476Y-103674211D01*
X128097737Y-103770184D01*
X127970184Y-103897737D01*
X127874210Y-104050478D01*
X127814630Y-104220750D01*
X127811686Y-104246884D01*
X127784619Y-104311298D01*
X127727024Y-104350853D01*
X127688466Y-104357000D01*
X126250098Y-104357000D01*
X126183059Y-104337315D01*
X126162416Y-104320680D01*
X126114397Y-104272660D01*
X126114374Y-104272639D01*
X125237590Y-103395855D01*
X125237588Y-103395852D01*
X125118717Y-103276981D01*
X125118709Y-103276975D01*
X124993217Y-103204523D01*
X124993214Y-103204522D01*
X124985375Y-103199996D01*
X131294435Y-103199996D01*
X131294435Y-103200003D01*
X131314630Y-103379249D01*
X131314631Y-103379254D01*
X131374211Y-103549523D01*
X131467092Y-103697341D01*
X131470184Y-103702262D01*
X131597738Y-103829816D01*
X131637809Y-103854994D01*
X131705833Y-103897737D01*
X131750478Y-103925789D01*
X131920745Y-103985368D01*
X131920750Y-103985369D01*
X132099996Y-104005565D01*
X132100000Y-104005565D01*
X132100004Y-104005565D01*
X132279249Y-103985369D01*
X132279252Y-103985368D01*
X132279255Y-103985368D01*
X132449522Y-103925789D01*
X132602262Y-103829816D01*
X132729816Y-103702262D01*
X132825789Y-103549522D01*
X132885368Y-103379255D01*
X132895799Y-103286680D01*
X132905565Y-103200003D01*
X132905565Y-103199996D01*
X132885369Y-103020750D01*
X132885368Y-103020745D01*
X132879421Y-103003750D01*
X132825789Y-102850478D01*
X132825188Y-102849522D01*
X132752806Y-102734327D01*
X132729816Y-102697738D01*
X132602262Y-102570184D01*
X132570897Y-102550476D01*
X132449523Y-102474211D01*
X132279254Y-102414631D01*
X132279249Y-102414630D01*
X132100004Y-102394435D01*
X132099996Y-102394435D01*
X131920750Y-102414630D01*
X131920745Y-102414631D01*
X131750476Y-102474211D01*
X131597737Y-102570184D01*
X131470184Y-102697737D01*
X131374211Y-102850476D01*
X131314631Y-103020745D01*
X131314630Y-103020750D01*
X131294435Y-103199996D01*
X124985375Y-103199996D01*
X124981785Y-103197923D01*
X124829057Y-103156999D01*
X124670943Y-103156999D01*
X124663347Y-103156999D01*
X124663331Y-103157000D01*
X118457597Y-103157000D01*
X118390558Y-103137315D01*
X118369916Y-103120681D01*
X118130700Y-102881465D01*
X118097215Y-102820142D01*
X118095163Y-102807686D01*
X118085368Y-102720745D01*
X118025789Y-102550478D01*
X117929816Y-102397738D01*
X117802262Y-102270184D01*
X117784896Y-102259272D01*
X117649523Y-102174211D01*
X117479254Y-102114631D01*
X117479249Y-102114630D01*
X117300004Y-102094435D01*
X117299996Y-102094435D01*
X117120750Y-102114630D01*
X117120745Y-102114631D01*
X116950476Y-102174211D01*
X116797737Y-102270184D01*
X116670184Y-102397737D01*
X116574211Y-102550476D01*
X116514631Y-102720745D01*
X116514630Y-102720750D01*
X116494435Y-102899996D01*
X114600500Y-102899996D01*
X114600500Y-101999996D01*
X126694435Y-101999996D01*
X126694435Y-102000003D01*
X126714630Y-102179249D01*
X126714631Y-102179254D01*
X126774211Y-102349523D01*
X126837646Y-102450478D01*
X126870184Y-102502262D01*
X126997738Y-102629816D01*
X127074655Y-102678146D01*
X127142450Y-102720745D01*
X127150478Y-102725789D01*
X127211470Y-102747131D01*
X127320745Y-102785368D01*
X127320750Y-102785369D01*
X127499996Y-102805565D01*
X127500000Y-102805565D01*
X127500004Y-102805565D01*
X127679249Y-102785369D01*
X127679252Y-102785368D01*
X127679255Y-102785368D01*
X127849522Y-102725789D01*
X128002262Y-102629816D01*
X128129816Y-102502262D01*
X128225789Y-102349522D01*
X128285368Y-102179255D01*
X128285369Y-102179249D01*
X128305565Y-102000003D01*
X128305565Y-101999996D01*
X128285369Y-101820750D01*
X128285368Y-101820745D01*
X128266866Y-101767869D01*
X128225789Y-101650478D01*
X128129816Y-101497738D01*
X128002262Y-101370184D01*
X127849523Y-101274211D01*
X127679254Y-101214631D01*
X127679249Y-101214630D01*
X127500004Y-101194435D01*
X127499996Y-101194435D01*
X127320750Y-101214630D01*
X127320745Y-101214631D01*
X127150476Y-101274211D01*
X126997737Y-101370184D01*
X126870184Y-101497737D01*
X126774211Y-101650476D01*
X126714631Y-101820745D01*
X126714630Y-101820750D01*
X126694435Y-101999996D01*
X114600500Y-101999996D01*
X114600500Y-101820943D01*
X114600058Y-101819295D01*
X114576610Y-101731784D01*
X114559577Y-101668216D01*
X114549335Y-101650476D01*
X114480524Y-101531290D01*
X114480521Y-101531286D01*
X114480520Y-101531284D01*
X114368716Y-101419480D01*
X114368715Y-101419479D01*
X114364385Y-101415149D01*
X114364374Y-101415139D01*
X114087590Y-101138355D01*
X114087588Y-101138352D01*
X113968717Y-101019481D01*
X113968709Y-101019475D01*
X113866936Y-100960717D01*
X113866934Y-100960716D01*
X113831790Y-100940425D01*
X113831789Y-100940424D01*
X113679054Y-100899498D01*
X113670997Y-100898438D01*
X113671287Y-100896232D01*
X113615372Y-100879814D01*
X113605097Y-100872445D01*
X113602262Y-100870184D01*
X113449521Y-100774210D01*
X113356160Y-100741542D01*
X113299383Y-100700820D01*
X113273636Y-100635867D01*
X113287092Y-100567306D01*
X113335479Y-100516903D01*
X113397114Y-100500500D01*
X124145805Y-100500500D01*
X124212844Y-100520185D01*
X124258599Y-100572989D01*
X124268543Y-100642147D01*
X124262846Y-100665455D01*
X124214633Y-100803237D01*
X124214630Y-100803250D01*
X124194435Y-100982496D01*
X124194435Y-100982503D01*
X124214630Y-101161749D01*
X124214631Y-101161754D01*
X124274211Y-101332023D01*
X124348041Y-101449522D01*
X124370184Y-101484762D01*
X124497738Y-101612316D01*
X124586691Y-101668209D01*
X124628429Y-101694435D01*
X124650478Y-101708289D01*
X124711996Y-101729815D01*
X124820745Y-101767868D01*
X124820750Y-101767869D01*
X124999996Y-101788065D01*
X125000000Y-101788065D01*
X125000004Y-101788065D01*
X125179249Y-101767869D01*
X125179252Y-101767868D01*
X125179255Y-101767868D01*
X125349522Y-101708289D01*
X125502262Y-101612316D01*
X125629816Y-101484762D01*
X125725789Y-101332022D01*
X125785368Y-101161755D01*
X125788801Y-101131286D01*
X125805565Y-100982503D01*
X125805565Y-100982496D01*
X125785369Y-100803250D01*
X125785366Y-100803237D01*
X125737154Y-100665455D01*
X125733592Y-100595676D01*
X125768320Y-100535049D01*
X125830314Y-100502821D01*
X125854195Y-100500500D01*
X148452886Y-100500500D01*
X148519925Y-100520185D01*
X148565680Y-100572989D01*
X148575624Y-100642147D01*
X148546599Y-100705703D01*
X148493840Y-100741542D01*
X148400478Y-100774210D01*
X148247737Y-100870184D01*
X148120184Y-100997737D01*
X148024211Y-101150476D01*
X147964631Y-101320745D01*
X147964630Y-101320750D01*
X147944435Y-101499996D01*
X147944435Y-101500003D01*
X147964630Y-101679249D01*
X147964631Y-101679254D01*
X148024211Y-101849523D01*
X148082616Y-101942473D01*
X148120184Y-102002262D01*
X148247738Y-102129816D01*
X148271913Y-102145006D01*
X148318204Y-102197341D01*
X148328852Y-102266395D01*
X148300477Y-102330243D01*
X148271913Y-102354994D01*
X148247737Y-102370184D01*
X148120184Y-102497737D01*
X148024211Y-102650476D01*
X147964631Y-102820745D01*
X147964630Y-102820750D01*
X147944435Y-102999996D01*
X147944435Y-103000003D01*
X147964630Y-103179249D01*
X147964631Y-103179254D01*
X148024211Y-103349523D01*
X148061054Y-103408158D01*
X148120184Y-103502262D01*
X148247738Y-103629816D01*
X148271913Y-103645006D01*
X148318204Y-103697341D01*
X148328852Y-103766395D01*
X148300477Y-103830243D01*
X148271913Y-103854994D01*
X148247737Y-103870184D01*
X148120184Y-103997737D01*
X148024211Y-104150476D01*
X147964631Y-104320745D01*
X147964630Y-104320750D01*
X147944435Y-104499996D01*
X147944435Y-104500003D01*
X147964630Y-104679249D01*
X147964631Y-104679254D01*
X148024211Y-104849523D01*
X148057615Y-104902684D01*
X148120184Y-105002262D01*
X148247738Y-105129816D01*
X148271913Y-105145006D01*
X148318204Y-105197341D01*
X148328852Y-105266395D01*
X148300477Y-105330243D01*
X148271913Y-105354994D01*
X148247737Y-105370184D01*
X148120184Y-105497737D01*
X148024211Y-105650476D01*
X147964631Y-105820745D01*
X147964630Y-105820750D01*
X147944435Y-105999996D01*
X147944435Y-106000003D01*
X147964630Y-106179249D01*
X147964631Y-106179254D01*
X148024211Y-106349523D01*
X148062375Y-106410260D01*
X148120184Y-106502262D01*
X148247738Y-106629816D01*
X148271913Y-106645006D01*
X148318204Y-106697341D01*
X148328852Y-106766395D01*
X148300477Y-106830243D01*
X148271913Y-106854994D01*
X148247737Y-106870184D01*
X148120184Y-106997737D01*
X148024211Y-107150476D01*
X147964631Y-107320745D01*
X147964630Y-107320750D01*
X147944435Y-107499996D01*
X147944435Y-107500003D01*
X147964630Y-107679249D01*
X147964631Y-107679254D01*
X148024211Y-107849523D01*
X148087646Y-107950478D01*
X148120184Y-108002262D01*
X148247738Y-108129816D01*
X148250872Y-108131785D01*
X148271913Y-108145006D01*
X148318204Y-108197341D01*
X148328852Y-108266395D01*
X148300477Y-108330243D01*
X148271913Y-108354994D01*
X148247737Y-108370184D01*
X148120184Y-108497737D01*
X148024211Y-108650476D01*
X147964631Y-108820745D01*
X147964630Y-108820750D01*
X147944435Y-108999996D01*
X147944435Y-109000003D01*
X147964630Y-109179249D01*
X147964631Y-109179254D01*
X148024211Y-109349523D01*
X148065122Y-109414632D01*
X148120184Y-109502262D01*
X148247738Y-109629816D01*
X148254413Y-109634010D01*
X148271913Y-109645006D01*
X148318204Y-109697341D01*
X148328852Y-109766395D01*
X148300477Y-109830243D01*
X148271913Y-109854994D01*
X148247737Y-109870184D01*
X148120184Y-109997737D01*
X148024211Y-110150476D01*
X147964631Y-110320745D01*
X147964630Y-110320750D01*
X147944435Y-110499996D01*
X147944435Y-110500003D01*
X147964630Y-110679249D01*
X147964631Y-110679254D01*
X148024211Y-110849523D01*
X148081222Y-110940255D01*
X148120184Y-111002262D01*
X148247738Y-111129816D01*
X148400478Y-111225789D01*
X148490906Y-111257431D01*
X148570745Y-111285368D01*
X148570749Y-111285369D01*
X148639883Y-111293158D01*
X148704297Y-111320224D01*
X148743852Y-111377818D01*
X148750000Y-111416378D01*
X148750000Y-113583621D01*
X148730315Y-113650660D01*
X148677511Y-113696415D01*
X148639884Y-113706841D01*
X148570749Y-113714630D01*
X148570745Y-113714631D01*
X148400476Y-113774211D01*
X148247737Y-113870184D01*
X148120184Y-113997737D01*
X148024211Y-114150476D01*
X147964631Y-114320745D01*
X147964630Y-114320750D01*
X147944435Y-114499996D01*
X147944435Y-114500003D01*
X147964630Y-114679249D01*
X147964631Y-114679254D01*
X148024211Y-114849523D01*
X148090982Y-114955788D01*
X148120184Y-115002262D01*
X148247738Y-115129816D01*
X148271913Y-115145006D01*
X148318204Y-115197341D01*
X148328852Y-115266395D01*
X148300477Y-115330243D01*
X148271913Y-115354994D01*
X148247737Y-115370184D01*
X148120184Y-115497737D01*
X148024211Y-115650476D01*
X147964631Y-115820745D01*
X147964630Y-115820750D01*
X147944435Y-115999996D01*
X147944435Y-116000003D01*
X147964630Y-116179249D01*
X147964631Y-116179254D01*
X148024211Y-116349523D01*
X148120184Y-116502262D01*
X148247738Y-116629816D01*
X148271913Y-116645006D01*
X148318204Y-116697341D01*
X148328852Y-116766395D01*
X148300477Y-116830243D01*
X148271913Y-116854994D01*
X148247737Y-116870184D01*
X148120184Y-116997737D01*
X148024211Y-117150476D01*
X147964631Y-117320745D01*
X147964630Y-117320750D01*
X147944435Y-117499996D01*
X147944435Y-117500003D01*
X147964630Y-117679249D01*
X147964631Y-117679254D01*
X148024211Y-117849523D01*
X148085924Y-117947738D01*
X148120184Y-118002262D01*
X148247738Y-118129816D01*
X148271913Y-118145006D01*
X148318204Y-118197341D01*
X148328852Y-118266395D01*
X148300477Y-118330243D01*
X148271913Y-118354994D01*
X148247737Y-118370184D01*
X148120184Y-118497737D01*
X148024211Y-118650476D01*
X147964631Y-118820745D01*
X147964630Y-118820750D01*
X147944435Y-118999996D01*
X147944435Y-119000003D01*
X147964630Y-119179249D01*
X147964631Y-119179254D01*
X148024211Y-119349523D01*
X148071769Y-119425210D01*
X148120184Y-119502262D01*
X148247738Y-119629816D01*
X148271913Y-119645006D01*
X148318204Y-119697341D01*
X148328852Y-119766395D01*
X148300477Y-119830243D01*
X148271913Y-119854994D01*
X148247737Y-119870184D01*
X148120184Y-119997737D01*
X148024211Y-120150476D01*
X147964631Y-120320745D01*
X147964630Y-120320750D01*
X147944435Y-120499996D01*
X147944435Y-120500003D01*
X147964630Y-120679249D01*
X147964631Y-120679254D01*
X148024211Y-120849523D01*
X148065122Y-120914632D01*
X148120184Y-121002262D01*
X148247738Y-121129816D01*
X148271913Y-121145006D01*
X148318204Y-121197341D01*
X148328852Y-121266395D01*
X148300477Y-121330243D01*
X148271913Y-121354994D01*
X148247737Y-121370184D01*
X148120184Y-121497737D01*
X148024211Y-121650476D01*
X147964631Y-121820745D01*
X147964630Y-121820750D01*
X147944435Y-121999996D01*
X147944435Y-122000003D01*
X147964630Y-122179249D01*
X147964631Y-122179254D01*
X148024211Y-122349523D01*
X148117341Y-122497737D01*
X148120184Y-122502262D01*
X148247738Y-122629816D01*
X148271913Y-122645006D01*
X148318204Y-122697341D01*
X148328852Y-122766395D01*
X148300477Y-122830243D01*
X148271913Y-122854994D01*
X148247737Y-122870184D01*
X148120184Y-122997737D01*
X148024211Y-123150476D01*
X147964631Y-123320745D01*
X147964630Y-123320750D01*
X147944435Y-123499996D01*
X147944435Y-123500003D01*
X147964630Y-123679249D01*
X147964631Y-123679254D01*
X148024211Y-123849523D01*
X148108609Y-123983841D01*
X148120184Y-124002262D01*
X148247738Y-124129816D01*
X148336150Y-124185369D01*
X148400478Y-124225789D01*
X148493840Y-124258458D01*
X148550617Y-124299180D01*
X148576364Y-124364133D01*
X148562908Y-124432694D01*
X148514521Y-124483097D01*
X148452886Y-124499500D01*
X106710576Y-124499500D01*
X106643537Y-124479815D01*
X106597782Y-124427011D01*
X106587356Y-124361617D01*
X106605565Y-124200003D01*
X106605565Y-124199996D01*
X106585369Y-124020750D01*
X106585368Y-124020745D01*
X106525789Y-123850478D01*
X106525188Y-123849522D01*
X106462353Y-123749521D01*
X106429816Y-123697738D01*
X106302262Y-123570184D01*
X106149523Y-123474211D01*
X105979254Y-123414631D01*
X105979249Y-123414630D01*
X105800004Y-123394435D01*
X105799996Y-123394435D01*
X105620750Y-123414630D01*
X105620745Y-123414631D01*
X105450476Y-123474211D01*
X105297737Y-123570184D01*
X105170184Y-123697737D01*
X105074211Y-123850476D01*
X105014631Y-124020745D01*
X105014630Y-124020750D01*
X104994435Y-124199996D01*
X104994435Y-124200003D01*
X105012644Y-124361617D01*
X105000589Y-124430439D01*
X104953240Y-124481818D01*
X104889424Y-124499500D01*
X103003751Y-124499500D01*
X102996264Y-124499274D01*
X102706205Y-124481728D01*
X102691340Y-124479923D01*
X102409201Y-124428219D01*
X102394663Y-124424635D01*
X102120832Y-124339306D01*
X102106831Y-124333997D01*
X101845263Y-124216275D01*
X101832004Y-124209316D01*
X101700493Y-124129815D01*
X101586537Y-124060926D01*
X101574217Y-124052422D01*
X101545361Y-124029815D01*
X101348426Y-123875526D01*
X101337218Y-123865596D01*
X101134403Y-123662781D01*
X101124473Y-123651573D01*
X100947573Y-123425776D01*
X100939075Y-123413465D01*
X100790680Y-123167989D01*
X100783727Y-123154743D01*
X100666000Y-122893163D01*
X100660693Y-122879167D01*
X100653160Y-122854994D01*
X100575363Y-122605335D01*
X100571780Y-122590798D01*
X100569665Y-122579255D01*
X100520075Y-122308657D01*
X100518271Y-122293794D01*
X100517086Y-122274211D01*
X100500726Y-122003736D01*
X100500613Y-122000000D01*
X100894592Y-122000000D01*
X100914201Y-122286680D01*
X100914201Y-122286684D01*
X100914202Y-122286686D01*
X100927259Y-122349522D01*
X100972666Y-122568034D01*
X100972667Y-122568037D01*
X101068894Y-122838793D01*
X101068893Y-122838793D01*
X101201098Y-123093935D01*
X101366812Y-123328700D01*
X101386259Y-123349522D01*
X101562947Y-123538708D01*
X101785853Y-123720055D01*
X102000323Y-123850478D01*
X102031382Y-123869365D01*
X102218237Y-123950526D01*
X102294942Y-123983844D01*
X102571642Y-124061371D01*
X102821920Y-124095771D01*
X102856321Y-124100500D01*
X102856322Y-124100500D01*
X103143679Y-124100500D01*
X103174370Y-124096281D01*
X103428358Y-124061371D01*
X103705058Y-123983844D01*
X103818015Y-123934779D01*
X103968617Y-123869365D01*
X103968620Y-123869363D01*
X103968625Y-123869361D01*
X104214147Y-123720055D01*
X104437053Y-123538708D01*
X104633189Y-123328698D01*
X104798901Y-123093936D01*
X104931104Y-122838797D01*
X105027334Y-122568032D01*
X105085798Y-122286686D01*
X105105408Y-122000000D01*
X105085798Y-121713314D01*
X105027334Y-121431968D01*
X105015970Y-121399994D01*
X111282993Y-121399994D01*
X111282993Y-121400005D01*
X111302182Y-121631582D01*
X111359228Y-121856854D01*
X111452574Y-122069662D01*
X111579672Y-122264198D01*
X111579674Y-122264201D01*
X111737060Y-122435168D01*
X111737063Y-122435170D01*
X111737066Y-122435173D01*
X111920431Y-122577892D01*
X111920437Y-122577896D01*
X111920440Y-122577898D01*
X112124811Y-122688499D01*
X112344599Y-122763952D01*
X112573809Y-122802200D01*
X112806189Y-122802200D01*
X113035399Y-122763952D01*
X113255187Y-122688499D01*
X113459558Y-122577898D01*
X113472228Y-122568037D01*
X113556735Y-122502262D01*
X113642938Y-122435168D01*
X113800324Y-122264201D01*
X113927424Y-122069661D01*
X114020770Y-121856854D01*
X114077815Y-121631586D01*
X114094356Y-121431968D01*
X114097005Y-121400005D01*
X114097005Y-121399994D01*
X115092994Y-121399994D01*
X115092994Y-121400005D01*
X115112183Y-121631582D01*
X115169229Y-121856854D01*
X115262575Y-122069662D01*
X115389673Y-122264198D01*
X115389675Y-122264201D01*
X115547061Y-122435168D01*
X115547064Y-122435170D01*
X115547067Y-122435173D01*
X115730432Y-122577892D01*
X115730438Y-122577896D01*
X115730441Y-122577898D01*
X115934812Y-122688499D01*
X116154600Y-122763952D01*
X116383810Y-122802200D01*
X116616190Y-122802200D01*
X116845400Y-122763952D01*
X117065188Y-122688499D01*
X117269559Y-122577898D01*
X117282229Y-122568037D01*
X117366736Y-122502262D01*
X117452939Y-122435168D01*
X117610325Y-122264201D01*
X117737425Y-122069661D01*
X117830771Y-121856854D01*
X117887816Y-121631586D01*
X117904357Y-121431968D01*
X117907006Y-121400005D01*
X117907006Y-121399994D01*
X117887816Y-121168417D01*
X117887816Y-121168414D01*
X117830771Y-120943146D01*
X117737425Y-120730339D01*
X117610325Y-120535799D01*
X117452939Y-120364832D01*
X117452934Y-120364828D01*
X117452932Y-120364826D01*
X117269567Y-120222107D01*
X117269561Y-120222103D01*
X117065188Y-120111501D01*
X117065180Y-120111498D01*
X116845402Y-120036048D01*
X116616190Y-119997800D01*
X116383810Y-119997800D01*
X116154597Y-120036048D01*
X115934819Y-120111498D01*
X115934811Y-120111501D01*
X115730438Y-120222103D01*
X115730432Y-120222107D01*
X115547067Y-120364826D01*
X115547064Y-120364829D01*
X115389676Y-120535797D01*
X115389673Y-120535801D01*
X115262575Y-120730337D01*
X115169229Y-120943145D01*
X115112183Y-121168417D01*
X115092994Y-121399994D01*
X114097005Y-121399994D01*
X114077815Y-121168417D01*
X114077815Y-121168414D01*
X114020770Y-120943146D01*
X113927424Y-120730339D01*
X113800324Y-120535799D01*
X113642938Y-120364832D01*
X113642933Y-120364828D01*
X113642931Y-120364826D01*
X113459566Y-120222107D01*
X113459560Y-120222103D01*
X113255187Y-120111501D01*
X113255179Y-120111498D01*
X113035401Y-120036048D01*
X112806189Y-119997800D01*
X112573809Y-119997800D01*
X112344596Y-120036048D01*
X112124818Y-120111498D01*
X112124810Y-120111501D01*
X111920437Y-120222103D01*
X111920431Y-120222107D01*
X111737066Y-120364826D01*
X111737063Y-120364829D01*
X111579675Y-120535797D01*
X111579672Y-120535801D01*
X111452574Y-120730337D01*
X111359228Y-120943145D01*
X111302182Y-121168417D01*
X111282993Y-121399994D01*
X105015970Y-121399994D01*
X104931105Y-121161206D01*
X104931106Y-121161206D01*
X104798901Y-120906064D01*
X104633187Y-120671299D01*
X104554554Y-120587105D01*
X104437053Y-120461292D01*
X104214147Y-120279945D01*
X104214146Y-120279944D01*
X103968617Y-120130634D01*
X103705063Y-120016158D01*
X103705061Y-120016157D01*
X103705058Y-120016156D01*
X103575578Y-119979877D01*
X103428364Y-119938630D01*
X103428359Y-119938629D01*
X103428358Y-119938629D01*
X103286018Y-119919064D01*
X103143679Y-119899500D01*
X103143678Y-119899500D01*
X102856322Y-119899500D01*
X102856321Y-119899500D01*
X102571642Y-119938629D01*
X102571635Y-119938630D01*
X102363861Y-119996845D01*
X102294942Y-120016156D01*
X102294939Y-120016156D01*
X102294936Y-120016158D01*
X102294935Y-120016158D01*
X102031382Y-120130634D01*
X101785853Y-120279944D01*
X101562950Y-120461289D01*
X101366812Y-120671299D01*
X101201098Y-120906064D01*
X101068894Y-121161206D01*
X100972667Y-121431962D01*
X100972666Y-121431965D01*
X100934708Y-121614631D01*
X100916970Y-121699996D01*
X100914201Y-121713319D01*
X100894592Y-122000000D01*
X100500613Y-122000000D01*
X100500500Y-121996249D01*
X100500500Y-118449996D01*
X108644435Y-118449996D01*
X108644435Y-118450003D01*
X108664630Y-118629249D01*
X108664631Y-118629254D01*
X108724211Y-118799523D01*
X108803549Y-118925788D01*
X108820184Y-118952262D01*
X108947738Y-119079816D01*
X109100478Y-119175789D01*
X109270745Y-119235368D01*
X109270750Y-119235369D01*
X109449996Y-119255565D01*
X109450000Y-119255565D01*
X109450004Y-119255565D01*
X109629249Y-119235369D01*
X109629252Y-119235368D01*
X109629255Y-119235368D01*
X109799522Y-119175789D01*
X109952262Y-119079816D01*
X110079816Y-118952262D01*
X110175789Y-118799522D01*
X110235368Y-118629255D01*
X110244352Y-118549522D01*
X110255565Y-118450003D01*
X110255565Y-118449996D01*
X110235369Y-118270750D01*
X110235368Y-118270745D01*
X110217942Y-118220945D01*
X110175789Y-118100478D01*
X110079816Y-117947738D01*
X109952262Y-117820184D01*
X109944233Y-117815139D01*
X109799523Y-117724211D01*
X109629254Y-117664631D01*
X109629249Y-117664630D01*
X109450004Y-117644435D01*
X109449996Y-117644435D01*
X109270750Y-117664630D01*
X109270745Y-117664631D01*
X109100476Y-117724211D01*
X108947737Y-117820184D01*
X108820184Y-117947737D01*
X108724211Y-118100476D01*
X108664631Y-118270745D01*
X108664630Y-118270750D01*
X108644435Y-118449996D01*
X100500500Y-118449996D01*
X100500500Y-116918543D01*
X101324499Y-116918543D01*
X101362947Y-117111829D01*
X101362950Y-117111839D01*
X101438364Y-117293907D01*
X101438371Y-117293920D01*
X101547860Y-117457781D01*
X101547863Y-117457785D01*
X101687214Y-117597136D01*
X101687218Y-117597139D01*
X101851079Y-117706628D01*
X101851092Y-117706635D01*
X102033160Y-117782049D01*
X102033165Y-117782051D01*
X102033169Y-117782051D01*
X102033170Y-117782052D01*
X102226456Y-117820500D01*
X102226459Y-117820500D01*
X103223543Y-117820500D01*
X103353582Y-117794632D01*
X103416835Y-117782051D01*
X103598914Y-117706632D01*
X103762782Y-117597139D01*
X103902139Y-117457782D01*
X104011632Y-117293914D01*
X104087051Y-117111835D01*
X104115444Y-116969097D01*
X104125500Y-116918543D01*
X105374499Y-116918543D01*
X105412947Y-117111829D01*
X105412950Y-117111839D01*
X105488364Y-117293907D01*
X105488371Y-117293920D01*
X105597860Y-117457781D01*
X105597863Y-117457785D01*
X105737214Y-117597136D01*
X105737218Y-117597139D01*
X105901079Y-117706628D01*
X105901092Y-117706635D01*
X106083160Y-117782049D01*
X106083165Y-117782051D01*
X106083169Y-117782051D01*
X106083170Y-117782052D01*
X106276456Y-117820500D01*
X106276459Y-117820500D01*
X107573543Y-117820500D01*
X107703582Y-117794632D01*
X107766835Y-117782051D01*
X107948914Y-117706632D01*
X108112782Y-117597139D01*
X108252139Y-117457782D01*
X108361632Y-117293914D01*
X108437051Y-117111835D01*
X108446995Y-117061841D01*
X108479379Y-116999933D01*
X108540094Y-116965358D01*
X108609864Y-116969097D01*
X108622414Y-116974314D01*
X108625473Y-116975787D01*
X108625477Y-116975788D01*
X108625478Y-116975789D01*
X108688202Y-116997737D01*
X108795745Y-117035368D01*
X108795750Y-117035369D01*
X108974996Y-117055565D01*
X108975000Y-117055565D01*
X108975004Y-117055565D01*
X109154249Y-117035369D01*
X109154252Y-117035368D01*
X109154255Y-117035368D01*
X109324522Y-116975789D01*
X109477262Y-116879816D01*
X109604816Y-116752262D01*
X109700789Y-116599522D01*
X109760368Y-116429255D01*
X109780565Y-116250000D01*
X109772927Y-116182214D01*
X109760369Y-116070750D01*
X109760368Y-116070745D01*
X109712299Y-115933371D01*
X109700789Y-115900478D01*
X109690590Y-115884247D01*
X109661582Y-115838080D01*
X109604816Y-115747738D01*
X109477262Y-115620184D01*
X109471350Y-115616469D01*
X109324523Y-115524211D01*
X109154254Y-115464631D01*
X109154249Y-115464630D01*
X108975004Y-115444435D01*
X108974996Y-115444435D01*
X108795750Y-115464630D01*
X108795745Y-115464631D01*
X108625476Y-115524211D01*
X108472737Y-115620184D01*
X108345184Y-115747737D01*
X108249210Y-115900478D01*
X108235835Y-115938701D01*
X108195112Y-115995476D01*
X108130159Y-116021222D01*
X108061598Y-116007765D01*
X108049903Y-116000846D01*
X107948920Y-115933371D01*
X107948907Y-115933364D01*
X107766839Y-115857950D01*
X107766829Y-115857947D01*
X107573543Y-115819500D01*
X107573541Y-115819500D01*
X106891994Y-115819500D01*
X106824955Y-115799815D01*
X106779200Y-115747011D01*
X106769256Y-115677853D01*
X106784606Y-115633501D01*
X106824799Y-115563886D01*
X106855500Y-115449309D01*
X106855500Y-115330691D01*
X106824799Y-115216114D01*
X106765489Y-115113387D01*
X106681613Y-115029511D01*
X106578886Y-114970201D01*
X106464309Y-114939500D01*
X106345691Y-114939500D01*
X106231114Y-114970201D01*
X106231112Y-114970201D01*
X106231112Y-114970202D01*
X106128387Y-115029511D01*
X106128384Y-115029513D01*
X106044513Y-115113384D01*
X106044511Y-115113387D01*
X105985201Y-115216114D01*
X105954500Y-115330691D01*
X105954500Y-115449309D01*
X105985201Y-115563886D01*
X106044511Y-115666613D01*
X106044513Y-115666615D01*
X106059903Y-115682005D01*
X106093388Y-115743328D01*
X106088404Y-115813020D01*
X106046532Y-115868953D01*
X106019674Y-115884247D01*
X105901092Y-115933364D01*
X105901079Y-115933371D01*
X105737218Y-116042860D01*
X105737214Y-116042863D01*
X105597863Y-116182214D01*
X105597860Y-116182218D01*
X105488371Y-116346079D01*
X105488364Y-116346092D01*
X105412950Y-116528160D01*
X105412947Y-116528170D01*
X105374500Y-116721456D01*
X105374500Y-116721459D01*
X105374500Y-116918541D01*
X105374500Y-116918543D01*
X105374499Y-116918543D01*
X104125500Y-116918543D01*
X104125500Y-116721456D01*
X104087052Y-116528170D01*
X104087051Y-116528169D01*
X104087051Y-116528165D01*
X104076322Y-116502262D01*
X104011635Y-116346092D01*
X104011628Y-116346079D01*
X103902139Y-116182218D01*
X103902136Y-116182214D01*
X103762785Y-116042863D01*
X103762781Y-116042860D01*
X103598920Y-115933371D01*
X103598907Y-115933364D01*
X103416839Y-115857950D01*
X103416829Y-115857947D01*
X103223543Y-115819500D01*
X103223541Y-115819500D01*
X102226459Y-115819500D01*
X102226457Y-115819500D01*
X102033170Y-115857947D01*
X102033160Y-115857950D01*
X101851092Y-115933364D01*
X101851079Y-115933371D01*
X101687218Y-116042860D01*
X101687214Y-116042863D01*
X101547863Y-116182214D01*
X101547860Y-116182218D01*
X101438371Y-116346079D01*
X101438364Y-116346092D01*
X101362950Y-116528160D01*
X101362947Y-116528170D01*
X101324500Y-116721456D01*
X101324500Y-116721459D01*
X101324500Y-116918541D01*
X101324500Y-116918543D01*
X101324499Y-116918543D01*
X100500500Y-116918543D01*
X100500500Y-111599993D01*
X108194435Y-111599993D01*
X108194435Y-111600000D01*
X108214630Y-111779246D01*
X108214633Y-111779259D01*
X108276510Y-111956091D01*
X108274366Y-111956840D01*
X108283960Y-112015158D01*
X108275612Y-112043592D01*
X108276510Y-112043906D01*
X108214633Y-112220737D01*
X108214630Y-112220750D01*
X108194435Y-112399996D01*
X108194435Y-112400003D01*
X108214630Y-112579249D01*
X108214631Y-112579254D01*
X108274211Y-112749523D01*
X108337045Y-112849522D01*
X108370184Y-112902262D01*
X108497738Y-113029816D01*
X108505656Y-113034791D01*
X108632721Y-113114632D01*
X108650478Y-113125789D01*
X108661984Y-113129815D01*
X108820745Y-113185368D01*
X108820750Y-113185369D01*
X108999996Y-113205565D01*
X109000000Y-113205565D01*
X109000004Y-113205565D01*
X109179249Y-113185369D01*
X109179252Y-113185368D01*
X109179255Y-113185368D01*
X109349522Y-113125789D01*
X109502262Y-113029816D01*
X109629816Y-112902262D01*
X109725789Y-112749522D01*
X109785368Y-112579255D01*
X109785425Y-112578750D01*
X109805565Y-112400003D01*
X109805565Y-112399996D01*
X109785369Y-112220750D01*
X109785368Y-112220745D01*
X109723489Y-112043905D01*
X109725635Y-112043153D01*
X109716037Y-111984854D01*
X109724391Y-111956407D01*
X109723489Y-111956092D01*
X109785366Y-111779259D01*
X109785369Y-111779246D01*
X109805565Y-111600000D01*
X109805565Y-111599993D01*
X109785369Y-111420747D01*
X109785368Y-111420742D01*
X109737999Y-111285369D01*
X109725789Y-111250475D01*
X109629816Y-111097735D01*
X109502262Y-110970181D01*
X109349523Y-110874208D01*
X109179254Y-110814628D01*
X109179249Y-110814627D01*
X109000004Y-110794432D01*
X108999996Y-110794432D01*
X108820750Y-110814627D01*
X108820745Y-110814628D01*
X108650476Y-110874208D01*
X108497737Y-110970181D01*
X108370184Y-111097734D01*
X108274211Y-111250473D01*
X108214631Y-111420742D01*
X108214630Y-111420747D01*
X108194435Y-111599993D01*
X100500500Y-111599993D01*
X100500500Y-108278543D01*
X101324499Y-108278543D01*
X101362947Y-108471829D01*
X101362950Y-108471839D01*
X101438364Y-108653907D01*
X101438371Y-108653920D01*
X101547860Y-108817781D01*
X101547863Y-108817785D01*
X101687214Y-108957136D01*
X101687218Y-108957139D01*
X101851079Y-109066628D01*
X101851092Y-109066635D01*
X102033160Y-109142049D01*
X102033165Y-109142051D01*
X102033169Y-109142051D01*
X102033170Y-109142052D01*
X102226456Y-109180500D01*
X102226459Y-109180500D01*
X103223543Y-109180500D01*
X103374480Y-109150476D01*
X103416835Y-109142051D01*
X103598914Y-109066632D01*
X103762782Y-108957139D01*
X103902139Y-108817782D01*
X104011632Y-108653914D01*
X104087051Y-108471835D01*
X104107271Y-108370184D01*
X104125500Y-108278543D01*
X105374499Y-108278543D01*
X105412947Y-108471829D01*
X105412950Y-108471839D01*
X105488364Y-108653907D01*
X105488371Y-108653920D01*
X105597860Y-108817781D01*
X105597863Y-108817785D01*
X105737214Y-108957136D01*
X105737218Y-108957139D01*
X105901079Y-109066628D01*
X105901083Y-109066630D01*
X105901086Y-109066632D01*
X106019677Y-109115753D01*
X106074078Y-109159592D01*
X106096143Y-109225886D01*
X106078864Y-109293585D01*
X106059905Y-109317992D01*
X106044514Y-109333383D01*
X106044511Y-109333387D01*
X106017706Y-109379815D01*
X105985201Y-109436114D01*
X105954500Y-109550691D01*
X105954500Y-109669309D01*
X105985201Y-109783886D01*
X106044511Y-109886613D01*
X106128387Y-109970489D01*
X106231114Y-110029799D01*
X106345691Y-110060500D01*
X106345694Y-110060500D01*
X106464306Y-110060500D01*
X106464309Y-110060500D01*
X106578886Y-110029799D01*
X106681613Y-109970489D01*
X106765489Y-109886613D01*
X106824799Y-109783886D01*
X106855500Y-109669309D01*
X106855500Y-109550691D01*
X106824799Y-109436114D01*
X106784606Y-109366499D01*
X106768134Y-109298601D01*
X106790986Y-109232574D01*
X106845907Y-109189383D01*
X106891994Y-109180500D01*
X107573543Y-109180500D01*
X107724480Y-109150476D01*
X107766835Y-109142051D01*
X107948914Y-109066632D01*
X108049904Y-108999152D01*
X108116580Y-108978275D01*
X108183960Y-108996759D01*
X108230651Y-109048738D01*
X108235835Y-109061299D01*
X108249209Y-109099520D01*
X108299437Y-109179456D01*
X108345184Y-109252262D01*
X108472738Y-109379816D01*
X108562332Y-109436112D01*
X108622966Y-109474211D01*
X108625478Y-109475789D01*
X108795745Y-109535368D01*
X108795750Y-109535369D01*
X108974996Y-109555565D01*
X108975000Y-109555565D01*
X108975004Y-109555565D01*
X109154249Y-109535369D01*
X109154252Y-109535368D01*
X109154255Y-109535368D01*
X109324522Y-109475789D01*
X109477262Y-109379816D01*
X109604816Y-109252262D01*
X109700789Y-109099522D01*
X109760368Y-108929255D01*
X109760369Y-108929249D01*
X109780565Y-108750003D01*
X109780565Y-108749996D01*
X109760369Y-108570750D01*
X109760368Y-108570745D01*
X109705557Y-108414104D01*
X109700789Y-108400478D01*
X109672209Y-108354994D01*
X109617465Y-108267869D01*
X109604816Y-108247738D01*
X109477262Y-108120184D01*
X109415627Y-108081456D01*
X109324523Y-108024211D01*
X109154254Y-107964631D01*
X109154249Y-107964630D01*
X108975004Y-107944435D01*
X108974996Y-107944435D01*
X108795750Y-107964630D01*
X108795737Y-107964633D01*
X108625476Y-108024210D01*
X108622409Y-108025688D01*
X108620229Y-108026046D01*
X108618906Y-108026510D01*
X108618824Y-108026278D01*
X108553468Y-108037038D01*
X108489334Y-108009313D01*
X108450371Y-107951316D01*
X108446998Y-107938172D01*
X108437051Y-107888165D01*
X108421045Y-107849522D01*
X108361635Y-107706092D01*
X108361628Y-107706079D01*
X108252139Y-107542218D01*
X108252136Y-107542214D01*
X108112785Y-107402863D01*
X108112781Y-107402860D01*
X107948920Y-107293371D01*
X107948907Y-107293364D01*
X107766839Y-107217950D01*
X107766829Y-107217947D01*
X107573543Y-107179500D01*
X107573541Y-107179500D01*
X106276459Y-107179500D01*
X106276457Y-107179500D01*
X106083170Y-107217947D01*
X106083160Y-107217950D01*
X105901092Y-107293364D01*
X105901079Y-107293371D01*
X105737218Y-107402860D01*
X105737214Y-107402863D01*
X105597863Y-107542214D01*
X105597860Y-107542218D01*
X105488371Y-107706079D01*
X105488364Y-107706092D01*
X105412950Y-107888160D01*
X105412947Y-107888170D01*
X105374500Y-108081456D01*
X105374500Y-108081459D01*
X105374500Y-108278541D01*
X105374500Y-108278543D01*
X105374499Y-108278543D01*
X104125500Y-108278543D01*
X104125500Y-108081456D01*
X104087052Y-107888170D01*
X104087051Y-107888169D01*
X104087051Y-107888165D01*
X104071045Y-107849522D01*
X104011635Y-107706092D01*
X104011628Y-107706079D01*
X103902139Y-107542218D01*
X103902136Y-107542214D01*
X103762785Y-107402863D01*
X103762781Y-107402860D01*
X103598920Y-107293371D01*
X103598907Y-107293364D01*
X103416839Y-107217950D01*
X103416829Y-107217947D01*
X103223543Y-107179500D01*
X103223541Y-107179500D01*
X102226459Y-107179500D01*
X102226457Y-107179500D01*
X102033170Y-107217947D01*
X102033160Y-107217950D01*
X101851092Y-107293364D01*
X101851079Y-107293371D01*
X101687218Y-107402860D01*
X101687214Y-107402863D01*
X101547863Y-107542214D01*
X101547860Y-107542218D01*
X101438371Y-107706079D01*
X101438364Y-107706092D01*
X101362950Y-107888160D01*
X101362947Y-107888170D01*
X101324500Y-108081456D01*
X101324500Y-108081459D01*
X101324500Y-108278541D01*
X101324500Y-108278543D01*
X101324499Y-108278543D01*
X100500500Y-108278543D01*
X100500500Y-103003750D01*
X100500613Y-103000000D01*
X100894592Y-103000000D01*
X100914201Y-103286680D01*
X100972666Y-103568034D01*
X100972667Y-103568037D01*
X101068894Y-103838793D01*
X101068893Y-103838793D01*
X101201098Y-104093935D01*
X101366812Y-104328700D01*
X101433405Y-104400003D01*
X101562947Y-104538708D01*
X101785853Y-104720055D01*
X101998751Y-104849522D01*
X102031382Y-104869365D01*
X102218237Y-104950526D01*
X102294942Y-104983844D01*
X102571642Y-105061371D01*
X102821920Y-105095771D01*
X102856321Y-105100500D01*
X102856322Y-105100500D01*
X103143679Y-105100500D01*
X103174370Y-105096281D01*
X103428358Y-105061371D01*
X103705058Y-104983844D01*
X103891908Y-104902684D01*
X103898096Y-104899996D01*
X105394435Y-104899996D01*
X105394435Y-104900003D01*
X105414630Y-105079249D01*
X105414631Y-105079254D01*
X105474211Y-105249523D01*
X105550028Y-105370184D01*
X105570184Y-105402262D01*
X105697738Y-105529816D01*
X105705610Y-105534762D01*
X105816975Y-105604738D01*
X105850478Y-105625789D01*
X106011120Y-105682000D01*
X106020745Y-105685368D01*
X106020750Y-105685369D01*
X106199996Y-105705565D01*
X106200000Y-105705565D01*
X106200004Y-105705565D01*
X106379249Y-105685369D01*
X106379252Y-105685368D01*
X106379255Y-105685368D01*
X106549522Y-105625789D01*
X106702262Y-105529816D01*
X106829816Y-105402262D01*
X106925789Y-105249522D01*
X106985368Y-105079255D01*
X106987383Y-105061370D01*
X107005565Y-104900003D01*
X107005565Y-104899996D01*
X106985369Y-104720750D01*
X106985368Y-104720745D01*
X106956790Y-104639074D01*
X106925789Y-104550478D01*
X106918393Y-104538708D01*
X106850395Y-104430489D01*
X106829816Y-104397738D01*
X106702262Y-104270184D01*
X106683331Y-104258289D01*
X106549523Y-104174211D01*
X106379254Y-104114631D01*
X106379249Y-104114630D01*
X106200004Y-104094435D01*
X106199996Y-104094435D01*
X106020750Y-104114630D01*
X106020745Y-104114631D01*
X105850476Y-104174211D01*
X105697737Y-104270184D01*
X105570184Y-104397737D01*
X105474211Y-104550476D01*
X105414631Y-104720745D01*
X105414630Y-104720750D01*
X105394435Y-104899996D01*
X103898096Y-104899996D01*
X103968617Y-104869365D01*
X103968620Y-104869363D01*
X103968625Y-104869361D01*
X104214147Y-104720055D01*
X104437053Y-104538708D01*
X104633189Y-104328698D01*
X104798901Y-104093936D01*
X104931104Y-103838797D01*
X105027334Y-103568032D01*
X105085798Y-103286686D01*
X105105408Y-103000000D01*
X105085798Y-102713314D01*
X105027334Y-102431968D01*
X105021172Y-102414631D01*
X104931105Y-102161206D01*
X104931106Y-102161206D01*
X104798901Y-101906064D01*
X104633187Y-101671299D01*
X104542518Y-101574217D01*
X104437053Y-101461292D01*
X104214147Y-101279945D01*
X104214146Y-101279944D01*
X103968617Y-101130634D01*
X103705063Y-101016158D01*
X103705061Y-101016157D01*
X103705058Y-101016156D01*
X103575578Y-100979877D01*
X103428364Y-100938630D01*
X103428359Y-100938629D01*
X103428358Y-100938629D01*
X103236367Y-100912240D01*
X103143679Y-100899500D01*
X103143678Y-100899500D01*
X102856322Y-100899500D01*
X102856321Y-100899500D01*
X102571642Y-100938629D01*
X102571635Y-100938630D01*
X102363861Y-100996845D01*
X102294942Y-101016156D01*
X102294939Y-101016156D01*
X102294936Y-101016158D01*
X102294935Y-101016158D01*
X102031382Y-101130634D01*
X101785853Y-101279944D01*
X101562950Y-101461289D01*
X101366812Y-101671299D01*
X101201098Y-101906064D01*
X101068894Y-102161206D01*
X100972667Y-102431962D01*
X100972666Y-102431965D01*
X100914201Y-102713319D01*
X100894592Y-103000000D01*
X100500613Y-103000000D01*
X100500726Y-102996263D01*
X100510902Y-102828031D01*
X100518271Y-102706201D01*
X100520076Y-102691340D01*
X100527565Y-102650478D01*
X100571780Y-102409197D01*
X100575364Y-102394663D01*
X100582992Y-102370184D01*
X100660696Y-102120822D01*
X100665998Y-102106841D01*
X100783731Y-101845249D01*
X100790676Y-101832016D01*
X100939080Y-101586526D01*
X100947567Y-101574230D01*
X101124480Y-101348417D01*
X101134395Y-101337226D01*
X101337226Y-101134395D01*
X101348417Y-101124480D01*
X101574230Y-100947567D01*
X101586526Y-100939080D01*
X101832016Y-100790676D01*
X101845249Y-100783731D01*
X102106841Y-100665998D01*
X102120822Y-100660696D01*
X102394668Y-100575362D01*
X102409197Y-100571780D01*
X102691344Y-100520075D01*
X102706201Y-100518271D01*
X102996264Y-100500726D01*
X103003751Y-100500500D01*
X103065892Y-100500500D01*
X105406921Y-100500500D01*
X105473960Y-100520185D01*
G37*
%TD.AperFunction*%
%TD*%
M02*
