%TF.GenerationSoftware,KiCad,Pcbnew,8.0.5-dirty*%
%TF.CreationDate,2024-10-01T21:11:04+10:00*%
%TF.ProjectId,kestral,6b657374-7261-46c2-9e6b-696361645f70,rev?*%
%TF.SameCoordinates,Original*%
%TF.FileFunction,Drillmap*%
%TF.FilePolarity,Positive*%
%FSLAX45Y45*%
G04 Gerber Fmt 4.5, Leading zero omitted, Abs format (unit mm)*
G04 Created by KiCad (PCBNEW 8.0.5-dirty) date 2024-10-01 21:11:04*
%MOMM*%
%LPD*%
G01*
G04 APERTURE LIST*
%ADD10C,0.200000*%
%ADD11C,0.100000*%
G04 APERTURE END LIST*
D10*
X15500000Y-12200000D02*
G75*
G02*
X15200000Y-12500000I-300000J0D01*
G01*
X15200000Y-12500000D02*
X10300000Y-12500000D01*
X15200000Y-10000000D02*
X10300000Y-10000000D01*
X15500000Y-10300000D02*
X15500000Y-12200000D01*
X10000000Y-10300000D02*
X10000000Y-12200000D01*
X15200000Y-10000000D02*
G75*
G02*
X15500000Y-10300000I0J-300000D01*
G01*
X10300000Y-12500000D02*
G75*
G02*
X10000000Y-12200000I0J300000D01*
G01*
X15360000Y-12200000D02*
G75*
G02*
X15040000Y-12200000I-160000J0D01*
G01*
X15040000Y-12200000D02*
G75*
G02*
X15360000Y-12200000I160000J0D01*
G01*
X10460000Y-10300000D02*
G75*
G02*
X10140000Y-10300000I-160000J0D01*
G01*
X10140000Y-10300000D02*
G75*
G02*
X10460000Y-10300000I160000J0D01*
G01*
X10000000Y-10300000D02*
G75*
G02*
X10300000Y-10000000I300000J0D01*
G01*
X10460000Y-12200000D02*
G75*
G02*
X10140000Y-12200000I-160000J0D01*
G01*
X10140000Y-12200000D02*
G75*
G02*
X10460000Y-12200000I160000J0D01*
G01*
X15360000Y-10300000D02*
G75*
G02*
X15040000Y-10300000I-160000J0D01*
G01*
X15040000Y-10300000D02*
G75*
G02*
X15360000Y-10300000I160000J0D01*
G01*
D11*
X10608000Y-10928500D02*
X10673000Y-10993500D01*
X10673000Y-10928500D02*
X10608000Y-10993500D01*
X10608000Y-11506500D02*
X10673000Y-11571500D01*
X10673000Y-11506500D02*
X10608000Y-11571500D01*
D10*
X10250777Y-12821484D02*
X10250777Y-12621484D01*
X10250777Y-12621484D02*
X10298396Y-12621484D01*
X10298396Y-12621484D02*
X10326967Y-12631008D01*
X10326967Y-12631008D02*
X10346015Y-12650055D01*
X10346015Y-12650055D02*
X10355539Y-12669103D01*
X10355539Y-12669103D02*
X10365063Y-12707198D01*
X10365063Y-12707198D02*
X10365063Y-12735769D01*
X10365063Y-12735769D02*
X10355539Y-12773865D01*
X10355539Y-12773865D02*
X10346015Y-12792912D01*
X10346015Y-12792912D02*
X10326967Y-12811960D01*
X10326967Y-12811960D02*
X10298396Y-12821484D01*
X10298396Y-12821484D02*
X10250777Y-12821484D01*
X10450777Y-12821484D02*
X10450777Y-12688150D01*
X10450777Y-12726246D02*
X10460301Y-12707198D01*
X10460301Y-12707198D02*
X10469824Y-12697674D01*
X10469824Y-12697674D02*
X10488872Y-12688150D01*
X10488872Y-12688150D02*
X10507920Y-12688150D01*
X10574586Y-12821484D02*
X10574586Y-12688150D01*
X10574586Y-12621484D02*
X10565063Y-12631008D01*
X10565063Y-12631008D02*
X10574586Y-12640531D01*
X10574586Y-12640531D02*
X10584110Y-12631008D01*
X10584110Y-12631008D02*
X10574586Y-12621484D01*
X10574586Y-12621484D02*
X10574586Y-12640531D01*
X10698396Y-12821484D02*
X10679348Y-12811960D01*
X10679348Y-12811960D02*
X10669824Y-12792912D01*
X10669824Y-12792912D02*
X10669824Y-12621484D01*
X10803158Y-12821484D02*
X10784110Y-12811960D01*
X10784110Y-12811960D02*
X10774586Y-12792912D01*
X10774586Y-12792912D02*
X10774586Y-12621484D01*
X11031729Y-12821484D02*
X11031729Y-12621484D01*
X11031729Y-12621484D02*
X11098396Y-12764341D01*
X11098396Y-12764341D02*
X11165063Y-12621484D01*
X11165063Y-12621484D02*
X11165063Y-12821484D01*
X11346015Y-12821484D02*
X11346015Y-12716722D01*
X11346015Y-12716722D02*
X11336491Y-12697674D01*
X11336491Y-12697674D02*
X11317443Y-12688150D01*
X11317443Y-12688150D02*
X11279348Y-12688150D01*
X11279348Y-12688150D02*
X11260301Y-12697674D01*
X11346015Y-12811960D02*
X11326967Y-12821484D01*
X11326967Y-12821484D02*
X11279348Y-12821484D01*
X11279348Y-12821484D02*
X11260301Y-12811960D01*
X11260301Y-12811960D02*
X11250777Y-12792912D01*
X11250777Y-12792912D02*
X11250777Y-12773865D01*
X11250777Y-12773865D02*
X11260301Y-12754817D01*
X11260301Y-12754817D02*
X11279348Y-12745293D01*
X11279348Y-12745293D02*
X11326967Y-12745293D01*
X11326967Y-12745293D02*
X11346015Y-12735769D01*
X11441253Y-12688150D02*
X11441253Y-12888150D01*
X11441253Y-12697674D02*
X11460301Y-12688150D01*
X11460301Y-12688150D02*
X11498396Y-12688150D01*
X11498396Y-12688150D02*
X11517443Y-12697674D01*
X11517443Y-12697674D02*
X11526967Y-12707198D01*
X11526967Y-12707198D02*
X11536491Y-12726246D01*
X11536491Y-12726246D02*
X11536491Y-12783388D01*
X11536491Y-12783388D02*
X11526967Y-12802436D01*
X11526967Y-12802436D02*
X11517443Y-12811960D01*
X11517443Y-12811960D02*
X11498396Y-12821484D01*
X11498396Y-12821484D02*
X11460301Y-12821484D01*
X11460301Y-12821484D02*
X11441253Y-12811960D01*
X11622205Y-12802436D02*
X11631729Y-12811960D01*
X11631729Y-12811960D02*
X11622205Y-12821484D01*
X11622205Y-12821484D02*
X11612682Y-12811960D01*
X11612682Y-12811960D02*
X11622205Y-12802436D01*
X11622205Y-12802436D02*
X11622205Y-12821484D01*
X11622205Y-12697674D02*
X11631729Y-12707198D01*
X11631729Y-12707198D02*
X11622205Y-12716722D01*
X11622205Y-12716722D02*
X11612682Y-12707198D01*
X11612682Y-12707198D02*
X11622205Y-12697674D01*
X11622205Y-12697674D02*
X11622205Y-12716722D01*
D11*
X9925000Y-13117500D02*
X9990000Y-13182500D01*
X9990000Y-13117500D02*
X9925000Y-13182500D01*
D10*
X10288872Y-13041484D02*
X10307920Y-13041484D01*
X10307920Y-13041484D02*
X10326967Y-13051008D01*
X10326967Y-13051008D02*
X10336491Y-13060531D01*
X10336491Y-13060531D02*
X10346015Y-13079579D01*
X10346015Y-13079579D02*
X10355539Y-13117674D01*
X10355539Y-13117674D02*
X10355539Y-13165293D01*
X10355539Y-13165293D02*
X10346015Y-13203388D01*
X10346015Y-13203388D02*
X10336491Y-13222436D01*
X10336491Y-13222436D02*
X10326967Y-13231960D01*
X10326967Y-13231960D02*
X10307920Y-13241484D01*
X10307920Y-13241484D02*
X10288872Y-13241484D01*
X10288872Y-13241484D02*
X10269824Y-13231960D01*
X10269824Y-13231960D02*
X10260301Y-13222436D01*
X10260301Y-13222436D02*
X10250777Y-13203388D01*
X10250777Y-13203388D02*
X10241253Y-13165293D01*
X10241253Y-13165293D02*
X10241253Y-13117674D01*
X10241253Y-13117674D02*
X10250777Y-13079579D01*
X10250777Y-13079579D02*
X10260301Y-13060531D01*
X10260301Y-13060531D02*
X10269824Y-13051008D01*
X10269824Y-13051008D02*
X10288872Y-13041484D01*
X10441253Y-13222436D02*
X10450777Y-13231960D01*
X10450777Y-13231960D02*
X10441253Y-13241484D01*
X10441253Y-13241484D02*
X10431729Y-13231960D01*
X10431729Y-13231960D02*
X10441253Y-13222436D01*
X10441253Y-13222436D02*
X10441253Y-13241484D01*
X10622205Y-13041484D02*
X10584110Y-13041484D01*
X10584110Y-13041484D02*
X10565063Y-13051008D01*
X10565063Y-13051008D02*
X10555539Y-13060531D01*
X10555539Y-13060531D02*
X10536491Y-13089103D01*
X10536491Y-13089103D02*
X10526967Y-13127198D01*
X10526967Y-13127198D02*
X10526967Y-13203388D01*
X10526967Y-13203388D02*
X10536491Y-13222436D01*
X10536491Y-13222436D02*
X10546015Y-13231960D01*
X10546015Y-13231960D02*
X10565063Y-13241484D01*
X10565063Y-13241484D02*
X10603158Y-13241484D01*
X10603158Y-13241484D02*
X10622205Y-13231960D01*
X10622205Y-13231960D02*
X10631729Y-13222436D01*
X10631729Y-13222436D02*
X10641253Y-13203388D01*
X10641253Y-13203388D02*
X10641253Y-13155769D01*
X10641253Y-13155769D02*
X10631729Y-13136722D01*
X10631729Y-13136722D02*
X10622205Y-13127198D01*
X10622205Y-13127198D02*
X10603158Y-13117674D01*
X10603158Y-13117674D02*
X10565063Y-13117674D01*
X10565063Y-13117674D02*
X10546015Y-13127198D01*
X10546015Y-13127198D02*
X10536491Y-13136722D01*
X10536491Y-13136722D02*
X10526967Y-13155769D01*
X10822205Y-13041484D02*
X10726967Y-13041484D01*
X10726967Y-13041484D02*
X10717444Y-13136722D01*
X10717444Y-13136722D02*
X10726967Y-13127198D01*
X10726967Y-13127198D02*
X10746015Y-13117674D01*
X10746015Y-13117674D02*
X10793634Y-13117674D01*
X10793634Y-13117674D02*
X10812682Y-13127198D01*
X10812682Y-13127198D02*
X10822205Y-13136722D01*
X10822205Y-13136722D02*
X10831729Y-13155769D01*
X10831729Y-13155769D02*
X10831729Y-13203388D01*
X10831729Y-13203388D02*
X10822205Y-13222436D01*
X10822205Y-13222436D02*
X10812682Y-13231960D01*
X10812682Y-13231960D02*
X10793634Y-13241484D01*
X10793634Y-13241484D02*
X10746015Y-13241484D01*
X10746015Y-13241484D02*
X10726967Y-13231960D01*
X10726967Y-13231960D02*
X10717444Y-13222436D01*
X10955539Y-13041484D02*
X10974586Y-13041484D01*
X10974586Y-13041484D02*
X10993634Y-13051008D01*
X10993634Y-13051008D02*
X11003158Y-13060531D01*
X11003158Y-13060531D02*
X11012682Y-13079579D01*
X11012682Y-13079579D02*
X11022205Y-13117674D01*
X11022205Y-13117674D02*
X11022205Y-13165293D01*
X11022205Y-13165293D02*
X11012682Y-13203388D01*
X11012682Y-13203388D02*
X11003158Y-13222436D01*
X11003158Y-13222436D02*
X10993634Y-13231960D01*
X10993634Y-13231960D02*
X10974586Y-13241484D01*
X10974586Y-13241484D02*
X10955539Y-13241484D01*
X10955539Y-13241484D02*
X10936491Y-13231960D01*
X10936491Y-13231960D02*
X10926967Y-13222436D01*
X10926967Y-13222436D02*
X10917444Y-13203388D01*
X10917444Y-13203388D02*
X10907920Y-13165293D01*
X10907920Y-13165293D02*
X10907920Y-13117674D01*
X10907920Y-13117674D02*
X10917444Y-13079579D01*
X10917444Y-13079579D02*
X10926967Y-13060531D01*
X10926967Y-13060531D02*
X10936491Y-13051008D01*
X10936491Y-13051008D02*
X10955539Y-13041484D01*
X11107920Y-13241484D02*
X11107920Y-13108150D01*
X11107920Y-13127198D02*
X11117444Y-13117674D01*
X11117444Y-13117674D02*
X11136491Y-13108150D01*
X11136491Y-13108150D02*
X11165063Y-13108150D01*
X11165063Y-13108150D02*
X11184110Y-13117674D01*
X11184110Y-13117674D02*
X11193634Y-13136722D01*
X11193634Y-13136722D02*
X11193634Y-13241484D01*
X11193634Y-13136722D02*
X11203158Y-13117674D01*
X11203158Y-13117674D02*
X11222205Y-13108150D01*
X11222205Y-13108150D02*
X11250777Y-13108150D01*
X11250777Y-13108150D02*
X11269824Y-13117674D01*
X11269824Y-13117674D02*
X11279348Y-13136722D01*
X11279348Y-13136722D02*
X11279348Y-13241484D01*
X11374586Y-13241484D02*
X11374586Y-13108150D01*
X11374586Y-13127198D02*
X11384110Y-13117674D01*
X11384110Y-13117674D02*
X11403158Y-13108150D01*
X11403158Y-13108150D02*
X11431729Y-13108150D01*
X11431729Y-13108150D02*
X11450777Y-13117674D01*
X11450777Y-13117674D02*
X11460301Y-13136722D01*
X11460301Y-13136722D02*
X11460301Y-13241484D01*
X11460301Y-13136722D02*
X11469824Y-13117674D01*
X11469824Y-13117674D02*
X11488872Y-13108150D01*
X11488872Y-13108150D02*
X11517443Y-13108150D01*
X11517443Y-13108150D02*
X11536491Y-13117674D01*
X11536491Y-13117674D02*
X11546015Y-13136722D01*
X11546015Y-13136722D02*
X11546015Y-13241484D01*
X11936491Y-13031960D02*
X11765063Y-13289103D01*
X12193634Y-13041484D02*
X12212682Y-13041484D01*
X12212682Y-13041484D02*
X12231729Y-13051008D01*
X12231729Y-13051008D02*
X12241253Y-13060531D01*
X12241253Y-13060531D02*
X12250777Y-13079579D01*
X12250777Y-13079579D02*
X12260301Y-13117674D01*
X12260301Y-13117674D02*
X12260301Y-13165293D01*
X12260301Y-13165293D02*
X12250777Y-13203388D01*
X12250777Y-13203388D02*
X12241253Y-13222436D01*
X12241253Y-13222436D02*
X12231729Y-13231960D01*
X12231729Y-13231960D02*
X12212682Y-13241484D01*
X12212682Y-13241484D02*
X12193634Y-13241484D01*
X12193634Y-13241484D02*
X12174586Y-13231960D01*
X12174586Y-13231960D02*
X12165063Y-13222436D01*
X12165063Y-13222436D02*
X12155539Y-13203388D01*
X12155539Y-13203388D02*
X12146015Y-13165293D01*
X12146015Y-13165293D02*
X12146015Y-13117674D01*
X12146015Y-13117674D02*
X12155539Y-13079579D01*
X12155539Y-13079579D02*
X12165063Y-13060531D01*
X12165063Y-13060531D02*
X12174586Y-13051008D01*
X12174586Y-13051008D02*
X12193634Y-13041484D01*
X12346015Y-13222436D02*
X12355539Y-13231960D01*
X12355539Y-13231960D02*
X12346015Y-13241484D01*
X12346015Y-13241484D02*
X12336491Y-13231960D01*
X12336491Y-13231960D02*
X12346015Y-13222436D01*
X12346015Y-13222436D02*
X12346015Y-13241484D01*
X12479348Y-13041484D02*
X12498396Y-13041484D01*
X12498396Y-13041484D02*
X12517444Y-13051008D01*
X12517444Y-13051008D02*
X12526967Y-13060531D01*
X12526967Y-13060531D02*
X12536491Y-13079579D01*
X12536491Y-13079579D02*
X12546015Y-13117674D01*
X12546015Y-13117674D02*
X12546015Y-13165293D01*
X12546015Y-13165293D02*
X12536491Y-13203388D01*
X12536491Y-13203388D02*
X12526967Y-13222436D01*
X12526967Y-13222436D02*
X12517444Y-13231960D01*
X12517444Y-13231960D02*
X12498396Y-13241484D01*
X12498396Y-13241484D02*
X12479348Y-13241484D01*
X12479348Y-13241484D02*
X12460301Y-13231960D01*
X12460301Y-13231960D02*
X12450777Y-13222436D01*
X12450777Y-13222436D02*
X12441253Y-13203388D01*
X12441253Y-13203388D02*
X12431729Y-13165293D01*
X12431729Y-13165293D02*
X12431729Y-13117674D01*
X12431729Y-13117674D02*
X12441253Y-13079579D01*
X12441253Y-13079579D02*
X12450777Y-13060531D01*
X12450777Y-13060531D02*
X12460301Y-13051008D01*
X12460301Y-13051008D02*
X12479348Y-13041484D01*
X12622206Y-13060531D02*
X12631729Y-13051008D01*
X12631729Y-13051008D02*
X12650777Y-13041484D01*
X12650777Y-13041484D02*
X12698396Y-13041484D01*
X12698396Y-13041484D02*
X12717444Y-13051008D01*
X12717444Y-13051008D02*
X12726967Y-13060531D01*
X12726967Y-13060531D02*
X12736491Y-13079579D01*
X12736491Y-13079579D02*
X12736491Y-13098627D01*
X12736491Y-13098627D02*
X12726967Y-13127198D01*
X12726967Y-13127198D02*
X12612682Y-13241484D01*
X12612682Y-13241484D02*
X12736491Y-13241484D01*
X12917444Y-13041484D02*
X12822206Y-13041484D01*
X12822206Y-13041484D02*
X12812682Y-13136722D01*
X12812682Y-13136722D02*
X12822206Y-13127198D01*
X12822206Y-13127198D02*
X12841253Y-13117674D01*
X12841253Y-13117674D02*
X12888872Y-13117674D01*
X12888872Y-13117674D02*
X12907920Y-13127198D01*
X12907920Y-13127198D02*
X12917444Y-13136722D01*
X12917444Y-13136722D02*
X12926967Y-13155769D01*
X12926967Y-13155769D02*
X12926967Y-13203388D01*
X12926967Y-13203388D02*
X12917444Y-13222436D01*
X12917444Y-13222436D02*
X12907920Y-13231960D01*
X12907920Y-13231960D02*
X12888872Y-13241484D01*
X12888872Y-13241484D02*
X12841253Y-13241484D01*
X12841253Y-13241484D02*
X12822206Y-13231960D01*
X12822206Y-13231960D02*
X12812682Y-13222436D01*
X13098396Y-13041484D02*
X13060301Y-13041484D01*
X13060301Y-13041484D02*
X13041253Y-13051008D01*
X13041253Y-13051008D02*
X13031729Y-13060531D01*
X13031729Y-13060531D02*
X13012682Y-13089103D01*
X13012682Y-13089103D02*
X13003158Y-13127198D01*
X13003158Y-13127198D02*
X13003158Y-13203388D01*
X13003158Y-13203388D02*
X13012682Y-13222436D01*
X13012682Y-13222436D02*
X13022206Y-13231960D01*
X13022206Y-13231960D02*
X13041253Y-13241484D01*
X13041253Y-13241484D02*
X13079348Y-13241484D01*
X13079348Y-13241484D02*
X13098396Y-13231960D01*
X13098396Y-13231960D02*
X13107920Y-13222436D01*
X13107920Y-13222436D02*
X13117444Y-13203388D01*
X13117444Y-13203388D02*
X13117444Y-13155769D01*
X13117444Y-13155769D02*
X13107920Y-13136722D01*
X13107920Y-13136722D02*
X13098396Y-13127198D01*
X13098396Y-13127198D02*
X13079348Y-13117674D01*
X13079348Y-13117674D02*
X13041253Y-13117674D01*
X13041253Y-13117674D02*
X13022206Y-13127198D01*
X13022206Y-13127198D02*
X13012682Y-13136722D01*
X13012682Y-13136722D02*
X13003158Y-13155769D01*
X13193634Y-13041484D02*
X13193634Y-13079579D01*
X13269825Y-13041484D02*
X13269825Y-13079579D01*
X13565063Y-13317674D02*
X13555539Y-13308150D01*
X13555539Y-13308150D02*
X13536491Y-13279579D01*
X13536491Y-13279579D02*
X13526968Y-13260531D01*
X13526968Y-13260531D02*
X13517444Y-13231960D01*
X13517444Y-13231960D02*
X13507920Y-13184341D01*
X13507920Y-13184341D02*
X13507920Y-13146246D01*
X13507920Y-13146246D02*
X13517444Y-13098627D01*
X13517444Y-13098627D02*
X13526968Y-13070055D01*
X13526968Y-13070055D02*
X13536491Y-13051008D01*
X13536491Y-13051008D02*
X13555539Y-13022436D01*
X13555539Y-13022436D02*
X13565063Y-13012912D01*
X13631729Y-13060531D02*
X13641253Y-13051008D01*
X13641253Y-13051008D02*
X13660301Y-13041484D01*
X13660301Y-13041484D02*
X13707920Y-13041484D01*
X13707920Y-13041484D02*
X13726968Y-13051008D01*
X13726968Y-13051008D02*
X13736491Y-13060531D01*
X13736491Y-13060531D02*
X13746015Y-13079579D01*
X13746015Y-13079579D02*
X13746015Y-13098627D01*
X13746015Y-13098627D02*
X13736491Y-13127198D01*
X13736491Y-13127198D02*
X13622206Y-13241484D01*
X13622206Y-13241484D02*
X13746015Y-13241484D01*
X13984110Y-13241484D02*
X13984110Y-13041484D01*
X14069825Y-13241484D02*
X14069825Y-13136722D01*
X14069825Y-13136722D02*
X14060301Y-13117674D01*
X14060301Y-13117674D02*
X14041253Y-13108150D01*
X14041253Y-13108150D02*
X14012682Y-13108150D01*
X14012682Y-13108150D02*
X13993634Y-13117674D01*
X13993634Y-13117674D02*
X13984110Y-13127198D01*
X14193634Y-13241484D02*
X14174587Y-13231960D01*
X14174587Y-13231960D02*
X14165063Y-13222436D01*
X14165063Y-13222436D02*
X14155539Y-13203388D01*
X14155539Y-13203388D02*
X14155539Y-13146246D01*
X14155539Y-13146246D02*
X14165063Y-13127198D01*
X14165063Y-13127198D02*
X14174587Y-13117674D01*
X14174587Y-13117674D02*
X14193634Y-13108150D01*
X14193634Y-13108150D02*
X14222206Y-13108150D01*
X14222206Y-13108150D02*
X14241253Y-13117674D01*
X14241253Y-13117674D02*
X14250777Y-13127198D01*
X14250777Y-13127198D02*
X14260301Y-13146246D01*
X14260301Y-13146246D02*
X14260301Y-13203388D01*
X14260301Y-13203388D02*
X14250777Y-13222436D01*
X14250777Y-13222436D02*
X14241253Y-13231960D01*
X14241253Y-13231960D02*
X14222206Y-13241484D01*
X14222206Y-13241484D02*
X14193634Y-13241484D01*
X14374587Y-13241484D02*
X14355539Y-13231960D01*
X14355539Y-13231960D02*
X14346015Y-13212912D01*
X14346015Y-13212912D02*
X14346015Y-13041484D01*
X14526968Y-13231960D02*
X14507920Y-13241484D01*
X14507920Y-13241484D02*
X14469825Y-13241484D01*
X14469825Y-13241484D02*
X14450777Y-13231960D01*
X14450777Y-13231960D02*
X14441253Y-13212912D01*
X14441253Y-13212912D02*
X14441253Y-13136722D01*
X14441253Y-13136722D02*
X14450777Y-13117674D01*
X14450777Y-13117674D02*
X14469825Y-13108150D01*
X14469825Y-13108150D02*
X14507920Y-13108150D01*
X14507920Y-13108150D02*
X14526968Y-13117674D01*
X14526968Y-13117674D02*
X14536491Y-13136722D01*
X14536491Y-13136722D02*
X14536491Y-13155769D01*
X14536491Y-13155769D02*
X14441253Y-13174817D01*
X14612682Y-13231960D02*
X14631730Y-13241484D01*
X14631730Y-13241484D02*
X14669825Y-13241484D01*
X14669825Y-13241484D02*
X14688872Y-13231960D01*
X14688872Y-13231960D02*
X14698396Y-13212912D01*
X14698396Y-13212912D02*
X14698396Y-13203388D01*
X14698396Y-13203388D02*
X14688872Y-13184341D01*
X14688872Y-13184341D02*
X14669825Y-13174817D01*
X14669825Y-13174817D02*
X14641253Y-13174817D01*
X14641253Y-13174817D02*
X14622206Y-13165293D01*
X14622206Y-13165293D02*
X14612682Y-13146246D01*
X14612682Y-13146246D02*
X14612682Y-13136722D01*
X14612682Y-13136722D02*
X14622206Y-13117674D01*
X14622206Y-13117674D02*
X14641253Y-13108150D01*
X14641253Y-13108150D02*
X14669825Y-13108150D01*
X14669825Y-13108150D02*
X14688872Y-13117674D01*
X14765063Y-13317674D02*
X14774587Y-13308150D01*
X14774587Y-13308150D02*
X14793634Y-13279579D01*
X14793634Y-13279579D02*
X14803158Y-13260531D01*
X14803158Y-13260531D02*
X14812682Y-13231960D01*
X14812682Y-13231960D02*
X14822206Y-13184341D01*
X14822206Y-13184341D02*
X14822206Y-13146246D01*
X14822206Y-13146246D02*
X14812682Y-13098627D01*
X14812682Y-13098627D02*
X14803158Y-13070055D01*
X14803158Y-13070055D02*
X14793634Y-13051008D01*
X14793634Y-13051008D02*
X14774587Y-13022436D01*
X14774587Y-13022436D02*
X14765063Y-13012912D01*
X15126968Y-13317674D02*
X15117444Y-13308150D01*
X15117444Y-13308150D02*
X15098396Y-13279579D01*
X15098396Y-13279579D02*
X15088872Y-13260531D01*
X15088872Y-13260531D02*
X15079349Y-13231960D01*
X15079349Y-13231960D02*
X15069825Y-13184341D01*
X15069825Y-13184341D02*
X15069825Y-13146246D01*
X15069825Y-13146246D02*
X15079349Y-13098627D01*
X15079349Y-13098627D02*
X15088872Y-13070055D01*
X15088872Y-13070055D02*
X15098396Y-13051008D01*
X15098396Y-13051008D02*
X15117444Y-13022436D01*
X15117444Y-13022436D02*
X15126968Y-13012912D01*
X15203158Y-13108150D02*
X15203158Y-13241484D01*
X15203158Y-13127198D02*
X15212682Y-13117674D01*
X15212682Y-13117674D02*
X15231730Y-13108150D01*
X15231730Y-13108150D02*
X15260301Y-13108150D01*
X15260301Y-13108150D02*
X15279349Y-13117674D01*
X15279349Y-13117674D02*
X15288872Y-13136722D01*
X15288872Y-13136722D02*
X15288872Y-13241484D01*
X15412682Y-13241484D02*
X15393634Y-13231960D01*
X15393634Y-13231960D02*
X15384111Y-13222436D01*
X15384111Y-13222436D02*
X15374587Y-13203388D01*
X15374587Y-13203388D02*
X15374587Y-13146246D01*
X15374587Y-13146246D02*
X15384111Y-13127198D01*
X15384111Y-13127198D02*
X15393634Y-13117674D01*
X15393634Y-13117674D02*
X15412682Y-13108150D01*
X15412682Y-13108150D02*
X15441253Y-13108150D01*
X15441253Y-13108150D02*
X15460301Y-13117674D01*
X15460301Y-13117674D02*
X15469825Y-13127198D01*
X15469825Y-13127198D02*
X15479349Y-13146246D01*
X15479349Y-13146246D02*
X15479349Y-13203388D01*
X15479349Y-13203388D02*
X15469825Y-13222436D01*
X15469825Y-13222436D02*
X15460301Y-13231960D01*
X15460301Y-13231960D02*
X15441253Y-13241484D01*
X15441253Y-13241484D02*
X15412682Y-13241484D01*
X15536492Y-13108150D02*
X15612682Y-13108150D01*
X15565063Y-13041484D02*
X15565063Y-13212912D01*
X15565063Y-13212912D02*
X15574587Y-13231960D01*
X15574587Y-13231960D02*
X15593634Y-13241484D01*
X15593634Y-13241484D02*
X15612682Y-13241484D01*
X15831730Y-13108150D02*
X15831730Y-13308150D01*
X15831730Y-13117674D02*
X15850777Y-13108150D01*
X15850777Y-13108150D02*
X15888873Y-13108150D01*
X15888873Y-13108150D02*
X15907920Y-13117674D01*
X15907920Y-13117674D02*
X15917444Y-13127198D01*
X15917444Y-13127198D02*
X15926968Y-13146246D01*
X15926968Y-13146246D02*
X15926968Y-13203388D01*
X15926968Y-13203388D02*
X15917444Y-13222436D01*
X15917444Y-13222436D02*
X15907920Y-13231960D01*
X15907920Y-13231960D02*
X15888873Y-13241484D01*
X15888873Y-13241484D02*
X15850777Y-13241484D01*
X15850777Y-13241484D02*
X15831730Y-13231960D01*
X16041253Y-13241484D02*
X16022206Y-13231960D01*
X16022206Y-13231960D02*
X16012682Y-13212912D01*
X16012682Y-13212912D02*
X16012682Y-13041484D01*
X16203158Y-13241484D02*
X16203158Y-13136722D01*
X16203158Y-13136722D02*
X16193634Y-13117674D01*
X16193634Y-13117674D02*
X16174587Y-13108150D01*
X16174587Y-13108150D02*
X16136492Y-13108150D01*
X16136492Y-13108150D02*
X16117444Y-13117674D01*
X16203158Y-13231960D02*
X16184111Y-13241484D01*
X16184111Y-13241484D02*
X16136492Y-13241484D01*
X16136492Y-13241484D02*
X16117444Y-13231960D01*
X16117444Y-13231960D02*
X16107920Y-13212912D01*
X16107920Y-13212912D02*
X16107920Y-13193865D01*
X16107920Y-13193865D02*
X16117444Y-13174817D01*
X16117444Y-13174817D02*
X16136492Y-13165293D01*
X16136492Y-13165293D02*
X16184111Y-13165293D01*
X16184111Y-13165293D02*
X16203158Y-13155769D01*
X16269825Y-13108150D02*
X16346015Y-13108150D01*
X16298396Y-13041484D02*
X16298396Y-13212912D01*
X16298396Y-13212912D02*
X16307920Y-13231960D01*
X16307920Y-13231960D02*
X16326968Y-13241484D01*
X16326968Y-13241484D02*
X16346015Y-13241484D01*
X16488873Y-13231960D02*
X16469825Y-13241484D01*
X16469825Y-13241484D02*
X16431730Y-13241484D01*
X16431730Y-13241484D02*
X16412682Y-13231960D01*
X16412682Y-13231960D02*
X16403158Y-13212912D01*
X16403158Y-13212912D02*
X16403158Y-13136722D01*
X16403158Y-13136722D02*
X16412682Y-13117674D01*
X16412682Y-13117674D02*
X16431730Y-13108150D01*
X16431730Y-13108150D02*
X16469825Y-13108150D01*
X16469825Y-13108150D02*
X16488873Y-13117674D01*
X16488873Y-13117674D02*
X16498396Y-13136722D01*
X16498396Y-13136722D02*
X16498396Y-13155769D01*
X16498396Y-13155769D02*
X16403158Y-13174817D01*
X16669825Y-13241484D02*
X16669825Y-13041484D01*
X16669825Y-13231960D02*
X16650777Y-13241484D01*
X16650777Y-13241484D02*
X16612682Y-13241484D01*
X16612682Y-13241484D02*
X16593634Y-13231960D01*
X16593634Y-13231960D02*
X16584111Y-13222436D01*
X16584111Y-13222436D02*
X16574587Y-13203388D01*
X16574587Y-13203388D02*
X16574587Y-13146246D01*
X16574587Y-13146246D02*
X16584111Y-13127198D01*
X16584111Y-13127198D02*
X16593634Y-13117674D01*
X16593634Y-13117674D02*
X16612682Y-13108150D01*
X16612682Y-13108150D02*
X16650777Y-13108150D01*
X16650777Y-13108150D02*
X16669825Y-13117674D01*
X16746015Y-13317674D02*
X16755539Y-13308150D01*
X16755539Y-13308150D02*
X16774587Y-13279579D01*
X16774587Y-13279579D02*
X16784111Y-13260531D01*
X16784111Y-13260531D02*
X16793635Y-13231960D01*
X16793635Y-13231960D02*
X16803158Y-13184341D01*
X16803158Y-13184341D02*
X16803158Y-13146246D01*
X16803158Y-13146246D02*
X16793635Y-13098627D01*
X16793635Y-13098627D02*
X16784111Y-13070055D01*
X16784111Y-13070055D02*
X16774587Y-13051008D01*
X16774587Y-13051008D02*
X16755539Y-13022436D01*
X16755539Y-13022436D02*
X16746015Y-13012912D01*
M02*
