G04 #@! TF.GenerationSoftware,KiCad,Pcbnew,8.0.5-dirty*
G04 #@! TF.CreationDate,2024-10-08T17:02:33+11:00*
G04 #@! TF.ProjectId,kestral,6b657374-7261-46c2-9e6b-696361645f70,rev?*
G04 #@! TF.SameCoordinates,Original*
G04 #@! TF.FileFunction,Legend,Top*
G04 #@! TF.FilePolarity,Positive*
%FSLAX46Y46*%
G04 Gerber Fmt 4.6, Leading zero omitted, Abs format (unit mm)*
G04 Created by KiCad (PCBNEW 8.0.5-dirty) date 2024-10-08 17:02:33*
%MOMM*%
%LPD*%
G01*
G04 APERTURE LIST*
G04 Aperture macros list*
%AMRoundRect*
0 Rectangle with rounded corners*
0 $1 Rounding radius*
0 $2 $3 $4 $5 $6 $7 $8 $9 X,Y pos of 4 corners*
0 Add a 4 corners polygon primitive as box body*
4,1,4,$2,$3,$4,$5,$6,$7,$8,$9,$2,$3,0*
0 Add four circle primitives for the rounded corners*
1,1,$1+$1,$2,$3*
1,1,$1+$1,$4,$5*
1,1,$1+$1,$6,$7*
1,1,$1+$1,$8,$9*
0 Add four rect primitives between the rounded corners*
20,1,$1+$1,$2,$3,$4,$5,0*
20,1,$1+$1,$4,$5,$6,$7,0*
20,1,$1+$1,$6,$7,$8,$9,0*
20,1,$1+$1,$8,$9,$2,$3,0*%
G04 Aperture macros list end*
%ADD10C,0.150000*%
%ADD11C,0.120000*%
%ADD12C,0.152400*%
%ADD13C,0.127000*%
%ADD14C,0.200000*%
%ADD15RoundRect,0.225000X0.225000X0.250000X-0.225000X0.250000X-0.225000X-0.250000X0.225000X-0.250000X0*%
%ADD16RoundRect,0.125000X0.125000X-0.250000X0.125000X0.250000X-0.125000X0.250000X-0.125000X-0.250000X0*%
%ADD17R,4.300000X3.400000*%
%ADD18RoundRect,0.317500X-0.317500X1.157500X-0.317500X-1.157500X0.317500X-1.157500X0.317500X1.157500X0*%
%ADD19RoundRect,0.225000X-0.250000X0.225000X-0.250000X-0.225000X0.250000X-0.225000X0.250000X0.225000X0*%
%ADD20C,0.650000*%
%ADD21R,1.240000X0.600000*%
%ADD22R,1.240000X0.300000*%
%ADD23O,2.100000X1.000000*%
%ADD24O,1.800000X1.000000*%
%ADD25RoundRect,0.225000X0.250000X-0.225000X0.250000X0.225000X-0.250000X0.225000X-0.250000X-0.225000X0*%
%ADD26RoundRect,0.050000X0.050000X-0.387500X0.050000X0.387500X-0.050000X0.387500X-0.050000X-0.387500X0*%
%ADD27RoundRect,0.050000X0.387500X-0.050000X0.387500X0.050000X-0.387500X0.050000X-0.387500X-0.050000X0*%
%ADD28R,3.200000X3.200000*%
%ADD29RoundRect,0.200000X0.200000X0.275000X-0.200000X0.275000X-0.200000X-0.275000X0.200000X-0.275000X0*%
%ADD30RoundRect,0.225000X-0.225000X-0.250000X0.225000X-0.250000X0.225000X0.250000X-0.225000X0.250000X0*%
%ADD31RoundRect,0.218750X-0.218750X-0.256250X0.218750X-0.256250X0.218750X0.256250X-0.218750X0.256250X0*%
%ADD32C,1.803400*%
%ADD33RoundRect,0.150000X-0.512500X-0.150000X0.512500X-0.150000X0.512500X0.150000X-0.512500X0.150000X0*%
%ADD34RoundRect,0.102000X-0.550000X0.650000X-0.550000X-0.650000X0.550000X-0.650000X0.550000X0.650000X0*%
%ADD35RoundRect,0.200000X-0.200000X-0.275000X0.200000X-0.275000X0.200000X0.275000X-0.200000X0.275000X0*%
%ADD36R,0.650000X1.050000*%
%ADD37R,1.200000X2.000000*%
%ADD38R,5.080000X1.500000*%
G04 APERTURE END LIST*
D10*
X103179819Y-112833333D02*
X103894104Y-112833333D01*
X103894104Y-112833333D02*
X104036961Y-112880952D01*
X104036961Y-112880952D02*
X104132200Y-112976190D01*
X104132200Y-112976190D02*
X104179819Y-113119047D01*
X104179819Y-113119047D02*
X104179819Y-113214285D01*
X103179819Y-112452380D02*
X103179819Y-111833333D01*
X103179819Y-111833333D02*
X103560771Y-112166666D01*
X103560771Y-112166666D02*
X103560771Y-112023809D01*
X103560771Y-112023809D02*
X103608390Y-111928571D01*
X103608390Y-111928571D02*
X103656009Y-111880952D01*
X103656009Y-111880952D02*
X103751247Y-111833333D01*
X103751247Y-111833333D02*
X103989342Y-111833333D01*
X103989342Y-111833333D02*
X104084580Y-111880952D01*
X104084580Y-111880952D02*
X104132200Y-111928571D01*
X104132200Y-111928571D02*
X104179819Y-112023809D01*
X104179819Y-112023809D02*
X104179819Y-112309523D01*
X104179819Y-112309523D02*
X104132200Y-112404761D01*
X104132200Y-112404761D02*
X104084580Y-112452380D01*
D11*
X129370580Y-114040000D02*
X129089420Y-114040000D01*
X129370580Y-115060000D02*
X129089420Y-115060000D01*
X110695000Y-113510000D02*
X110695000Y-107520000D01*
X115915000Y-113520000D02*
X115915000Y-107520000D01*
X110995000Y-114230000D02*
X110515000Y-113750000D01*
X110995000Y-113750000D01*
X110995000Y-114230000D01*
G36*
X110995000Y-114230000D02*
G01*
X110515000Y-113750000D01*
X110995000Y-113750000D01*
X110995000Y-114230000D01*
G37*
X123965580Y-113605000D02*
X123684420Y-113605000D01*
X123965580Y-114625000D02*
X123684420Y-114625000D01*
X131000000Y-104800000D02*
X131000000Y-121000000D01*
X131000000Y-121000000D02*
X131400000Y-121000000D01*
X131400000Y-104800000D02*
X131000000Y-104800000D01*
X147200000Y-104800000D02*
X147200000Y-121000000D01*
X147200000Y-121000000D02*
X146800000Y-121000000D01*
X147336000Y-104540000D02*
X147000000Y-104300000D01*
X147336000Y-104060000D01*
X147336000Y-104540000D01*
G36*
X147336000Y-104540000D02*
G01*
X147000000Y-104300000D01*
X147336000Y-104060000D01*
X147336000Y-104540000D01*
G37*
X115990000Y-115434420D02*
X115990000Y-115715580D01*
X117010000Y-115434420D02*
X117010000Y-115715580D01*
X100015000Y-107920000D02*
X101720000Y-107920000D01*
X100015000Y-117080000D02*
X100015000Y-107920000D01*
X101720000Y-117080000D02*
X100015000Y-117080000D01*
X103730000Y-117080000D02*
X105650000Y-117080000D01*
X105650000Y-107920000D02*
X103730000Y-107920000D01*
X123752500Y-121115580D02*
X123752500Y-120834420D01*
X124772500Y-121115580D02*
X124772500Y-120834420D01*
X119190000Y-101922500D02*
X119840000Y-101922500D01*
X119190000Y-102572500D02*
X119190000Y-101922500D01*
X119190000Y-108492500D02*
X119190000Y-108842500D01*
X119840000Y-109142500D02*
X119430000Y-109142500D01*
X126410000Y-101922500D02*
X125760000Y-101922500D01*
X126410000Y-102572500D02*
X126410000Y-101922500D01*
X126410000Y-108492500D02*
X126410000Y-109142500D01*
X126410000Y-109142500D02*
X125760000Y-109142500D01*
X119190000Y-109142500D02*
X118860000Y-109382500D01*
X118860000Y-108902500D01*
X119190000Y-109142500D01*
G36*
X119190000Y-109142500D02*
G01*
X118860000Y-109382500D01*
X118860000Y-108902500D01*
X119190000Y-109142500D01*
G37*
X111337258Y-100977500D02*
X110862742Y-100977500D01*
X111337258Y-102022500D02*
X110862742Y-102022500D01*
X127559420Y-120090000D02*
X127840580Y-120090000D01*
X127559420Y-121110000D02*
X127840580Y-121110000D01*
X120915580Y-112120000D02*
X120634420Y-112120000D01*
X120915580Y-113140000D02*
X120634420Y-113140000D01*
X106627500Y-100765000D02*
X106627500Y-102235000D01*
X106627500Y-102235000D02*
X108912500Y-102235000D01*
X108912500Y-100765000D02*
X106627500Y-100765000D01*
D12*
X110249799Y-117273000D02*
X110249799Y-124918400D01*
X110249799Y-124918400D02*
X118530199Y-124918400D01*
X118530199Y-117273000D02*
X110249799Y-117273000D01*
X118530199Y-124918400D02*
X118530199Y-117273000D01*
D11*
X121125000Y-119665000D02*
X120325000Y-119665000D01*
X121125000Y-119665000D02*
X121925000Y-119665000D01*
X121125000Y-122785000D02*
X120325000Y-122785000D01*
X121125000Y-122785000D02*
X121925000Y-122785000D01*
X119825000Y-119715000D02*
X119585000Y-119385000D01*
X120065000Y-119385000D01*
X119825000Y-119715000D01*
G36*
X119825000Y-119715000D02*
G01*
X119585000Y-119385000D01*
X120065000Y-119385000D01*
X119825000Y-119715000D01*
G37*
X117500000Y-115434420D02*
X117500000Y-115715580D01*
X118520000Y-115434420D02*
X118520000Y-115715580D01*
X123965580Y-115105000D02*
X123684420Y-115105000D01*
X123965580Y-116125000D02*
X123684420Y-116125000D01*
X137240580Y-122690000D02*
X136959420Y-122690000D01*
X137240580Y-123710000D02*
X136959420Y-123710000D01*
D13*
X127850000Y-111280000D02*
X127850000Y-111820000D01*
X130350000Y-111820000D02*
X130350000Y-111280000D01*
D14*
X128230000Y-109200000D02*
G75*
G02*
X128030000Y-109200000I-100000J0D01*
G01*
X128030000Y-109200000D02*
G75*
G02*
X128230000Y-109200000I100000J0D01*
G01*
D11*
X106862742Y-118077500D02*
X107337258Y-118077500D01*
X106862742Y-119122500D02*
X107337258Y-119122500D01*
X123965580Y-112105000D02*
X123684420Y-112105000D01*
X123965580Y-113125000D02*
X123684420Y-113125000D01*
X111337258Y-103977500D02*
X110862742Y-103977500D01*
X111337258Y-105022500D02*
X110862742Y-105022500D01*
X128937742Y-115577500D02*
X129412258Y-115577500D01*
X128937742Y-116622500D02*
X129412258Y-116622500D01*
X120821920Y-123215000D02*
X121103080Y-123215000D01*
X120821920Y-124235000D02*
X121103080Y-124235000D01*
X114862742Y-103010000D02*
X115337258Y-103010000D01*
X114862742Y-104055000D02*
X115337258Y-104055000D01*
X106400000Y-120000000D02*
X106400000Y-124400000D01*
X106400000Y-124400000D02*
X106520000Y-124400000D01*
X106520000Y-120000000D02*
X106400000Y-120000000D01*
X107530000Y-124400000D02*
X108670000Y-124400000D01*
X108670000Y-120000000D02*
X107530000Y-120000000D01*
X109680000Y-124400000D02*
X109800000Y-124400000D01*
X109800000Y-120000000D02*
X109680000Y-120000000D01*
X109800000Y-124400000D02*
X109800000Y-120000000D01*
X139037742Y-101077500D02*
X139512258Y-101077500D01*
X139037742Y-102122500D02*
X139512258Y-102122500D01*
X106862742Y-105897500D02*
X107337258Y-105897500D01*
X106862742Y-106942500D02*
X107337258Y-106942500D01*
X125945000Y-111384420D02*
X125945000Y-111665580D01*
X126965000Y-111384420D02*
X126965000Y-111665580D01*
X121362500Y-116515000D02*
X124562500Y-116515000D01*
X124562500Y-119235000D02*
X121362500Y-119235000D01*
X120915580Y-115120000D02*
X120634420Y-115120000D01*
X120915580Y-116140000D02*
X120634420Y-116140000D01*
X114862742Y-104510000D02*
X115337258Y-104510000D01*
X114862742Y-105555000D02*
X115337258Y-105555000D01*
X111337258Y-102477500D02*
X110862742Y-102477500D01*
X111337258Y-103522500D02*
X110862742Y-103522500D01*
X127559420Y-118590000D02*
X127840580Y-118590000D01*
X127559420Y-119610000D02*
X127840580Y-119610000D01*
X106627500Y-103765000D02*
X106627500Y-105235000D01*
X106627500Y-105235000D02*
X108912500Y-105235000D01*
X108912500Y-103765000D02*
X106627500Y-103765000D01*
X120915580Y-113610000D02*
X120634420Y-113610000D01*
X120915580Y-114630000D02*
X120634420Y-114630000D01*
X106627500Y-102265000D02*
X106627500Y-103735000D01*
X106627500Y-103735000D02*
X108912500Y-103735000D01*
X108912500Y-102265000D02*
X106627500Y-102265000D01*
X103837742Y-118077500D02*
X104312258Y-118077500D01*
X103837742Y-119122500D02*
X104312258Y-119122500D01*
%LPC*%
D15*
X130005000Y-114550000D03*
X128455000Y-114550000D03*
D16*
X111400000Y-113220000D03*
X112670000Y-113220000D03*
X113940000Y-113220000D03*
X115210000Y-113220000D03*
X115210000Y-107820000D03*
X113940000Y-107820000D03*
X112670000Y-107820000D03*
X111400000Y-107820000D03*
D17*
X113305000Y-110520000D03*
D15*
X124600000Y-114115000D03*
X123050000Y-114115000D03*
D18*
X146100000Y-105375000D03*
X144100000Y-105375000D03*
X142100000Y-105375000D03*
X140100000Y-105375000D03*
X138100000Y-105375000D03*
X136100000Y-105375000D03*
X134100000Y-105375000D03*
X132100000Y-105375000D03*
X132100000Y-120425000D03*
X134100000Y-120425000D03*
X136100000Y-120425000D03*
X138100000Y-120425000D03*
X140100000Y-120425000D03*
X142100000Y-120425000D03*
X144100000Y-120425000D03*
X146100000Y-120425000D03*
D19*
X116500000Y-114800000D03*
X116500000Y-116350000D03*
D20*
X106405000Y-109610000D03*
X106405000Y-115390000D03*
D21*
X107525000Y-109300000D03*
X107525000Y-110100000D03*
D22*
X107525000Y-111250000D03*
X107525000Y-112250000D03*
X107525000Y-112750000D03*
X107525000Y-113750000D03*
D21*
X107525000Y-114900000D03*
X107525000Y-115700000D03*
X107525000Y-115700000D03*
X107525000Y-114900000D03*
D22*
X107525000Y-114250000D03*
X107525000Y-113250000D03*
X107525000Y-111750000D03*
X107525000Y-110750000D03*
D21*
X107525000Y-110100000D03*
X107525000Y-109300000D03*
D23*
X106925000Y-108180000D03*
D24*
X102725000Y-108180000D03*
D23*
X106925000Y-116820000D03*
D24*
X102725000Y-116820000D03*
D25*
X124262500Y-121750000D03*
X124262500Y-120200000D03*
D26*
X120200000Y-108970000D03*
X120600000Y-108970000D03*
X121000000Y-108970000D03*
X121400000Y-108970000D03*
X121800000Y-108970000D03*
X122200000Y-108970000D03*
X122600000Y-108970000D03*
X123000000Y-108970000D03*
X123400000Y-108970000D03*
X123800000Y-108970000D03*
X124200000Y-108970000D03*
X124600000Y-108970000D03*
X125000000Y-108970000D03*
X125400000Y-108970000D03*
D27*
X126237500Y-108132500D03*
X126237500Y-107732500D03*
X126237500Y-107332500D03*
X126237500Y-106932500D03*
X126237500Y-106532500D03*
X126237500Y-106132500D03*
X126237500Y-105732500D03*
X126237500Y-105332500D03*
X126237500Y-104932500D03*
X126237500Y-104532500D03*
X126237500Y-104132500D03*
X126237500Y-103732500D03*
X126237500Y-103332500D03*
X126237500Y-102932500D03*
D26*
X125400000Y-102095000D03*
X125000000Y-102095000D03*
X124600000Y-102095000D03*
X124200000Y-102095000D03*
X123800000Y-102095000D03*
X123400000Y-102095000D03*
X123000000Y-102095000D03*
X122600000Y-102095000D03*
X122200000Y-102095000D03*
X121800000Y-102095000D03*
X121400000Y-102095000D03*
X121000000Y-102095000D03*
X120600000Y-102095000D03*
X120200000Y-102095000D03*
D27*
X119362500Y-102932500D03*
X119362500Y-103332500D03*
X119362500Y-103732500D03*
X119362500Y-104132500D03*
X119362500Y-104532500D03*
X119362500Y-104932500D03*
X119362500Y-105332500D03*
X119362500Y-105732500D03*
X119362500Y-106132500D03*
X119362500Y-106532500D03*
X119362500Y-106932500D03*
X119362500Y-107332500D03*
X119362500Y-107732500D03*
X119362500Y-108132500D03*
D28*
X122800000Y-105532500D03*
D29*
X111925000Y-101500000D03*
X110275000Y-101500000D03*
D30*
X126925000Y-120600000D03*
X128475000Y-120600000D03*
D15*
X121550000Y-112630000D03*
X120000000Y-112630000D03*
D31*
X107325000Y-101500000D03*
X108900000Y-101500000D03*
D32*
X112689999Y-121400000D03*
X116500000Y-121400000D03*
D33*
X119987500Y-120275000D03*
X119987500Y-121225000D03*
X119987500Y-122175000D03*
X122262500Y-122175000D03*
X122262500Y-121225000D03*
X122262500Y-120275000D03*
D19*
X118010000Y-114800000D03*
X118010000Y-116350000D03*
D15*
X124600000Y-115615000D03*
X123050000Y-115615000D03*
X137875000Y-123200000D03*
X136325000Y-123200000D03*
D34*
X128200000Y-110400000D03*
X128200000Y-112700000D03*
X130000000Y-112700000D03*
X130000000Y-110400000D03*
D35*
X106275000Y-118600000D03*
X107925000Y-118600000D03*
D15*
X124600000Y-112615000D03*
X123050000Y-112615000D03*
D29*
X111925000Y-104500000D03*
X110275000Y-104500000D03*
D35*
X128350000Y-116100000D03*
X130000000Y-116100000D03*
D30*
X120187500Y-123725000D03*
X121737500Y-123725000D03*
D35*
X114275000Y-103532500D03*
X115925000Y-103532500D03*
D36*
X107025000Y-124275000D03*
X107025000Y-120125000D03*
X109175000Y-124275000D03*
X109175000Y-120125000D03*
D35*
X138450000Y-101600000D03*
X140100000Y-101600000D03*
X106275000Y-106420000D03*
X107925000Y-106420000D03*
D19*
X126455000Y-110750000D03*
X126455000Y-112300000D03*
D37*
X124562500Y-117875000D03*
X121362500Y-117875000D03*
D15*
X121550000Y-115630000D03*
X120000000Y-115630000D03*
D35*
X114275000Y-105032500D03*
X115925000Y-105032500D03*
D29*
X111925000Y-103000000D03*
X110275000Y-103000000D03*
D30*
X126925000Y-119100000D03*
X128475000Y-119100000D03*
D31*
X107325000Y-104500000D03*
X108900000Y-104500000D03*
D15*
X121550000Y-114120000D03*
X120000000Y-114120000D03*
D31*
X107325000Y-103000000D03*
X108900000Y-103000000D03*
D35*
X103250000Y-118600000D03*
X104900000Y-118600000D03*
D38*
X151937500Y-108250000D03*
X151937500Y-116750000D03*
%LPD*%
M02*
