M48
; DRILL file {KiCad 8.0.5-dirty} date 2024-10-01T21:11:02+1000
; FORMAT={-:-/ absolute / inch / decimal}
; #@! TF.CreationDate,2024-10-01T21:11:02+10:00
; #@! TF.GenerationSoftware,Kicad,Pcbnew,8.0.5-dirty
; #@! TF.FileFunction,Plated,1,4,PTH
FMAT,2
INCH
; #@! TA.AperFunction,Plated,PTH,ViaDrill
T1C0.0118
; #@! TA.AperFunction,Plated,PTH,ComponentDrill
T2C0.0236
; #@! TA.AperFunction,Plated,PTH,ComponentDrill
T3C0.0510
%
G90
G05
T1
X4.0039Y-4.6614
X4.1654Y-4.8898
X4.1811Y-3.9803
X4.1811Y-4.1299
X4.2904Y-4.2815
X4.2904Y-4.5768
X4.2913Y-4.3937
X4.2913Y-4.4252
X4.3091Y-4.6634
X4.3228Y-4.1654
X4.3848Y-4.4972
X4.4199Y-4.2099
X4.4358Y-4.4969
X4.4528Y-3.9961
X4.4606Y-4.5669
X4.4628Y-4.0761
X4.4628Y-4.1351
X4.4858Y-4.4969
X4.5356Y-4.4973
X4.582Y-4.2336
X4.6146Y-4.4803
X4.6151Y-4.1548
X4.6173Y-4.2374
X4.6181Y-4.0512
X4.6417Y-4.021
X4.6506Y-4.3395
X4.6528Y-4.2336
X4.6556Y-4.1548
X4.685Y-4.3465
X4.6929Y-4.4024
X4.6929Y-4.5236
X4.7165Y-4.3701
X4.7239Y-4.6506
X4.7239Y-4.6781
X4.7239Y-4.7057
X4.7592Y-4.3904
X4.8071Y-4.378
X4.8157Y-4.4639
X4.8332Y-4.8533
X4.8346Y-4.3386
X4.8583Y-4.3898
X4.8701Y-4.3465
X4.8738Y-4.5198
X4.874Y-3.9757
X4.9094Y-4.3866
X4.9173Y-4.8583
X4.9213Y-3.9757
X4.9272Y-4.1548
X4.9528Y-4.8425
X4.997Y-4.7864
X5.0039Y-4.4843
X5.0197Y-4.0157
X5.0276Y-4.0748
X5.0359Y-4.2316
X5.0581Y-4.7913
X5.063Y-4.1102
X5.0984Y-4.815
X5.1009Y-4.1469
X5.126Y-4.2913
X5.2008Y-4.063
X5.2874Y-4.311
X5.3091Y-4.8287
X5.3839Y-4.3602
X5.4134Y-3.9764
X5.4409Y-4.6535
X5.4916Y-4.8302
X5.4961Y-4.0512
X5.563Y-4.2638
X5.5709Y-4.6417
X5.5945Y-4.8268
X5.6378Y-4.0472
X5.6535Y-4.4291
X5.6614Y-4.8189
X5.752Y-4.0354
X5.8563Y-3.9961
X5.8563Y-4.0551
X5.8563Y-4.1142
X5.8563Y-4.1732
X5.8563Y-4.2323
X5.8563Y-4.2913
X5.8563Y-4.3504
X5.8563Y-4.5079
X5.8563Y-4.5669
X5.8563Y-4.626
X5.8563Y-4.685
X5.8563Y-4.7441
X5.8563Y-4.8031
X5.8563Y-4.8622
T3
X4.4366Y-4.7795
X4.5866Y-4.7795
T2
G00X4.06Y-4.2591
M15
G01X4.0285Y-4.2591
M16
G05
G00X4.06Y-4.5992
M15
G01X4.0285Y-4.5992
M16
G05
G00X4.2313Y-4.2591
M15
G01X4.188Y-4.2591
M16
G05
G00X4.2313Y-4.5992
M15
G01X4.188Y-4.5992
M16
G05
M30
