%TF.GenerationSoftware,KiCad,Pcbnew,8.0.5-dirty*%
%TF.CreationDate,2024-10-01T21:11:00+10:00*%
%TF.ProjectId,kestral,6b657374-7261-46c2-9e6b-696361645f70,rev?*%
%TF.SameCoordinates,Original*%
%TF.FileFunction,Soldermask,Top*%
%TF.FilePolarity,Negative*%
%FSLAX46Y46*%
G04 Gerber Fmt 4.6, Leading zero omitted, Abs format (unit mm)*
G04 Created by KiCad (PCBNEW 8.0.5-dirty) date 2024-10-01 21:11:00*
%MOMM*%
%LPD*%
G01*
G04 APERTURE LIST*
G04 Aperture macros list*
%AMRoundRect*
0 Rectangle with rounded corners*
0 $1 Rounding radius*
0 $2 $3 $4 $5 $6 $7 $8 $9 X,Y pos of 4 corners*
0 Add a 4 corners polygon primitive as box body*
4,1,4,$2,$3,$4,$5,$6,$7,$8,$9,$2,$3,0*
0 Add four circle primitives for the rounded corners*
1,1,$1+$1,$2,$3*
1,1,$1+$1,$4,$5*
1,1,$1+$1,$6,$7*
1,1,$1+$1,$8,$9*
0 Add four rect primitives between the rounded corners*
20,1,$1+$1,$2,$3,$4,$5,0*
20,1,$1+$1,$4,$5,$6,$7,0*
20,1,$1+$1,$6,$7,$8,$9,0*
20,1,$1+$1,$8,$9,$2,$3,0*%
G04 Aperture macros list end*
%ADD10RoundRect,0.200000X-0.200000X-0.275000X0.200000X-0.275000X0.200000X0.275000X-0.200000X0.275000X0*%
%ADD11R,0.650000X1.050000*%
%ADD12C,1.803400*%
%ADD13RoundRect,0.225000X0.225000X0.250000X-0.225000X0.250000X-0.225000X-0.250000X0.225000X-0.250000X0*%
%ADD14RoundRect,0.125000X0.125000X-0.250000X0.125000X0.250000X-0.125000X0.250000X-0.125000X-0.250000X0*%
%ADD15R,4.300000X3.400000*%
%ADD16RoundRect,0.317500X-0.317500X1.157500X-0.317500X-1.157500X0.317500X-1.157500X0.317500X1.157500X0*%
%ADD17RoundRect,0.225000X-0.250000X0.225000X-0.250000X-0.225000X0.250000X-0.225000X0.250000X0.225000X0*%
%ADD18C,0.650000*%
%ADD19R,1.240000X0.600000*%
%ADD20R,1.240000X0.300000*%
%ADD21O,2.100000X1.000000*%
%ADD22O,1.800000X1.000000*%
%ADD23RoundRect,0.225000X0.250000X-0.225000X0.250000X0.225000X-0.250000X0.225000X-0.250000X-0.225000X0*%
%ADD24RoundRect,0.050000X0.050000X-0.387500X0.050000X0.387500X-0.050000X0.387500X-0.050000X-0.387500X0*%
%ADD25RoundRect,0.050000X0.387500X-0.050000X0.387500X0.050000X-0.387500X0.050000X-0.387500X-0.050000X0*%
%ADD26R,3.200000X3.200000*%
%ADD27RoundRect,0.200000X0.200000X0.275000X-0.200000X0.275000X-0.200000X-0.275000X0.200000X-0.275000X0*%
%ADD28RoundRect,0.225000X-0.225000X-0.250000X0.225000X-0.250000X0.225000X0.250000X-0.225000X0.250000X0*%
%ADD29RoundRect,0.218750X-0.218750X-0.256250X0.218750X-0.256250X0.218750X0.256250X-0.218750X0.256250X0*%
%ADD30RoundRect,0.150000X-0.512500X-0.150000X0.512500X-0.150000X0.512500X0.150000X-0.512500X0.150000X0*%
%ADD31RoundRect,0.102000X-0.550000X0.650000X-0.550000X-0.650000X0.550000X-0.650000X0.550000X0.650000X0*%
%ADD32R,1.200000X2.000000*%
%ADD33R,5.080000X1.500000*%
G04 APERTURE END LIST*
D10*
%TO.C,R9*%
X103250000Y-118600000D03*
X104900000Y-118600000D03*
%TD*%
D11*
%TO.C,SW1*%
X109175000Y-120125000D03*
X109175000Y-124275000D03*
X107025000Y-120125000D03*
X107025000Y-124275000D03*
%TD*%
D12*
%TO.C,J2*%
X112689999Y-121400000D03*
X116500000Y-121400000D03*
%TD*%
D13*
%TO.C,C5*%
X130005000Y-114550000D03*
X128455000Y-114550000D03*
%TD*%
D14*
%TO.C,U5*%
X111400000Y-113220000D03*
X112670000Y-113220000D03*
X113940000Y-113220000D03*
X115210000Y-113220000D03*
X115210000Y-107820000D03*
X113940000Y-107820000D03*
X112670000Y-107820000D03*
X111400000Y-107820000D03*
D15*
X113305000Y-110520000D03*
%TD*%
D13*
%TO.C,C8*%
X124600000Y-114115000D03*
X123050000Y-114115000D03*
%TD*%
D16*
%TO.C,U2*%
X146100000Y-105375000D03*
X144100000Y-105375000D03*
X142100000Y-105375000D03*
X140100000Y-105375000D03*
X138100000Y-105375000D03*
X136100000Y-105375000D03*
X134100000Y-105375000D03*
X132100000Y-105375000D03*
X132100000Y-120425000D03*
X134100000Y-120425000D03*
X136100000Y-120425000D03*
X138100000Y-120425000D03*
X140100000Y-120425000D03*
X142100000Y-120425000D03*
X144100000Y-120425000D03*
X146100000Y-120425000D03*
%TD*%
D17*
%TO.C,C3*%
X116500000Y-114800000D03*
X116500000Y-116350000D03*
%TD*%
D18*
%TO.C,J3*%
X106405000Y-109610000D03*
X106405000Y-115390000D03*
D19*
X107525000Y-109300000D03*
X107525000Y-110100000D03*
D20*
X107525000Y-111250000D03*
X107525000Y-112250000D03*
X107525000Y-112750000D03*
X107525000Y-113750000D03*
D19*
X107525000Y-114900000D03*
X107525000Y-115700000D03*
X107525000Y-115700000D03*
X107525000Y-114900000D03*
D20*
X107525000Y-114250000D03*
X107525000Y-113250000D03*
X107525000Y-111750000D03*
X107525000Y-110750000D03*
D19*
X107525000Y-110100000D03*
X107525000Y-109300000D03*
D21*
X106925000Y-108180000D03*
D22*
X102725000Y-108180000D03*
D21*
X106925000Y-116820000D03*
D22*
X102725000Y-116820000D03*
%TD*%
D23*
%TO.C,C1*%
X124262500Y-121750000D03*
X124262500Y-120200000D03*
%TD*%
D24*
%TO.C,U3*%
X120200000Y-108970000D03*
X120600000Y-108970000D03*
X121000000Y-108970000D03*
X121400000Y-108970000D03*
X121800000Y-108970000D03*
X122200000Y-108970000D03*
X122600000Y-108970000D03*
X123000000Y-108970000D03*
X123400000Y-108970000D03*
X123800000Y-108970000D03*
X124200000Y-108970000D03*
X124600000Y-108970000D03*
X125000000Y-108970000D03*
X125400000Y-108970000D03*
D25*
X126237500Y-108132500D03*
X126237500Y-107732500D03*
X126237500Y-107332500D03*
X126237500Y-106932500D03*
X126237500Y-106532500D03*
X126237500Y-106132500D03*
X126237500Y-105732500D03*
X126237500Y-105332500D03*
X126237500Y-104932500D03*
X126237500Y-104532500D03*
X126237500Y-104132500D03*
X126237500Y-103732500D03*
X126237500Y-103332500D03*
X126237500Y-102932500D03*
D24*
X125400000Y-102095000D03*
X125000000Y-102095000D03*
X124600000Y-102095000D03*
X124200000Y-102095000D03*
X123800000Y-102095000D03*
X123400000Y-102095000D03*
X123000000Y-102095000D03*
X122600000Y-102095000D03*
X122200000Y-102095000D03*
X121800000Y-102095000D03*
X121400000Y-102095000D03*
X121000000Y-102095000D03*
X120600000Y-102095000D03*
X120200000Y-102095000D03*
D25*
X119362500Y-102932500D03*
X119362500Y-103332500D03*
X119362500Y-103732500D03*
X119362500Y-104132500D03*
X119362500Y-104532500D03*
X119362500Y-104932500D03*
X119362500Y-105332500D03*
X119362500Y-105732500D03*
X119362500Y-106132500D03*
X119362500Y-106532500D03*
X119362500Y-106932500D03*
X119362500Y-107332500D03*
X119362500Y-107732500D03*
X119362500Y-108132500D03*
D26*
X122800000Y-105532500D03*
%TD*%
D27*
%TO.C,R8*%
X111925000Y-101500000D03*
X110275000Y-101500000D03*
%TD*%
D28*
%TO.C,C15*%
X126925000Y-120600000D03*
X128475000Y-120600000D03*
%TD*%
D13*
%TO.C,C9*%
X121550000Y-112630000D03*
X120000000Y-112630000D03*
%TD*%
D29*
%TO.C,D3*%
X107325000Y-101500000D03*
X108900000Y-101500000D03*
%TD*%
D30*
%TO.C,U4*%
X119987500Y-120275000D03*
X119987500Y-121225000D03*
X119987500Y-122175000D03*
X122262500Y-122175000D03*
X122262500Y-121225000D03*
X122262500Y-120275000D03*
%TD*%
D17*
%TO.C,C2*%
X118010000Y-114800000D03*
X118010000Y-116350000D03*
%TD*%
D13*
%TO.C,C7*%
X124600000Y-115615000D03*
X123050000Y-115615000D03*
%TD*%
%TO.C,C13*%
X137875000Y-123200000D03*
X136325000Y-123200000D03*
%TD*%
D31*
%TO.C,Y1*%
X128200000Y-110400000D03*
X128200000Y-112700000D03*
X130000000Y-112700000D03*
X130000000Y-110400000D03*
%TD*%
D10*
%TO.C,R2*%
X106275000Y-118600000D03*
X107925000Y-118600000D03*
%TD*%
D13*
%TO.C,C12*%
X124600000Y-112615000D03*
X123050000Y-112615000D03*
%TD*%
D27*
%TO.C,R5*%
X111925000Y-104500000D03*
X110275000Y-104500000D03*
%TD*%
D28*
%TO.C,C4*%
X120187500Y-123725000D03*
X121737500Y-123725000D03*
%TD*%
D10*
%TO.C,R4*%
X114275000Y-103532500D03*
X115925000Y-103532500D03*
%TD*%
%TO.C,R7*%
X138450000Y-101600000D03*
X140100000Y-101600000D03*
%TD*%
%TO.C,R1*%
X106275000Y-106420000D03*
X107925000Y-106420000D03*
%TD*%
D17*
%TO.C,C6*%
X126455000Y-110750000D03*
X126455000Y-112300000D03*
%TD*%
D32*
%TO.C,L1*%
X124562500Y-117875000D03*
X121362500Y-117875000D03*
%TD*%
D13*
%TO.C,C10*%
X121550000Y-115630000D03*
X120000000Y-115630000D03*
%TD*%
D10*
%TO.C,R3*%
X114275000Y-105032500D03*
X115925000Y-105032500D03*
%TD*%
D27*
%TO.C,R6*%
X111925000Y-103000000D03*
X110275000Y-103000000D03*
%TD*%
D28*
%TO.C,C14*%
X126925000Y-119100000D03*
X128475000Y-119100000D03*
%TD*%
D29*
%TO.C,D1*%
X107325000Y-104500000D03*
X108900000Y-104500000D03*
%TD*%
D13*
%TO.C,C11*%
X121550000Y-114120000D03*
X120000000Y-114120000D03*
%TD*%
D29*
%TO.C,D2*%
X107325000Y-103000000D03*
X108900000Y-103000000D03*
%TD*%
D33*
%TO.C,J1*%
X151937500Y-108250000D03*
X151937500Y-116750000D03*
%TD*%
M02*
