%TF.GenerationSoftware,KiCad,Pcbnew,8.0.5-dirty*%
%TF.CreationDate,2024-10-01T21:11:00+10:00*%
%TF.ProjectId,kestral,6b657374-7261-46c2-9e6b-696361645f70,rev?*%
%TF.SameCoordinates,Original*%
%TF.FileFunction,Paste,Bot*%
%TF.FilePolarity,Positive*%
%FSLAX46Y46*%
G04 Gerber Fmt 4.6, Leading zero omitted, Abs format (unit mm)*
G04 Created by KiCad (PCBNEW 8.0.5-dirty) date 2024-10-01 21:11:00*
%MOMM*%
%LPD*%
G01*
G04 APERTURE LIST*
%ADD10C,0.010000*%
%ADD11R,5.080000X1.500000*%
G04 APERTURE END LIST*
D10*
%TO.C,U1*%
X130852000Y-103153000D02*
X130904000Y-103161000D01*
X130955000Y-103174000D01*
X131003000Y-103193000D01*
X131050000Y-103217000D01*
X131094000Y-103245000D01*
X131135000Y-103278000D01*
X131172000Y-103315000D01*
X131205000Y-103356000D01*
X131233000Y-103400000D01*
X131257000Y-103447000D01*
X131276000Y-103495000D01*
X131289000Y-103546000D01*
X131297000Y-103598000D01*
X131300000Y-103650000D01*
X131300000Y-105450000D01*
X131297000Y-105502000D01*
X131289000Y-105554000D01*
X131276000Y-105605000D01*
X131257000Y-105653000D01*
X131233000Y-105700000D01*
X131205000Y-105744000D01*
X131172000Y-105785000D01*
X131135000Y-105822000D01*
X131094000Y-105855000D01*
X131050000Y-105883000D01*
X131003000Y-105907000D01*
X130955000Y-105926000D01*
X130904000Y-105939000D01*
X130852000Y-105947000D01*
X130800000Y-105950000D01*
X130748000Y-105947000D01*
X130696000Y-105939000D01*
X130645000Y-105926000D01*
X130597000Y-105907000D01*
X130550000Y-105883000D01*
X130506000Y-105855000D01*
X130465000Y-105822000D01*
X130428000Y-105785000D01*
X130395000Y-105744000D01*
X130367000Y-105700000D01*
X130343000Y-105653000D01*
X130324000Y-105605000D01*
X130311000Y-105554000D01*
X130303000Y-105502000D01*
X130300000Y-105450000D01*
X130300000Y-103650000D01*
X130303000Y-103598000D01*
X130311000Y-103546000D01*
X130324000Y-103495000D01*
X130343000Y-103447000D01*
X130367000Y-103400000D01*
X130395000Y-103356000D01*
X130428000Y-103315000D01*
X130465000Y-103278000D01*
X130506000Y-103245000D01*
X130550000Y-103217000D01*
X130597000Y-103193000D01*
X130645000Y-103174000D01*
X130696000Y-103161000D01*
X130748000Y-103153000D01*
X130800000Y-103150000D01*
X130852000Y-103153000D01*
G36*
X130852000Y-103153000D02*
G01*
X130904000Y-103161000D01*
X130955000Y-103174000D01*
X131003000Y-103193000D01*
X131050000Y-103217000D01*
X131094000Y-103245000D01*
X131135000Y-103278000D01*
X131172000Y-103315000D01*
X131205000Y-103356000D01*
X131233000Y-103400000D01*
X131257000Y-103447000D01*
X131276000Y-103495000D01*
X131289000Y-103546000D01*
X131297000Y-103598000D01*
X131300000Y-103650000D01*
X131300000Y-105450000D01*
X131297000Y-105502000D01*
X131289000Y-105554000D01*
X131276000Y-105605000D01*
X131257000Y-105653000D01*
X131233000Y-105700000D01*
X131205000Y-105744000D01*
X131172000Y-105785000D01*
X131135000Y-105822000D01*
X131094000Y-105855000D01*
X131050000Y-105883000D01*
X131003000Y-105907000D01*
X130955000Y-105926000D01*
X130904000Y-105939000D01*
X130852000Y-105947000D01*
X130800000Y-105950000D01*
X130748000Y-105947000D01*
X130696000Y-105939000D01*
X130645000Y-105926000D01*
X130597000Y-105907000D01*
X130550000Y-105883000D01*
X130506000Y-105855000D01*
X130465000Y-105822000D01*
X130428000Y-105785000D01*
X130395000Y-105744000D01*
X130367000Y-105700000D01*
X130343000Y-105653000D01*
X130324000Y-105605000D01*
X130311000Y-105554000D01*
X130303000Y-105502000D01*
X130300000Y-105450000D01*
X130300000Y-103650000D01*
X130303000Y-103598000D01*
X130311000Y-103546000D01*
X130324000Y-103495000D01*
X130343000Y-103447000D01*
X130367000Y-103400000D01*
X130395000Y-103356000D01*
X130428000Y-103315000D01*
X130465000Y-103278000D01*
X130506000Y-103245000D01*
X130550000Y-103217000D01*
X130597000Y-103193000D01*
X130645000Y-103174000D01*
X130696000Y-103161000D01*
X130748000Y-103153000D01*
X130800000Y-103150000D01*
X130852000Y-103153000D01*
G37*
X133392000Y-103153000D02*
X133444000Y-103161000D01*
X133495000Y-103174000D01*
X133543000Y-103193000D01*
X133590000Y-103217000D01*
X133634000Y-103245000D01*
X133675000Y-103278000D01*
X133712000Y-103315000D01*
X133745000Y-103356000D01*
X133773000Y-103400000D01*
X133797000Y-103447000D01*
X133816000Y-103495000D01*
X133829000Y-103546000D01*
X133837000Y-103598000D01*
X133840000Y-103650000D01*
X133840000Y-105450000D01*
X133837000Y-105502000D01*
X133829000Y-105554000D01*
X133816000Y-105605000D01*
X133797000Y-105653000D01*
X133773000Y-105700000D01*
X133745000Y-105744000D01*
X133712000Y-105785000D01*
X133675000Y-105822000D01*
X133634000Y-105855000D01*
X133590000Y-105883000D01*
X133543000Y-105907000D01*
X133495000Y-105926000D01*
X133444000Y-105939000D01*
X133392000Y-105947000D01*
X133340000Y-105950000D01*
X133288000Y-105947000D01*
X133236000Y-105939000D01*
X133185000Y-105926000D01*
X133137000Y-105907000D01*
X133090000Y-105883000D01*
X133046000Y-105855000D01*
X133005000Y-105822000D01*
X132968000Y-105785000D01*
X132935000Y-105744000D01*
X132907000Y-105700000D01*
X132883000Y-105653000D01*
X132864000Y-105605000D01*
X132851000Y-105554000D01*
X132843000Y-105502000D01*
X132840000Y-105450000D01*
X132840000Y-103650000D01*
X132843000Y-103598000D01*
X132851000Y-103546000D01*
X132864000Y-103495000D01*
X132883000Y-103447000D01*
X132907000Y-103400000D01*
X132935000Y-103356000D01*
X132968000Y-103315000D01*
X133005000Y-103278000D01*
X133046000Y-103245000D01*
X133090000Y-103217000D01*
X133137000Y-103193000D01*
X133185000Y-103174000D01*
X133236000Y-103161000D01*
X133288000Y-103153000D01*
X133340000Y-103150000D01*
X133392000Y-103153000D01*
G36*
X133392000Y-103153000D02*
G01*
X133444000Y-103161000D01*
X133495000Y-103174000D01*
X133543000Y-103193000D01*
X133590000Y-103217000D01*
X133634000Y-103245000D01*
X133675000Y-103278000D01*
X133712000Y-103315000D01*
X133745000Y-103356000D01*
X133773000Y-103400000D01*
X133797000Y-103447000D01*
X133816000Y-103495000D01*
X133829000Y-103546000D01*
X133837000Y-103598000D01*
X133840000Y-103650000D01*
X133840000Y-105450000D01*
X133837000Y-105502000D01*
X133829000Y-105554000D01*
X133816000Y-105605000D01*
X133797000Y-105653000D01*
X133773000Y-105700000D01*
X133745000Y-105744000D01*
X133712000Y-105785000D01*
X133675000Y-105822000D01*
X133634000Y-105855000D01*
X133590000Y-105883000D01*
X133543000Y-105907000D01*
X133495000Y-105926000D01*
X133444000Y-105939000D01*
X133392000Y-105947000D01*
X133340000Y-105950000D01*
X133288000Y-105947000D01*
X133236000Y-105939000D01*
X133185000Y-105926000D01*
X133137000Y-105907000D01*
X133090000Y-105883000D01*
X133046000Y-105855000D01*
X133005000Y-105822000D01*
X132968000Y-105785000D01*
X132935000Y-105744000D01*
X132907000Y-105700000D01*
X132883000Y-105653000D01*
X132864000Y-105605000D01*
X132851000Y-105554000D01*
X132843000Y-105502000D01*
X132840000Y-105450000D01*
X132840000Y-103650000D01*
X132843000Y-103598000D01*
X132851000Y-103546000D01*
X132864000Y-103495000D01*
X132883000Y-103447000D01*
X132907000Y-103400000D01*
X132935000Y-103356000D01*
X132968000Y-103315000D01*
X133005000Y-103278000D01*
X133046000Y-103245000D01*
X133090000Y-103217000D01*
X133137000Y-103193000D01*
X133185000Y-103174000D01*
X133236000Y-103161000D01*
X133288000Y-103153000D01*
X133340000Y-103150000D01*
X133392000Y-103153000D01*
G37*
X135932000Y-103153000D02*
X135984000Y-103161000D01*
X136035000Y-103174000D01*
X136083000Y-103193000D01*
X136130000Y-103217000D01*
X136174000Y-103245000D01*
X136215000Y-103278000D01*
X136252000Y-103315000D01*
X136285000Y-103356000D01*
X136313000Y-103400000D01*
X136337000Y-103447000D01*
X136356000Y-103495000D01*
X136369000Y-103546000D01*
X136377000Y-103598000D01*
X136380000Y-103650000D01*
X136380000Y-105450000D01*
X136377000Y-105502000D01*
X136369000Y-105554000D01*
X136356000Y-105605000D01*
X136337000Y-105653000D01*
X136313000Y-105700000D01*
X136285000Y-105744000D01*
X136252000Y-105785000D01*
X136215000Y-105822000D01*
X136174000Y-105855000D01*
X136130000Y-105883000D01*
X136083000Y-105907000D01*
X136035000Y-105926000D01*
X135984000Y-105939000D01*
X135932000Y-105947000D01*
X135880000Y-105950000D01*
X135828000Y-105947000D01*
X135776000Y-105939000D01*
X135725000Y-105926000D01*
X135677000Y-105907000D01*
X135630000Y-105883000D01*
X135586000Y-105855000D01*
X135545000Y-105822000D01*
X135508000Y-105785000D01*
X135475000Y-105744000D01*
X135447000Y-105700000D01*
X135423000Y-105653000D01*
X135404000Y-105605000D01*
X135391000Y-105554000D01*
X135383000Y-105502000D01*
X135380000Y-105450000D01*
X135380000Y-103650000D01*
X135383000Y-103598000D01*
X135391000Y-103546000D01*
X135404000Y-103495000D01*
X135423000Y-103447000D01*
X135447000Y-103400000D01*
X135475000Y-103356000D01*
X135508000Y-103315000D01*
X135545000Y-103278000D01*
X135586000Y-103245000D01*
X135630000Y-103217000D01*
X135677000Y-103193000D01*
X135725000Y-103174000D01*
X135776000Y-103161000D01*
X135828000Y-103153000D01*
X135880000Y-103150000D01*
X135932000Y-103153000D01*
G36*
X135932000Y-103153000D02*
G01*
X135984000Y-103161000D01*
X136035000Y-103174000D01*
X136083000Y-103193000D01*
X136130000Y-103217000D01*
X136174000Y-103245000D01*
X136215000Y-103278000D01*
X136252000Y-103315000D01*
X136285000Y-103356000D01*
X136313000Y-103400000D01*
X136337000Y-103447000D01*
X136356000Y-103495000D01*
X136369000Y-103546000D01*
X136377000Y-103598000D01*
X136380000Y-103650000D01*
X136380000Y-105450000D01*
X136377000Y-105502000D01*
X136369000Y-105554000D01*
X136356000Y-105605000D01*
X136337000Y-105653000D01*
X136313000Y-105700000D01*
X136285000Y-105744000D01*
X136252000Y-105785000D01*
X136215000Y-105822000D01*
X136174000Y-105855000D01*
X136130000Y-105883000D01*
X136083000Y-105907000D01*
X136035000Y-105926000D01*
X135984000Y-105939000D01*
X135932000Y-105947000D01*
X135880000Y-105950000D01*
X135828000Y-105947000D01*
X135776000Y-105939000D01*
X135725000Y-105926000D01*
X135677000Y-105907000D01*
X135630000Y-105883000D01*
X135586000Y-105855000D01*
X135545000Y-105822000D01*
X135508000Y-105785000D01*
X135475000Y-105744000D01*
X135447000Y-105700000D01*
X135423000Y-105653000D01*
X135404000Y-105605000D01*
X135391000Y-105554000D01*
X135383000Y-105502000D01*
X135380000Y-105450000D01*
X135380000Y-103650000D01*
X135383000Y-103598000D01*
X135391000Y-103546000D01*
X135404000Y-103495000D01*
X135423000Y-103447000D01*
X135447000Y-103400000D01*
X135475000Y-103356000D01*
X135508000Y-103315000D01*
X135545000Y-103278000D01*
X135586000Y-103245000D01*
X135630000Y-103217000D01*
X135677000Y-103193000D01*
X135725000Y-103174000D01*
X135776000Y-103161000D01*
X135828000Y-103153000D01*
X135880000Y-103150000D01*
X135932000Y-103153000D01*
G37*
X138472000Y-103153000D02*
X138524000Y-103161000D01*
X138575000Y-103174000D01*
X138623000Y-103193000D01*
X138670000Y-103217000D01*
X138714000Y-103245000D01*
X138755000Y-103278000D01*
X138792000Y-103315000D01*
X138825000Y-103356000D01*
X138853000Y-103400000D01*
X138877000Y-103447000D01*
X138896000Y-103495000D01*
X138909000Y-103546000D01*
X138917000Y-103598000D01*
X138920000Y-103650000D01*
X138920000Y-105450000D01*
X138917000Y-105502000D01*
X138909000Y-105554000D01*
X138896000Y-105605000D01*
X138877000Y-105653000D01*
X138853000Y-105700000D01*
X138825000Y-105744000D01*
X138792000Y-105785000D01*
X138755000Y-105822000D01*
X138714000Y-105855000D01*
X138670000Y-105883000D01*
X138623000Y-105907000D01*
X138575000Y-105926000D01*
X138524000Y-105939000D01*
X138472000Y-105947000D01*
X138420000Y-105950000D01*
X138368000Y-105947000D01*
X138316000Y-105939000D01*
X138265000Y-105926000D01*
X138217000Y-105907000D01*
X138170000Y-105883000D01*
X138126000Y-105855000D01*
X138085000Y-105822000D01*
X138048000Y-105785000D01*
X138015000Y-105744000D01*
X137987000Y-105700000D01*
X137963000Y-105653000D01*
X137944000Y-105605000D01*
X137931000Y-105554000D01*
X137923000Y-105502000D01*
X137920000Y-105450000D01*
X137920000Y-103650000D01*
X137923000Y-103598000D01*
X137931000Y-103546000D01*
X137944000Y-103495000D01*
X137963000Y-103447000D01*
X137987000Y-103400000D01*
X138015000Y-103356000D01*
X138048000Y-103315000D01*
X138085000Y-103278000D01*
X138126000Y-103245000D01*
X138170000Y-103217000D01*
X138217000Y-103193000D01*
X138265000Y-103174000D01*
X138316000Y-103161000D01*
X138368000Y-103153000D01*
X138420000Y-103150000D01*
X138472000Y-103153000D01*
G36*
X138472000Y-103153000D02*
G01*
X138524000Y-103161000D01*
X138575000Y-103174000D01*
X138623000Y-103193000D01*
X138670000Y-103217000D01*
X138714000Y-103245000D01*
X138755000Y-103278000D01*
X138792000Y-103315000D01*
X138825000Y-103356000D01*
X138853000Y-103400000D01*
X138877000Y-103447000D01*
X138896000Y-103495000D01*
X138909000Y-103546000D01*
X138917000Y-103598000D01*
X138920000Y-103650000D01*
X138920000Y-105450000D01*
X138917000Y-105502000D01*
X138909000Y-105554000D01*
X138896000Y-105605000D01*
X138877000Y-105653000D01*
X138853000Y-105700000D01*
X138825000Y-105744000D01*
X138792000Y-105785000D01*
X138755000Y-105822000D01*
X138714000Y-105855000D01*
X138670000Y-105883000D01*
X138623000Y-105907000D01*
X138575000Y-105926000D01*
X138524000Y-105939000D01*
X138472000Y-105947000D01*
X138420000Y-105950000D01*
X138368000Y-105947000D01*
X138316000Y-105939000D01*
X138265000Y-105926000D01*
X138217000Y-105907000D01*
X138170000Y-105883000D01*
X138126000Y-105855000D01*
X138085000Y-105822000D01*
X138048000Y-105785000D01*
X138015000Y-105744000D01*
X137987000Y-105700000D01*
X137963000Y-105653000D01*
X137944000Y-105605000D01*
X137931000Y-105554000D01*
X137923000Y-105502000D01*
X137920000Y-105450000D01*
X137920000Y-103650000D01*
X137923000Y-103598000D01*
X137931000Y-103546000D01*
X137944000Y-103495000D01*
X137963000Y-103447000D01*
X137987000Y-103400000D01*
X138015000Y-103356000D01*
X138048000Y-103315000D01*
X138085000Y-103278000D01*
X138126000Y-103245000D01*
X138170000Y-103217000D01*
X138217000Y-103193000D01*
X138265000Y-103174000D01*
X138316000Y-103161000D01*
X138368000Y-103153000D01*
X138420000Y-103150000D01*
X138472000Y-103153000D01*
G37*
X141012000Y-103153000D02*
X141064000Y-103161000D01*
X141115000Y-103174000D01*
X141163000Y-103193000D01*
X141210000Y-103217000D01*
X141254000Y-103245000D01*
X141295000Y-103278000D01*
X141332000Y-103315000D01*
X141365000Y-103356000D01*
X141393000Y-103400000D01*
X141417000Y-103447000D01*
X141436000Y-103495000D01*
X141449000Y-103546000D01*
X141457000Y-103598000D01*
X141460000Y-103650000D01*
X141460000Y-105450000D01*
X141457000Y-105502000D01*
X141449000Y-105554000D01*
X141436000Y-105605000D01*
X141417000Y-105653000D01*
X141393000Y-105700000D01*
X141365000Y-105744000D01*
X141332000Y-105785000D01*
X141295000Y-105822000D01*
X141254000Y-105855000D01*
X141210000Y-105883000D01*
X141163000Y-105907000D01*
X141115000Y-105926000D01*
X141064000Y-105939000D01*
X141012000Y-105947000D01*
X140960000Y-105950000D01*
X140908000Y-105947000D01*
X140856000Y-105939000D01*
X140805000Y-105926000D01*
X140757000Y-105907000D01*
X140710000Y-105883000D01*
X140666000Y-105855000D01*
X140625000Y-105822000D01*
X140588000Y-105785000D01*
X140555000Y-105744000D01*
X140527000Y-105700000D01*
X140503000Y-105653000D01*
X140484000Y-105605000D01*
X140471000Y-105554000D01*
X140463000Y-105502000D01*
X140460000Y-105450000D01*
X140460000Y-103650000D01*
X140463000Y-103598000D01*
X140471000Y-103546000D01*
X140484000Y-103495000D01*
X140503000Y-103447000D01*
X140527000Y-103400000D01*
X140555000Y-103356000D01*
X140588000Y-103315000D01*
X140625000Y-103278000D01*
X140666000Y-103245000D01*
X140710000Y-103217000D01*
X140757000Y-103193000D01*
X140805000Y-103174000D01*
X140856000Y-103161000D01*
X140908000Y-103153000D01*
X140960000Y-103150000D01*
X141012000Y-103153000D01*
G36*
X141012000Y-103153000D02*
G01*
X141064000Y-103161000D01*
X141115000Y-103174000D01*
X141163000Y-103193000D01*
X141210000Y-103217000D01*
X141254000Y-103245000D01*
X141295000Y-103278000D01*
X141332000Y-103315000D01*
X141365000Y-103356000D01*
X141393000Y-103400000D01*
X141417000Y-103447000D01*
X141436000Y-103495000D01*
X141449000Y-103546000D01*
X141457000Y-103598000D01*
X141460000Y-103650000D01*
X141460000Y-105450000D01*
X141457000Y-105502000D01*
X141449000Y-105554000D01*
X141436000Y-105605000D01*
X141417000Y-105653000D01*
X141393000Y-105700000D01*
X141365000Y-105744000D01*
X141332000Y-105785000D01*
X141295000Y-105822000D01*
X141254000Y-105855000D01*
X141210000Y-105883000D01*
X141163000Y-105907000D01*
X141115000Y-105926000D01*
X141064000Y-105939000D01*
X141012000Y-105947000D01*
X140960000Y-105950000D01*
X140908000Y-105947000D01*
X140856000Y-105939000D01*
X140805000Y-105926000D01*
X140757000Y-105907000D01*
X140710000Y-105883000D01*
X140666000Y-105855000D01*
X140625000Y-105822000D01*
X140588000Y-105785000D01*
X140555000Y-105744000D01*
X140527000Y-105700000D01*
X140503000Y-105653000D01*
X140484000Y-105605000D01*
X140471000Y-105554000D01*
X140463000Y-105502000D01*
X140460000Y-105450000D01*
X140460000Y-103650000D01*
X140463000Y-103598000D01*
X140471000Y-103546000D01*
X140484000Y-103495000D01*
X140503000Y-103447000D01*
X140527000Y-103400000D01*
X140555000Y-103356000D01*
X140588000Y-103315000D01*
X140625000Y-103278000D01*
X140666000Y-103245000D01*
X140710000Y-103217000D01*
X140757000Y-103193000D01*
X140805000Y-103174000D01*
X140856000Y-103161000D01*
X140908000Y-103153000D01*
X140960000Y-103150000D01*
X141012000Y-103153000D01*
G37*
X143552000Y-103153000D02*
X143604000Y-103161000D01*
X143655000Y-103174000D01*
X143703000Y-103193000D01*
X143750000Y-103217000D01*
X143794000Y-103245000D01*
X143835000Y-103278000D01*
X143872000Y-103315000D01*
X143905000Y-103356000D01*
X143933000Y-103400000D01*
X143957000Y-103447000D01*
X143976000Y-103495000D01*
X143989000Y-103546000D01*
X143997000Y-103598000D01*
X144000000Y-103650000D01*
X144000000Y-105450000D01*
X143997000Y-105502000D01*
X143989000Y-105554000D01*
X143976000Y-105605000D01*
X143957000Y-105653000D01*
X143933000Y-105700000D01*
X143905000Y-105744000D01*
X143872000Y-105785000D01*
X143835000Y-105822000D01*
X143794000Y-105855000D01*
X143750000Y-105883000D01*
X143703000Y-105907000D01*
X143655000Y-105926000D01*
X143604000Y-105939000D01*
X143552000Y-105947000D01*
X143500000Y-105950000D01*
X143448000Y-105947000D01*
X143396000Y-105939000D01*
X143345000Y-105926000D01*
X143297000Y-105907000D01*
X143250000Y-105883000D01*
X143206000Y-105855000D01*
X143165000Y-105822000D01*
X143128000Y-105785000D01*
X143095000Y-105744000D01*
X143067000Y-105700000D01*
X143043000Y-105653000D01*
X143024000Y-105605000D01*
X143011000Y-105554000D01*
X143003000Y-105502000D01*
X143000000Y-105450000D01*
X143000000Y-103650000D01*
X143003000Y-103598000D01*
X143011000Y-103546000D01*
X143024000Y-103495000D01*
X143043000Y-103447000D01*
X143067000Y-103400000D01*
X143095000Y-103356000D01*
X143128000Y-103315000D01*
X143165000Y-103278000D01*
X143206000Y-103245000D01*
X143250000Y-103217000D01*
X143297000Y-103193000D01*
X143345000Y-103174000D01*
X143396000Y-103161000D01*
X143448000Y-103153000D01*
X143500000Y-103150000D01*
X143552000Y-103153000D01*
G36*
X143552000Y-103153000D02*
G01*
X143604000Y-103161000D01*
X143655000Y-103174000D01*
X143703000Y-103193000D01*
X143750000Y-103217000D01*
X143794000Y-103245000D01*
X143835000Y-103278000D01*
X143872000Y-103315000D01*
X143905000Y-103356000D01*
X143933000Y-103400000D01*
X143957000Y-103447000D01*
X143976000Y-103495000D01*
X143989000Y-103546000D01*
X143997000Y-103598000D01*
X144000000Y-103650000D01*
X144000000Y-105450000D01*
X143997000Y-105502000D01*
X143989000Y-105554000D01*
X143976000Y-105605000D01*
X143957000Y-105653000D01*
X143933000Y-105700000D01*
X143905000Y-105744000D01*
X143872000Y-105785000D01*
X143835000Y-105822000D01*
X143794000Y-105855000D01*
X143750000Y-105883000D01*
X143703000Y-105907000D01*
X143655000Y-105926000D01*
X143604000Y-105939000D01*
X143552000Y-105947000D01*
X143500000Y-105950000D01*
X143448000Y-105947000D01*
X143396000Y-105939000D01*
X143345000Y-105926000D01*
X143297000Y-105907000D01*
X143250000Y-105883000D01*
X143206000Y-105855000D01*
X143165000Y-105822000D01*
X143128000Y-105785000D01*
X143095000Y-105744000D01*
X143067000Y-105700000D01*
X143043000Y-105653000D01*
X143024000Y-105605000D01*
X143011000Y-105554000D01*
X143003000Y-105502000D01*
X143000000Y-105450000D01*
X143000000Y-103650000D01*
X143003000Y-103598000D01*
X143011000Y-103546000D01*
X143024000Y-103495000D01*
X143043000Y-103447000D01*
X143067000Y-103400000D01*
X143095000Y-103356000D01*
X143128000Y-103315000D01*
X143165000Y-103278000D01*
X143206000Y-103245000D01*
X143250000Y-103217000D01*
X143297000Y-103193000D01*
X143345000Y-103174000D01*
X143396000Y-103161000D01*
X143448000Y-103153000D01*
X143500000Y-103150000D01*
X143552000Y-103153000D01*
G37*
X130852000Y-119153000D02*
X130904000Y-119161000D01*
X130955000Y-119174000D01*
X131003000Y-119193000D01*
X131050000Y-119217000D01*
X131094000Y-119245000D01*
X131135000Y-119278000D01*
X131172000Y-119315000D01*
X131205000Y-119356000D01*
X131233000Y-119400000D01*
X131257000Y-119447000D01*
X131276000Y-119495000D01*
X131289000Y-119546000D01*
X131297000Y-119598000D01*
X131300000Y-119650000D01*
X131300000Y-119750000D01*
X131300000Y-120550000D01*
X131300000Y-121450000D01*
X131297000Y-121502000D01*
X131289000Y-121554000D01*
X131276000Y-121605000D01*
X131257000Y-121653000D01*
X131233000Y-121700000D01*
X131205000Y-121744000D01*
X131172000Y-121785000D01*
X131135000Y-121822000D01*
X131094000Y-121855000D01*
X131050000Y-121883000D01*
X131003000Y-121907000D01*
X130955000Y-121926000D01*
X130904000Y-121939000D01*
X130852000Y-121947000D01*
X130800000Y-121950000D01*
X130748000Y-121947000D01*
X130696000Y-121939000D01*
X130645000Y-121926000D01*
X130597000Y-121907000D01*
X130550000Y-121883000D01*
X130506000Y-121855000D01*
X130465000Y-121822000D01*
X130428000Y-121785000D01*
X130395000Y-121744000D01*
X130367000Y-121700000D01*
X130343000Y-121653000D01*
X130324000Y-121605000D01*
X130311000Y-121554000D01*
X130303000Y-121502000D01*
X130300000Y-121450000D01*
X130300000Y-119650000D01*
X130303000Y-119598000D01*
X130311000Y-119546000D01*
X130324000Y-119495000D01*
X130343000Y-119447000D01*
X130367000Y-119400000D01*
X130395000Y-119356000D01*
X130428000Y-119315000D01*
X130465000Y-119278000D01*
X130506000Y-119245000D01*
X130550000Y-119217000D01*
X130597000Y-119193000D01*
X130645000Y-119174000D01*
X130696000Y-119161000D01*
X130748000Y-119153000D01*
X130800000Y-119150000D01*
X130852000Y-119153000D01*
G36*
X130852000Y-119153000D02*
G01*
X130904000Y-119161000D01*
X130955000Y-119174000D01*
X131003000Y-119193000D01*
X131050000Y-119217000D01*
X131094000Y-119245000D01*
X131135000Y-119278000D01*
X131172000Y-119315000D01*
X131205000Y-119356000D01*
X131233000Y-119400000D01*
X131257000Y-119447000D01*
X131276000Y-119495000D01*
X131289000Y-119546000D01*
X131297000Y-119598000D01*
X131300000Y-119650000D01*
X131300000Y-119750000D01*
X131300000Y-120550000D01*
X131300000Y-121450000D01*
X131297000Y-121502000D01*
X131289000Y-121554000D01*
X131276000Y-121605000D01*
X131257000Y-121653000D01*
X131233000Y-121700000D01*
X131205000Y-121744000D01*
X131172000Y-121785000D01*
X131135000Y-121822000D01*
X131094000Y-121855000D01*
X131050000Y-121883000D01*
X131003000Y-121907000D01*
X130955000Y-121926000D01*
X130904000Y-121939000D01*
X130852000Y-121947000D01*
X130800000Y-121950000D01*
X130748000Y-121947000D01*
X130696000Y-121939000D01*
X130645000Y-121926000D01*
X130597000Y-121907000D01*
X130550000Y-121883000D01*
X130506000Y-121855000D01*
X130465000Y-121822000D01*
X130428000Y-121785000D01*
X130395000Y-121744000D01*
X130367000Y-121700000D01*
X130343000Y-121653000D01*
X130324000Y-121605000D01*
X130311000Y-121554000D01*
X130303000Y-121502000D01*
X130300000Y-121450000D01*
X130300000Y-119650000D01*
X130303000Y-119598000D01*
X130311000Y-119546000D01*
X130324000Y-119495000D01*
X130343000Y-119447000D01*
X130367000Y-119400000D01*
X130395000Y-119356000D01*
X130428000Y-119315000D01*
X130465000Y-119278000D01*
X130506000Y-119245000D01*
X130550000Y-119217000D01*
X130597000Y-119193000D01*
X130645000Y-119174000D01*
X130696000Y-119161000D01*
X130748000Y-119153000D01*
X130800000Y-119150000D01*
X130852000Y-119153000D01*
G37*
X133392000Y-119153000D02*
X133444000Y-119161000D01*
X133495000Y-119174000D01*
X133543000Y-119193000D01*
X133590000Y-119217000D01*
X133634000Y-119245000D01*
X133675000Y-119278000D01*
X133712000Y-119315000D01*
X133745000Y-119356000D01*
X133773000Y-119400000D01*
X133797000Y-119447000D01*
X133816000Y-119495000D01*
X133829000Y-119546000D01*
X133837000Y-119598000D01*
X133840000Y-119650000D01*
X133840000Y-119750000D01*
X133840000Y-120550000D01*
X133840000Y-121450000D01*
X133837000Y-121502000D01*
X133829000Y-121554000D01*
X133816000Y-121605000D01*
X133797000Y-121653000D01*
X133773000Y-121700000D01*
X133745000Y-121744000D01*
X133712000Y-121785000D01*
X133675000Y-121822000D01*
X133634000Y-121855000D01*
X133590000Y-121883000D01*
X133543000Y-121907000D01*
X133495000Y-121926000D01*
X133444000Y-121939000D01*
X133392000Y-121947000D01*
X133340000Y-121950000D01*
X133288000Y-121947000D01*
X133236000Y-121939000D01*
X133185000Y-121926000D01*
X133137000Y-121907000D01*
X133090000Y-121883000D01*
X133046000Y-121855000D01*
X133005000Y-121822000D01*
X132968000Y-121785000D01*
X132935000Y-121744000D01*
X132907000Y-121700000D01*
X132883000Y-121653000D01*
X132864000Y-121605000D01*
X132851000Y-121554000D01*
X132843000Y-121502000D01*
X132840000Y-121450000D01*
X132840000Y-119650000D01*
X132843000Y-119598000D01*
X132851000Y-119546000D01*
X132864000Y-119495000D01*
X132883000Y-119447000D01*
X132907000Y-119400000D01*
X132935000Y-119356000D01*
X132968000Y-119315000D01*
X133005000Y-119278000D01*
X133046000Y-119245000D01*
X133090000Y-119217000D01*
X133137000Y-119193000D01*
X133185000Y-119174000D01*
X133236000Y-119161000D01*
X133288000Y-119153000D01*
X133340000Y-119150000D01*
X133392000Y-119153000D01*
G36*
X133392000Y-119153000D02*
G01*
X133444000Y-119161000D01*
X133495000Y-119174000D01*
X133543000Y-119193000D01*
X133590000Y-119217000D01*
X133634000Y-119245000D01*
X133675000Y-119278000D01*
X133712000Y-119315000D01*
X133745000Y-119356000D01*
X133773000Y-119400000D01*
X133797000Y-119447000D01*
X133816000Y-119495000D01*
X133829000Y-119546000D01*
X133837000Y-119598000D01*
X133840000Y-119650000D01*
X133840000Y-119750000D01*
X133840000Y-120550000D01*
X133840000Y-121450000D01*
X133837000Y-121502000D01*
X133829000Y-121554000D01*
X133816000Y-121605000D01*
X133797000Y-121653000D01*
X133773000Y-121700000D01*
X133745000Y-121744000D01*
X133712000Y-121785000D01*
X133675000Y-121822000D01*
X133634000Y-121855000D01*
X133590000Y-121883000D01*
X133543000Y-121907000D01*
X133495000Y-121926000D01*
X133444000Y-121939000D01*
X133392000Y-121947000D01*
X133340000Y-121950000D01*
X133288000Y-121947000D01*
X133236000Y-121939000D01*
X133185000Y-121926000D01*
X133137000Y-121907000D01*
X133090000Y-121883000D01*
X133046000Y-121855000D01*
X133005000Y-121822000D01*
X132968000Y-121785000D01*
X132935000Y-121744000D01*
X132907000Y-121700000D01*
X132883000Y-121653000D01*
X132864000Y-121605000D01*
X132851000Y-121554000D01*
X132843000Y-121502000D01*
X132840000Y-121450000D01*
X132840000Y-119650000D01*
X132843000Y-119598000D01*
X132851000Y-119546000D01*
X132864000Y-119495000D01*
X132883000Y-119447000D01*
X132907000Y-119400000D01*
X132935000Y-119356000D01*
X132968000Y-119315000D01*
X133005000Y-119278000D01*
X133046000Y-119245000D01*
X133090000Y-119217000D01*
X133137000Y-119193000D01*
X133185000Y-119174000D01*
X133236000Y-119161000D01*
X133288000Y-119153000D01*
X133340000Y-119150000D01*
X133392000Y-119153000D01*
G37*
X135932000Y-119153000D02*
X135984000Y-119161000D01*
X136035000Y-119174000D01*
X136083000Y-119193000D01*
X136130000Y-119217000D01*
X136174000Y-119245000D01*
X136215000Y-119278000D01*
X136252000Y-119315000D01*
X136285000Y-119356000D01*
X136313000Y-119400000D01*
X136337000Y-119447000D01*
X136356000Y-119495000D01*
X136369000Y-119546000D01*
X136377000Y-119598000D01*
X136380000Y-119650000D01*
X136380000Y-119750000D01*
X136380000Y-120550000D01*
X136380000Y-121450000D01*
X136377000Y-121502000D01*
X136369000Y-121554000D01*
X136356000Y-121605000D01*
X136337000Y-121653000D01*
X136313000Y-121700000D01*
X136285000Y-121744000D01*
X136252000Y-121785000D01*
X136215000Y-121822000D01*
X136174000Y-121855000D01*
X136130000Y-121883000D01*
X136083000Y-121907000D01*
X136035000Y-121926000D01*
X135984000Y-121939000D01*
X135932000Y-121947000D01*
X135880000Y-121950000D01*
X135828000Y-121947000D01*
X135776000Y-121939000D01*
X135725000Y-121926000D01*
X135677000Y-121907000D01*
X135630000Y-121883000D01*
X135586000Y-121855000D01*
X135545000Y-121822000D01*
X135508000Y-121785000D01*
X135475000Y-121744000D01*
X135447000Y-121700000D01*
X135423000Y-121653000D01*
X135404000Y-121605000D01*
X135391000Y-121554000D01*
X135383000Y-121502000D01*
X135380000Y-121450000D01*
X135380000Y-119650000D01*
X135383000Y-119598000D01*
X135391000Y-119546000D01*
X135404000Y-119495000D01*
X135423000Y-119447000D01*
X135447000Y-119400000D01*
X135475000Y-119356000D01*
X135508000Y-119315000D01*
X135545000Y-119278000D01*
X135586000Y-119245000D01*
X135630000Y-119217000D01*
X135677000Y-119193000D01*
X135725000Y-119174000D01*
X135776000Y-119161000D01*
X135828000Y-119153000D01*
X135880000Y-119150000D01*
X135932000Y-119153000D01*
G36*
X135932000Y-119153000D02*
G01*
X135984000Y-119161000D01*
X136035000Y-119174000D01*
X136083000Y-119193000D01*
X136130000Y-119217000D01*
X136174000Y-119245000D01*
X136215000Y-119278000D01*
X136252000Y-119315000D01*
X136285000Y-119356000D01*
X136313000Y-119400000D01*
X136337000Y-119447000D01*
X136356000Y-119495000D01*
X136369000Y-119546000D01*
X136377000Y-119598000D01*
X136380000Y-119650000D01*
X136380000Y-119750000D01*
X136380000Y-120550000D01*
X136380000Y-121450000D01*
X136377000Y-121502000D01*
X136369000Y-121554000D01*
X136356000Y-121605000D01*
X136337000Y-121653000D01*
X136313000Y-121700000D01*
X136285000Y-121744000D01*
X136252000Y-121785000D01*
X136215000Y-121822000D01*
X136174000Y-121855000D01*
X136130000Y-121883000D01*
X136083000Y-121907000D01*
X136035000Y-121926000D01*
X135984000Y-121939000D01*
X135932000Y-121947000D01*
X135880000Y-121950000D01*
X135828000Y-121947000D01*
X135776000Y-121939000D01*
X135725000Y-121926000D01*
X135677000Y-121907000D01*
X135630000Y-121883000D01*
X135586000Y-121855000D01*
X135545000Y-121822000D01*
X135508000Y-121785000D01*
X135475000Y-121744000D01*
X135447000Y-121700000D01*
X135423000Y-121653000D01*
X135404000Y-121605000D01*
X135391000Y-121554000D01*
X135383000Y-121502000D01*
X135380000Y-121450000D01*
X135380000Y-119650000D01*
X135383000Y-119598000D01*
X135391000Y-119546000D01*
X135404000Y-119495000D01*
X135423000Y-119447000D01*
X135447000Y-119400000D01*
X135475000Y-119356000D01*
X135508000Y-119315000D01*
X135545000Y-119278000D01*
X135586000Y-119245000D01*
X135630000Y-119217000D01*
X135677000Y-119193000D01*
X135725000Y-119174000D01*
X135776000Y-119161000D01*
X135828000Y-119153000D01*
X135880000Y-119150000D01*
X135932000Y-119153000D01*
G37*
X138472000Y-119153000D02*
X138524000Y-119161000D01*
X138575000Y-119174000D01*
X138623000Y-119193000D01*
X138670000Y-119217000D01*
X138714000Y-119245000D01*
X138755000Y-119278000D01*
X138792000Y-119315000D01*
X138825000Y-119356000D01*
X138853000Y-119400000D01*
X138877000Y-119447000D01*
X138896000Y-119495000D01*
X138909000Y-119546000D01*
X138917000Y-119598000D01*
X138920000Y-119650000D01*
X138920000Y-119750000D01*
X138920000Y-120550000D01*
X138920000Y-121450000D01*
X138917000Y-121502000D01*
X138909000Y-121554000D01*
X138896000Y-121605000D01*
X138877000Y-121653000D01*
X138853000Y-121700000D01*
X138825000Y-121744000D01*
X138792000Y-121785000D01*
X138755000Y-121822000D01*
X138714000Y-121855000D01*
X138670000Y-121883000D01*
X138623000Y-121907000D01*
X138575000Y-121926000D01*
X138524000Y-121939000D01*
X138472000Y-121947000D01*
X138420000Y-121950000D01*
X138368000Y-121947000D01*
X138316000Y-121939000D01*
X138265000Y-121926000D01*
X138217000Y-121907000D01*
X138170000Y-121883000D01*
X138126000Y-121855000D01*
X138085000Y-121822000D01*
X138048000Y-121785000D01*
X138015000Y-121744000D01*
X137987000Y-121700000D01*
X137963000Y-121653000D01*
X137944000Y-121605000D01*
X137931000Y-121554000D01*
X137923000Y-121502000D01*
X137920000Y-121450000D01*
X137920000Y-119650000D01*
X137923000Y-119598000D01*
X137931000Y-119546000D01*
X137944000Y-119495000D01*
X137963000Y-119447000D01*
X137987000Y-119400000D01*
X138015000Y-119356000D01*
X138048000Y-119315000D01*
X138085000Y-119278000D01*
X138126000Y-119245000D01*
X138170000Y-119217000D01*
X138217000Y-119193000D01*
X138265000Y-119174000D01*
X138316000Y-119161000D01*
X138368000Y-119153000D01*
X138420000Y-119150000D01*
X138472000Y-119153000D01*
G36*
X138472000Y-119153000D02*
G01*
X138524000Y-119161000D01*
X138575000Y-119174000D01*
X138623000Y-119193000D01*
X138670000Y-119217000D01*
X138714000Y-119245000D01*
X138755000Y-119278000D01*
X138792000Y-119315000D01*
X138825000Y-119356000D01*
X138853000Y-119400000D01*
X138877000Y-119447000D01*
X138896000Y-119495000D01*
X138909000Y-119546000D01*
X138917000Y-119598000D01*
X138920000Y-119650000D01*
X138920000Y-119750000D01*
X138920000Y-120550000D01*
X138920000Y-121450000D01*
X138917000Y-121502000D01*
X138909000Y-121554000D01*
X138896000Y-121605000D01*
X138877000Y-121653000D01*
X138853000Y-121700000D01*
X138825000Y-121744000D01*
X138792000Y-121785000D01*
X138755000Y-121822000D01*
X138714000Y-121855000D01*
X138670000Y-121883000D01*
X138623000Y-121907000D01*
X138575000Y-121926000D01*
X138524000Y-121939000D01*
X138472000Y-121947000D01*
X138420000Y-121950000D01*
X138368000Y-121947000D01*
X138316000Y-121939000D01*
X138265000Y-121926000D01*
X138217000Y-121907000D01*
X138170000Y-121883000D01*
X138126000Y-121855000D01*
X138085000Y-121822000D01*
X138048000Y-121785000D01*
X138015000Y-121744000D01*
X137987000Y-121700000D01*
X137963000Y-121653000D01*
X137944000Y-121605000D01*
X137931000Y-121554000D01*
X137923000Y-121502000D01*
X137920000Y-121450000D01*
X137920000Y-119650000D01*
X137923000Y-119598000D01*
X137931000Y-119546000D01*
X137944000Y-119495000D01*
X137963000Y-119447000D01*
X137987000Y-119400000D01*
X138015000Y-119356000D01*
X138048000Y-119315000D01*
X138085000Y-119278000D01*
X138126000Y-119245000D01*
X138170000Y-119217000D01*
X138217000Y-119193000D01*
X138265000Y-119174000D01*
X138316000Y-119161000D01*
X138368000Y-119153000D01*
X138420000Y-119150000D01*
X138472000Y-119153000D01*
G37*
X141012000Y-119153000D02*
X141064000Y-119161000D01*
X141115000Y-119174000D01*
X141163000Y-119193000D01*
X141210000Y-119217000D01*
X141254000Y-119245000D01*
X141295000Y-119278000D01*
X141332000Y-119315000D01*
X141365000Y-119356000D01*
X141393000Y-119400000D01*
X141417000Y-119447000D01*
X141436000Y-119495000D01*
X141449000Y-119546000D01*
X141457000Y-119598000D01*
X141460000Y-119650000D01*
X141460000Y-119750000D01*
X141460000Y-120550000D01*
X141460000Y-121450000D01*
X141457000Y-121502000D01*
X141449000Y-121554000D01*
X141436000Y-121605000D01*
X141417000Y-121653000D01*
X141393000Y-121700000D01*
X141365000Y-121744000D01*
X141332000Y-121785000D01*
X141295000Y-121822000D01*
X141254000Y-121855000D01*
X141210000Y-121883000D01*
X141163000Y-121907000D01*
X141115000Y-121926000D01*
X141064000Y-121939000D01*
X141012000Y-121947000D01*
X140960000Y-121950000D01*
X140908000Y-121947000D01*
X140856000Y-121939000D01*
X140805000Y-121926000D01*
X140757000Y-121907000D01*
X140710000Y-121883000D01*
X140666000Y-121855000D01*
X140625000Y-121822000D01*
X140588000Y-121785000D01*
X140555000Y-121744000D01*
X140527000Y-121700000D01*
X140503000Y-121653000D01*
X140484000Y-121605000D01*
X140471000Y-121554000D01*
X140463000Y-121502000D01*
X140460000Y-121450000D01*
X140460000Y-119650000D01*
X140463000Y-119598000D01*
X140471000Y-119546000D01*
X140484000Y-119495000D01*
X140503000Y-119447000D01*
X140527000Y-119400000D01*
X140555000Y-119356000D01*
X140588000Y-119315000D01*
X140625000Y-119278000D01*
X140666000Y-119245000D01*
X140710000Y-119217000D01*
X140757000Y-119193000D01*
X140805000Y-119174000D01*
X140856000Y-119161000D01*
X140908000Y-119153000D01*
X140960000Y-119150000D01*
X141012000Y-119153000D01*
G36*
X141012000Y-119153000D02*
G01*
X141064000Y-119161000D01*
X141115000Y-119174000D01*
X141163000Y-119193000D01*
X141210000Y-119217000D01*
X141254000Y-119245000D01*
X141295000Y-119278000D01*
X141332000Y-119315000D01*
X141365000Y-119356000D01*
X141393000Y-119400000D01*
X141417000Y-119447000D01*
X141436000Y-119495000D01*
X141449000Y-119546000D01*
X141457000Y-119598000D01*
X141460000Y-119650000D01*
X141460000Y-119750000D01*
X141460000Y-120550000D01*
X141460000Y-121450000D01*
X141457000Y-121502000D01*
X141449000Y-121554000D01*
X141436000Y-121605000D01*
X141417000Y-121653000D01*
X141393000Y-121700000D01*
X141365000Y-121744000D01*
X141332000Y-121785000D01*
X141295000Y-121822000D01*
X141254000Y-121855000D01*
X141210000Y-121883000D01*
X141163000Y-121907000D01*
X141115000Y-121926000D01*
X141064000Y-121939000D01*
X141012000Y-121947000D01*
X140960000Y-121950000D01*
X140908000Y-121947000D01*
X140856000Y-121939000D01*
X140805000Y-121926000D01*
X140757000Y-121907000D01*
X140710000Y-121883000D01*
X140666000Y-121855000D01*
X140625000Y-121822000D01*
X140588000Y-121785000D01*
X140555000Y-121744000D01*
X140527000Y-121700000D01*
X140503000Y-121653000D01*
X140484000Y-121605000D01*
X140471000Y-121554000D01*
X140463000Y-121502000D01*
X140460000Y-121450000D01*
X140460000Y-119650000D01*
X140463000Y-119598000D01*
X140471000Y-119546000D01*
X140484000Y-119495000D01*
X140503000Y-119447000D01*
X140527000Y-119400000D01*
X140555000Y-119356000D01*
X140588000Y-119315000D01*
X140625000Y-119278000D01*
X140666000Y-119245000D01*
X140710000Y-119217000D01*
X140757000Y-119193000D01*
X140805000Y-119174000D01*
X140856000Y-119161000D01*
X140908000Y-119153000D01*
X140960000Y-119150000D01*
X141012000Y-119153000D01*
G37*
X143552000Y-119153000D02*
X143604000Y-119161000D01*
X143655000Y-119174000D01*
X143703000Y-119193000D01*
X143750000Y-119217000D01*
X143794000Y-119245000D01*
X143835000Y-119278000D01*
X143872000Y-119315000D01*
X143905000Y-119356000D01*
X143933000Y-119400000D01*
X143957000Y-119447000D01*
X143976000Y-119495000D01*
X143989000Y-119546000D01*
X143997000Y-119598000D01*
X144000000Y-119650000D01*
X144000000Y-119750000D01*
X144000000Y-120550000D01*
X144000000Y-121450000D01*
X143997000Y-121502000D01*
X143989000Y-121554000D01*
X143976000Y-121605000D01*
X143957000Y-121653000D01*
X143933000Y-121700000D01*
X143905000Y-121744000D01*
X143872000Y-121785000D01*
X143835000Y-121822000D01*
X143794000Y-121855000D01*
X143750000Y-121883000D01*
X143703000Y-121907000D01*
X143655000Y-121926000D01*
X143604000Y-121939000D01*
X143552000Y-121947000D01*
X143500000Y-121950000D01*
X143448000Y-121947000D01*
X143396000Y-121939000D01*
X143345000Y-121926000D01*
X143297000Y-121907000D01*
X143250000Y-121883000D01*
X143206000Y-121855000D01*
X143165000Y-121822000D01*
X143128000Y-121785000D01*
X143095000Y-121744000D01*
X143067000Y-121700000D01*
X143043000Y-121653000D01*
X143024000Y-121605000D01*
X143011000Y-121554000D01*
X143003000Y-121502000D01*
X143000000Y-121450000D01*
X143000000Y-119650000D01*
X143003000Y-119598000D01*
X143011000Y-119546000D01*
X143024000Y-119495000D01*
X143043000Y-119447000D01*
X143067000Y-119400000D01*
X143095000Y-119356000D01*
X143128000Y-119315000D01*
X143165000Y-119278000D01*
X143206000Y-119245000D01*
X143250000Y-119217000D01*
X143297000Y-119193000D01*
X143345000Y-119174000D01*
X143396000Y-119161000D01*
X143448000Y-119153000D01*
X143500000Y-119150000D01*
X143552000Y-119153000D01*
G36*
X143552000Y-119153000D02*
G01*
X143604000Y-119161000D01*
X143655000Y-119174000D01*
X143703000Y-119193000D01*
X143750000Y-119217000D01*
X143794000Y-119245000D01*
X143835000Y-119278000D01*
X143872000Y-119315000D01*
X143905000Y-119356000D01*
X143933000Y-119400000D01*
X143957000Y-119447000D01*
X143976000Y-119495000D01*
X143989000Y-119546000D01*
X143997000Y-119598000D01*
X144000000Y-119650000D01*
X144000000Y-119750000D01*
X144000000Y-120550000D01*
X144000000Y-121450000D01*
X143997000Y-121502000D01*
X143989000Y-121554000D01*
X143976000Y-121605000D01*
X143957000Y-121653000D01*
X143933000Y-121700000D01*
X143905000Y-121744000D01*
X143872000Y-121785000D01*
X143835000Y-121822000D01*
X143794000Y-121855000D01*
X143750000Y-121883000D01*
X143703000Y-121907000D01*
X143655000Y-121926000D01*
X143604000Y-121939000D01*
X143552000Y-121947000D01*
X143500000Y-121950000D01*
X143448000Y-121947000D01*
X143396000Y-121939000D01*
X143345000Y-121926000D01*
X143297000Y-121907000D01*
X143250000Y-121883000D01*
X143206000Y-121855000D01*
X143165000Y-121822000D01*
X143128000Y-121785000D01*
X143095000Y-121744000D01*
X143067000Y-121700000D01*
X143043000Y-121653000D01*
X143024000Y-121605000D01*
X143011000Y-121554000D01*
X143003000Y-121502000D01*
X143000000Y-121450000D01*
X143000000Y-119650000D01*
X143003000Y-119598000D01*
X143011000Y-119546000D01*
X143024000Y-119495000D01*
X143043000Y-119447000D01*
X143067000Y-119400000D01*
X143095000Y-119356000D01*
X143128000Y-119315000D01*
X143165000Y-119278000D01*
X143206000Y-119245000D01*
X143250000Y-119217000D01*
X143297000Y-119193000D01*
X143345000Y-119174000D01*
X143396000Y-119161000D01*
X143448000Y-119153000D01*
X143500000Y-119150000D01*
X143552000Y-119153000D01*
G37*
%TD*%
D11*
%TO.C,J1*%
X151937500Y-112500000D03*
X151937500Y-108250000D03*
X151937500Y-116750000D03*
%TD*%
M02*
