%TF.GenerationSoftware,KiCad,Pcbnew,8.0.5-dirty*%
%TF.CreationDate,2024-10-01T21:11:00+10:00*%
%TF.ProjectId,kestral,6b657374-7261-46c2-9e6b-696361645f70,rev?*%
%TF.SameCoordinates,Original*%
%TF.FileFunction,Copper,L4,Bot*%
%TF.FilePolarity,Positive*%
%FSLAX46Y46*%
G04 Gerber Fmt 4.6, Leading zero omitted, Abs format (unit mm)*
G04 Created by KiCad (PCBNEW 8.0.5-dirty) date 2024-10-01 21:11:00*
%MOMM*%
%LPD*%
G01*
G04 APERTURE LIST*
%TA.AperFunction,ComponentPad*%
%ADD10C,1.803400*%
%TD*%
%TA.AperFunction,ComponentPad*%
%ADD11O,2.100000X1.000000*%
%TD*%
%TA.AperFunction,ComponentPad*%
%ADD12O,1.800000X1.000000*%
%TD*%
%TA.AperFunction,SMDPad,CuDef*%
%ADD13O,1.000000X2.500000*%
%TD*%
%TA.AperFunction,SMDPad,CuDef*%
%ADD14R,5.080000X1.500000*%
%TD*%
%TA.AperFunction,ViaPad*%
%ADD15C,0.600000*%
%TD*%
%TA.AperFunction,Conductor*%
%ADD16C,0.200000*%
%TD*%
%TA.AperFunction,Conductor*%
%ADD17C,0.356000*%
%TD*%
%TA.AperFunction,Conductor*%
%ADD18C,0.400000*%
%TD*%
G04 APERTURE END LIST*
D10*
%TO.P,J2,1,Pin_1*%
%TO.N,VBATT*%
X112689999Y-121400000D03*
%TO.P,J2,2,Pin_2*%
%TO.N,GND*%
X116500000Y-121400000D03*
%TD*%
D11*
%TO.P,J3,S1,SHIELD*%
%TO.N,unconnected-(J3-SHIELD-PadS1)_3*%
X106925000Y-108180000D03*
D12*
%TO.N,unconnected-(J3-SHIELD-PadS1)_1*%
X102725000Y-108180000D03*
D11*
%TO.N,unconnected-(J3-SHIELD-PadS1)*%
X106925000Y-116820000D03*
D12*
%TO.N,unconnected-(J3-SHIELD-PadS1)_2*%
X102725000Y-116820000D03*
%TD*%
D13*
%TO.P,U1,1,RXD1*%
%TO.N,MCU_TX*%
X143500000Y-120300000D03*
%TO.P,U1,2,TXD1*%
%TO.N,MCU_RX*%
X140960000Y-120300000D03*
%TO.P,U1,3,GND*%
%TO.N,GND*%
X138420000Y-120300000D03*
%TO.P,U1,4,VCC*%
%TO.N,+3V3*%
X135880000Y-120300000D03*
%TO.P,U1,5,V_BCKP*%
X133340000Y-120300000D03*
%TO.P,U1,6,1PPS*%
%TO.N,GPS_1PPS*%
X130800000Y-120300000D03*
%TO.P,U1,7,FORCE_ON*%
%TO.N,unconnected-(U1-FORCE_ON-Pad7)*%
X130800000Y-104800000D03*
%TO.P,U1,8,AADET_N*%
%TO.N,unconnected-(U1-AADET_N-Pad8)*%
X133340000Y-104800000D03*
%TO.P,U1,9*%
%TO.N,N/C*%
X135880000Y-104800000D03*
%TO.P,U1,10,~{RESET}*%
%TO.N,GPS_RST*%
X138420000Y-104800000D03*
%TO.P,U1,11,EX_ANT*%
%TO.N,unconnected-(U1-EX_ANT-Pad11)*%
X140960000Y-104800000D03*
%TO.P,U1,12,GND__1*%
%TO.N,GND*%
X143500000Y-104800000D03*
%TD*%
D14*
%TO.P,J1,1,In*%
%TO.N,Net-(J1-In)*%
X151937500Y-112500000D03*
%TO.P,J1,2,Ext*%
%TO.N,GND*%
X151937500Y-108250000D03*
X151937500Y-116750000D03*
%TD*%
D15*
%TO.N,QSPI_SS*%
X109450000Y-118450000D03*
%TO.N,+3V3*%
X101700000Y-118400000D03*
%TO.N,GND*%
X105800000Y-124200000D03*
X128475000Y-121700000D03*
X119200000Y-111820000D03*
X119200000Y-114900000D03*
X148750000Y-110500000D03*
X115205000Y-114232500D03*
X148750000Y-109000000D03*
X148750000Y-117500000D03*
X130200000Y-109000000D03*
X146100000Y-102500000D03*
X148750000Y-107500000D03*
X108975000Y-116250000D03*
X138200000Y-118200000D03*
X148750000Y-120500000D03*
X134850000Y-122650000D03*
X106200000Y-101100000D03*
X148750000Y-123500000D03*
X148750000Y-116000000D03*
X122762500Y-123275000D03*
X148750000Y-106000000D03*
X148750000Y-104500000D03*
X127912500Y-107482500D03*
X106200000Y-104900000D03*
X117210000Y-113800000D03*
X148750000Y-122000000D03*
X108975000Y-108750000D03*
X123795634Y-114802885D03*
X132100000Y-103200000D03*
X127100000Y-113900000D03*
X122318488Y-113384315D03*
X148750000Y-119000000D03*
X148750000Y-114500000D03*
X125150000Y-105532500D03*
X148750000Y-101500000D03*
X148750000Y-103000000D03*
%TO.N,Net-(J1-In)*%
X143600000Y-112500000D03*
%TO.N,USB_D+*%
X109000000Y-112400000D03*
X113355000Y-105032500D03*
%TO.N,USB_D-*%
X109000000Y-111599997D03*
X113355000Y-103532500D03*
%TO.N,RF_DIO*%
X141500000Y-117900000D03*
X122800000Y-110200000D03*
%TO.N,RF_RST*%
X123700000Y-110400000D03*
X134300000Y-109500000D03*
%TO.N,MISO*%
X143200000Y-102800000D03*
X127500000Y-102000000D03*
%TO.N,+3V3*%
X119987500Y-118125000D03*
X112265000Y-106932500D03*
X119987500Y-119525000D03*
X109800000Y-105800000D03*
X137500000Y-101000000D03*
X119987500Y-118825000D03*
X129562500Y-105332500D03*
X117900000Y-102132500D03*
X127700000Y-103500000D03*
X126925000Y-121575000D03*
X123400000Y-111500000D03*
X123800000Y-100982500D03*
X139487500Y-122687500D03*
X117223131Y-105532500D03*
X122100000Y-111200000D03*
X118124265Y-110224265D03*
%TO.N,MOSI*%
X141300000Y-108300000D03*
X125000000Y-100982500D03*
%TO.N,+1V1*%
X117300000Y-102900000D03*
X124700000Y-111420000D03*
X128600000Y-104400000D03*
X118251472Y-105532500D03*
%TO.N,MCU_RX*%
X119800000Y-111000000D03*
X142100000Y-122600000D03*
X125800000Y-123000000D03*
%TO.N,GPS_RST*%
X139600000Y-102900000D03*
X136750000Y-110750000D03*
X120883750Y-111516250D03*
%TO.N,MCU_TX*%
X143800000Y-122400000D03*
X124900000Y-123400000D03*
X119000000Y-110400000D03*
%TO.N,Net-(U3-QSPI_SD1)*%
X112670000Y-114220000D03*
X117278765Y-107628735D03*
%TO.N,Net-(U3-QSPI_SD2)*%
X118180113Y-107532500D03*
X113940000Y-114220000D03*
%TO.N,QSPI_SS*%
X111375000Y-114230000D03*
X116382528Y-107532500D03*
%TO.N,GPS_1PPS*%
X129500000Y-122300000D03*
X113300000Y-116000000D03*
X113100000Y-101500000D03*
%TD*%
D16*
%TO.N,GND*%
X143800000Y-104800000D02*
X146100000Y-102500000D01*
X138420000Y-118420000D02*
X138200000Y-118200000D01*
X143500000Y-104800000D02*
X143800000Y-104800000D01*
X138420000Y-120300000D02*
X138420000Y-118420000D01*
D17*
%TO.N,Net-(J1-In)*%
X143600000Y-112500000D02*
X152500000Y-112500000D01*
D16*
%TO.N,USB_D+*%
X109000000Y-112400000D02*
X109200003Y-112199997D01*
X109616897Y-107907000D02*
X112491397Y-105032500D01*
X110024980Y-109184917D02*
X110024980Y-108315083D01*
X110024980Y-108315083D02*
X109616897Y-107907000D01*
X109248529Y-112199997D02*
X109600000Y-111848526D01*
X109200003Y-112199997D02*
X109248529Y-112199997D01*
X109600000Y-111351468D02*
X109450000Y-111201468D01*
X109450000Y-109759897D02*
X110024980Y-109184917D01*
X109600000Y-111848526D02*
X109600000Y-111351468D01*
X109450000Y-111201468D02*
X109450000Y-109759897D01*
X112491397Y-105032500D02*
X113355000Y-105032500D01*
%TO.N,USB_D-*%
X109000000Y-109350000D02*
X109223529Y-109350000D01*
X109575000Y-108501471D02*
X109223529Y-108150000D01*
X109223529Y-108150000D02*
X109000000Y-108150000D01*
X109223529Y-109350000D02*
X109575000Y-108998529D01*
X109000000Y-107887500D02*
X113355000Y-103532500D01*
X109000000Y-111599997D02*
X109000000Y-109350000D01*
X109000000Y-108150000D02*
X109000000Y-107887500D01*
X109575000Y-108998529D02*
X109575000Y-108501471D01*
%TO.N,RF_DIO*%
X122800000Y-111117106D02*
X122758553Y-111158553D01*
X140900000Y-117300000D02*
X141500000Y-117900000D01*
X122758553Y-111858553D02*
X128200000Y-117300000D01*
X128200000Y-117300000D02*
X140900000Y-117300000D01*
X122800000Y-110200000D02*
X122800000Y-111117106D01*
X122758553Y-111158553D02*
X122758553Y-111858553D01*
%TO.N,RF_RST*%
X134000000Y-109800000D02*
X124300000Y-109800000D01*
X134300000Y-109500000D02*
X134000000Y-109800000D01*
X124300000Y-109800000D02*
X123700000Y-110400000D01*
%TO.N,MISO*%
X127500000Y-102000000D02*
X142400000Y-102000000D01*
X142400000Y-102000000D02*
X143200000Y-102800000D01*
D18*
%TO.N,+3V3*%
X130640000Y-123000000D02*
X133340000Y-120300000D01*
X135880000Y-120300000D02*
X133340000Y-120300000D01*
X128350000Y-123000000D02*
X130640000Y-123000000D01*
X126925000Y-121575000D02*
X128350000Y-123000000D01*
D16*
%TO.N,MOSI*%
X125000000Y-102700000D02*
X125000000Y-100982500D01*
X130600000Y-108300000D02*
X125000000Y-102700000D01*
X141300000Y-108300000D02*
X130600000Y-108300000D01*
%TO.N,MCU_RX*%
X140960000Y-120300000D02*
X140960000Y-121460000D01*
X140960000Y-121460000D02*
X142100000Y-122600000D01*
%TO.N,GPS_RST*%
X138420000Y-104080000D02*
X139600000Y-102900000D01*
X138420000Y-104800000D02*
X138420000Y-104080000D01*
%TO.N,MCU_TX*%
X143500000Y-120300000D02*
X143500000Y-122100000D01*
X143500000Y-122100000D02*
X143800000Y-122400000D01*
%TO.N,GPS_1PPS*%
X130800000Y-121000000D02*
X129500000Y-122300000D01*
X130800000Y-120300000D02*
X130800000Y-121000000D01*
%TD*%
%TA.AperFunction,Conductor*%
%TO.N,GND*%
G36*
X148955203Y-113499061D02*
G01*
X148973264Y-113518459D01*
X149039954Y-113607546D01*
X149086143Y-113642123D01*
X149155164Y-113693793D01*
X149155171Y-113693797D01*
X149290017Y-113744091D01*
X149290016Y-113744091D01*
X149296944Y-113744835D01*
X149349627Y-113750500D01*
X154375500Y-113750499D01*
X154442539Y-113770184D01*
X154488294Y-113822988D01*
X154499500Y-113874499D01*
X154499500Y-121996249D01*
X154499274Y-122003736D01*
X154481728Y-122293794D01*
X154479923Y-122308659D01*
X154428219Y-122590798D01*
X154424635Y-122605336D01*
X154339306Y-122879167D01*
X154333997Y-122893168D01*
X154216275Y-123154736D01*
X154209316Y-123167995D01*
X154060928Y-123413459D01*
X154052422Y-123425782D01*
X153875526Y-123651573D01*
X153865596Y-123662781D01*
X153662781Y-123865596D01*
X153651573Y-123875526D01*
X153425782Y-124052422D01*
X153413459Y-124060928D01*
X153167995Y-124209316D01*
X153154736Y-124216275D01*
X152893168Y-124333997D01*
X152879167Y-124339306D01*
X152605336Y-124424635D01*
X152590798Y-124428219D01*
X152308659Y-124479923D01*
X152293794Y-124481728D01*
X152003736Y-124499274D01*
X151996249Y-124499500D01*
X148874000Y-124499500D01*
X148806961Y-124479815D01*
X148761206Y-124427011D01*
X148750000Y-124375500D01*
X148750000Y-122000000D01*
X149894592Y-122000000D01*
X149914201Y-122286680D01*
X149972666Y-122568034D01*
X149972667Y-122568037D01*
X150068894Y-122838793D01*
X150068893Y-122838793D01*
X150201098Y-123093935D01*
X150366812Y-123328700D01*
X150445972Y-123413459D01*
X150562947Y-123538708D01*
X150701677Y-123651573D01*
X150785853Y-123720055D01*
X151031382Y-123869365D01*
X151218237Y-123950526D01*
X151294942Y-123983844D01*
X151571642Y-124061371D01*
X151821920Y-124095771D01*
X151856321Y-124100500D01*
X151856322Y-124100500D01*
X152143679Y-124100500D01*
X152174370Y-124096281D01*
X152428358Y-124061371D01*
X152705058Y-123983844D01*
X152818015Y-123934779D01*
X152968617Y-123869365D01*
X152968620Y-123869363D01*
X152968625Y-123869361D01*
X153214147Y-123720055D01*
X153437053Y-123538708D01*
X153633189Y-123328698D01*
X153798901Y-123093936D01*
X153931104Y-122838797D01*
X154027334Y-122568032D01*
X154085798Y-122286686D01*
X154105408Y-122000000D01*
X154085798Y-121713314D01*
X154027334Y-121431968D01*
X153931105Y-121161206D01*
X153931106Y-121161206D01*
X153798901Y-120906064D01*
X153633187Y-120671299D01*
X153554554Y-120587105D01*
X153437053Y-120461292D01*
X153214147Y-120279945D01*
X153214146Y-120279944D01*
X152968617Y-120130634D01*
X152705063Y-120016158D01*
X152705061Y-120016157D01*
X152705058Y-120016156D01*
X152575578Y-119979877D01*
X152428364Y-119938630D01*
X152428359Y-119938629D01*
X152428358Y-119938629D01*
X152286018Y-119919064D01*
X152143679Y-119899500D01*
X152143678Y-119899500D01*
X151856322Y-119899500D01*
X151856321Y-119899500D01*
X151571642Y-119938629D01*
X151571635Y-119938630D01*
X151363861Y-119996845D01*
X151294942Y-120016156D01*
X151294939Y-120016156D01*
X151294936Y-120016158D01*
X151294935Y-120016158D01*
X151031382Y-120130634D01*
X150785853Y-120279944D01*
X150562950Y-120461289D01*
X150366812Y-120671299D01*
X150201098Y-120906064D01*
X150068894Y-121161206D01*
X149972667Y-121431962D01*
X149972666Y-121431965D01*
X149914201Y-121713319D01*
X149894592Y-122000000D01*
X148750000Y-122000000D01*
X148750000Y-113592774D01*
X148769685Y-113525735D01*
X148822489Y-113479980D01*
X148891647Y-113470036D01*
X148955203Y-113499061D01*
G37*
%TD.AperFunction*%
%TA.AperFunction,Conductor*%
G36*
X152003736Y-100500726D02*
G01*
X152293796Y-100518271D01*
X152308659Y-100520076D01*
X152590798Y-100571780D01*
X152605335Y-100575363D01*
X152879172Y-100660695D01*
X152893163Y-100666000D01*
X153154743Y-100783727D01*
X153167989Y-100790680D01*
X153413465Y-100939075D01*
X153425776Y-100947573D01*
X153513319Y-101016158D01*
X153651573Y-101124473D01*
X153662781Y-101134403D01*
X153865596Y-101337218D01*
X153875526Y-101348426D01*
X153995481Y-101501538D01*
X154052422Y-101574217D01*
X154060926Y-101586537D01*
X154112168Y-101671302D01*
X154209316Y-101832004D01*
X154216275Y-101845263D01*
X154333997Y-102106831D01*
X154339306Y-102120832D01*
X154424635Y-102394663D01*
X154428219Y-102409201D01*
X154479923Y-102691340D01*
X154481728Y-102706205D01*
X154499274Y-102996263D01*
X154499500Y-103003750D01*
X154499500Y-111125500D01*
X154479815Y-111192539D01*
X154427011Y-111238294D01*
X154375500Y-111249500D01*
X149349629Y-111249500D01*
X149349623Y-111249501D01*
X149290016Y-111255908D01*
X149155171Y-111306202D01*
X149155164Y-111306206D01*
X149039955Y-111392452D01*
X148973266Y-111481537D01*
X148917332Y-111523407D01*
X148847640Y-111528391D01*
X148786318Y-111494905D01*
X148752833Y-111433582D01*
X148750000Y-111407225D01*
X148750000Y-103000000D01*
X149894592Y-103000000D01*
X149914201Y-103286680D01*
X149972666Y-103568034D01*
X149972667Y-103568037D01*
X150068894Y-103838793D01*
X150068893Y-103838793D01*
X150201098Y-104093935D01*
X150366812Y-104328700D01*
X150451923Y-104419831D01*
X150562947Y-104538708D01*
X150785853Y-104720055D01*
X151031382Y-104869365D01*
X151218237Y-104950526D01*
X151294942Y-104983844D01*
X151571642Y-105061371D01*
X151821920Y-105095771D01*
X151856321Y-105100500D01*
X151856322Y-105100500D01*
X152143679Y-105100500D01*
X152174370Y-105096281D01*
X152428358Y-105061371D01*
X152705058Y-104983844D01*
X152818015Y-104934779D01*
X152968617Y-104869365D01*
X152968620Y-104869363D01*
X152968625Y-104869361D01*
X153214147Y-104720055D01*
X153437053Y-104538708D01*
X153633189Y-104328698D01*
X153798901Y-104093936D01*
X153931104Y-103838797D01*
X154027334Y-103568032D01*
X154085798Y-103286686D01*
X154105408Y-103000000D01*
X154085798Y-102713314D01*
X154027334Y-102431968D01*
X153931105Y-102161206D01*
X153931106Y-102161206D01*
X153798901Y-101906064D01*
X153633187Y-101671299D01*
X153542518Y-101574217D01*
X153437053Y-101461292D01*
X153214147Y-101279945D01*
X153214146Y-101279944D01*
X152968617Y-101130634D01*
X152705063Y-101016158D01*
X152705061Y-101016157D01*
X152705058Y-101016156D01*
X152575578Y-100979877D01*
X152428364Y-100938630D01*
X152428359Y-100938629D01*
X152428358Y-100938629D01*
X152236367Y-100912240D01*
X152143679Y-100899500D01*
X152143678Y-100899500D01*
X151856322Y-100899500D01*
X151856321Y-100899500D01*
X151571642Y-100938629D01*
X151571635Y-100938630D01*
X151363861Y-100996845D01*
X151294942Y-101016156D01*
X151294939Y-101016156D01*
X151294936Y-101016158D01*
X151294935Y-101016158D01*
X151031382Y-101130634D01*
X150785853Y-101279944D01*
X150562950Y-101461289D01*
X150366812Y-101671299D01*
X150201098Y-101906064D01*
X150068894Y-102161206D01*
X149972667Y-102431962D01*
X149972666Y-102431965D01*
X149914201Y-102713319D01*
X149894592Y-103000000D01*
X148750000Y-103000000D01*
X148750000Y-100624500D01*
X148769685Y-100557461D01*
X148822489Y-100511706D01*
X148874000Y-100500500D01*
X151934108Y-100500500D01*
X151996249Y-100500500D01*
X152003736Y-100500726D01*
G37*
%TD.AperFunction*%
%TD*%
M02*
