%TF.GenerationSoftware,KiCad,Pcbnew,8.0.5-dirty*%
%TF.CreationDate,2024-10-01T21:11:00+10:00*%
%TF.ProjectId,kestral,6b657374-7261-46c2-9e6b-696361645f70,rev?*%
%TF.SameCoordinates,Original*%
%TF.FileFunction,Legend,Top*%
%TF.FilePolarity,Positive*%
%FSLAX46Y46*%
G04 Gerber Fmt 4.6, Leading zero omitted, Abs format (unit mm)*
G04 Created by KiCad (PCBNEW 8.0.5-dirty) date 2024-10-01 21:11:00*
%MOMM*%
%LPD*%
G01*
G04 APERTURE LIST*
%ADD10C,0.150000*%
%ADD11C,0.120000*%
%ADD12C,0.152400*%
%ADD13C,0.127000*%
%ADD14C,0.200000*%
G04 APERTURE END LIST*
D10*
X103179819Y-112833333D02*
X103894104Y-112833333D01*
X103894104Y-112833333D02*
X104036961Y-112880952D01*
X104036961Y-112880952D02*
X104132200Y-112976190D01*
X104132200Y-112976190D02*
X104179819Y-113119047D01*
X104179819Y-113119047D02*
X104179819Y-113214285D01*
X103179819Y-112452380D02*
X103179819Y-111833333D01*
X103179819Y-111833333D02*
X103560771Y-112166666D01*
X103560771Y-112166666D02*
X103560771Y-112023809D01*
X103560771Y-112023809D02*
X103608390Y-111928571D01*
X103608390Y-111928571D02*
X103656009Y-111880952D01*
X103656009Y-111880952D02*
X103751247Y-111833333D01*
X103751247Y-111833333D02*
X103989342Y-111833333D01*
X103989342Y-111833333D02*
X104084580Y-111880952D01*
X104084580Y-111880952D02*
X104132200Y-111928571D01*
X104132200Y-111928571D02*
X104179819Y-112023809D01*
X104179819Y-112023809D02*
X104179819Y-112309523D01*
X104179819Y-112309523D02*
X104132200Y-112404761D01*
X104132200Y-112404761D02*
X104084580Y-112452380D01*
D11*
%TO.C,R9*%
X103837742Y-118077500D02*
X104312258Y-118077500D01*
X103837742Y-119122500D02*
X104312258Y-119122500D01*
%TO.C,SW1*%
X109800000Y-120000000D02*
X109680000Y-120000000D01*
X108670000Y-120000000D02*
X107530000Y-120000000D01*
X106520000Y-120000000D02*
X106400000Y-120000000D01*
X106400000Y-120000000D02*
X106400000Y-124400000D01*
X109800000Y-124400000D02*
X109800000Y-120000000D01*
X109680000Y-124400000D02*
X109800000Y-124400000D01*
X107530000Y-124400000D02*
X108670000Y-124400000D01*
X106400000Y-124400000D02*
X106520000Y-124400000D01*
D12*
%TO.C,J2*%
X110249799Y-117273000D02*
X110249799Y-124918400D01*
X110249799Y-124918400D02*
X118530199Y-124918400D01*
X118530199Y-117273000D02*
X110249799Y-117273000D01*
X118530199Y-124918400D02*
X118530199Y-117273000D01*
D11*
%TO.C,C5*%
X129370580Y-114040000D02*
X129089420Y-114040000D01*
X129370580Y-115060000D02*
X129089420Y-115060000D01*
%TO.C,U5*%
X110695000Y-113510000D02*
X110695000Y-107520000D01*
X115915000Y-113520000D02*
X115915000Y-107520000D01*
X110995000Y-114230000D02*
X110515000Y-113750000D01*
X110995000Y-113750000D01*
X110995000Y-114230000D01*
G36*
X110995000Y-114230000D02*
G01*
X110515000Y-113750000D01*
X110995000Y-113750000D01*
X110995000Y-114230000D01*
G37*
%TO.C,C8*%
X123965580Y-113605000D02*
X123684420Y-113605000D01*
X123965580Y-114625000D02*
X123684420Y-114625000D01*
%TO.C,U2*%
X131000000Y-104800000D02*
X131000000Y-121000000D01*
X131000000Y-121000000D02*
X131400000Y-121000000D01*
X131400000Y-104800000D02*
X131000000Y-104800000D01*
X147200000Y-104800000D02*
X147200000Y-121000000D01*
X147200000Y-121000000D02*
X146800000Y-121000000D01*
X147336000Y-104540000D02*
X147000000Y-104300000D01*
X147336000Y-104060000D01*
X147336000Y-104540000D01*
G36*
X147336000Y-104540000D02*
G01*
X147000000Y-104300000D01*
X147336000Y-104060000D01*
X147336000Y-104540000D01*
G37*
%TO.C,C3*%
X115990000Y-115434420D02*
X115990000Y-115715580D01*
X117010000Y-115434420D02*
X117010000Y-115715580D01*
%TO.C,J3*%
X100015000Y-107920000D02*
X101720000Y-107920000D01*
X100015000Y-117080000D02*
X100015000Y-107920000D01*
X101720000Y-117080000D02*
X100015000Y-117080000D01*
X103730000Y-117080000D02*
X105650000Y-117080000D01*
X105650000Y-107920000D02*
X103730000Y-107920000D01*
%TO.C,C1*%
X123752500Y-121115580D02*
X123752500Y-120834420D01*
X124772500Y-121115580D02*
X124772500Y-120834420D01*
%TO.C,U3*%
X119190000Y-101922500D02*
X119840000Y-101922500D01*
X119190000Y-102572500D02*
X119190000Y-101922500D01*
X119190000Y-108492500D02*
X119190000Y-108842500D01*
X119840000Y-109142500D02*
X119430000Y-109142500D01*
X126410000Y-101922500D02*
X125760000Y-101922500D01*
X126410000Y-102572500D02*
X126410000Y-101922500D01*
X126410000Y-108492500D02*
X126410000Y-109142500D01*
X126410000Y-109142500D02*
X125760000Y-109142500D01*
X119190000Y-109142500D02*
X118860000Y-109382500D01*
X118860000Y-108902500D01*
X119190000Y-109142500D01*
G36*
X119190000Y-109142500D02*
G01*
X118860000Y-109382500D01*
X118860000Y-108902500D01*
X119190000Y-109142500D01*
G37*
%TO.C,R8*%
X111337258Y-100977500D02*
X110862742Y-100977500D01*
X111337258Y-102022500D02*
X110862742Y-102022500D01*
%TO.C,C15*%
X127559420Y-120090000D02*
X127840580Y-120090000D01*
X127559420Y-121110000D02*
X127840580Y-121110000D01*
%TO.C,C9*%
X120915580Y-112120000D02*
X120634420Y-112120000D01*
X120915580Y-113140000D02*
X120634420Y-113140000D01*
%TO.C,D3*%
X106627500Y-100765000D02*
X106627500Y-102235000D01*
X106627500Y-102235000D02*
X108912500Y-102235000D01*
X108912500Y-100765000D02*
X106627500Y-100765000D01*
%TO.C,U4*%
X121125000Y-119665000D02*
X120325000Y-119665000D01*
X121125000Y-119665000D02*
X121925000Y-119665000D01*
X121125000Y-122785000D02*
X120325000Y-122785000D01*
X121125000Y-122785000D02*
X121925000Y-122785000D01*
X119825000Y-119715000D02*
X119585000Y-119385000D01*
X120065000Y-119385000D01*
X119825000Y-119715000D01*
G36*
X119825000Y-119715000D02*
G01*
X119585000Y-119385000D01*
X120065000Y-119385000D01*
X119825000Y-119715000D01*
G37*
%TO.C,C2*%
X117500000Y-115434420D02*
X117500000Y-115715580D01*
X118520000Y-115434420D02*
X118520000Y-115715580D01*
%TO.C,C7*%
X123965580Y-115105000D02*
X123684420Y-115105000D01*
X123965580Y-116125000D02*
X123684420Y-116125000D01*
%TO.C,C13*%
X137240580Y-122690000D02*
X136959420Y-122690000D01*
X137240580Y-123710000D02*
X136959420Y-123710000D01*
D13*
%TO.C,Y1*%
X127850000Y-111280000D02*
X127850000Y-111820000D01*
X130350000Y-111820000D02*
X130350000Y-111280000D01*
D14*
X128230000Y-109200000D02*
G75*
G02*
X128030000Y-109200000I-100000J0D01*
G01*
X128030000Y-109200000D02*
G75*
G02*
X128230000Y-109200000I100000J0D01*
G01*
D11*
%TO.C,R2*%
X106862742Y-118077500D02*
X107337258Y-118077500D01*
X106862742Y-119122500D02*
X107337258Y-119122500D01*
%TO.C,C12*%
X123965580Y-112105000D02*
X123684420Y-112105000D01*
X123965580Y-113125000D02*
X123684420Y-113125000D01*
%TO.C,R5*%
X111337258Y-103977500D02*
X110862742Y-103977500D01*
X111337258Y-105022500D02*
X110862742Y-105022500D01*
%TO.C,C4*%
X120821920Y-123215000D02*
X121103080Y-123215000D01*
X120821920Y-124235000D02*
X121103080Y-124235000D01*
%TO.C,R4*%
X114862742Y-103010000D02*
X115337258Y-103010000D01*
X114862742Y-104055000D02*
X115337258Y-104055000D01*
%TO.C,R7*%
X139037742Y-101077500D02*
X139512258Y-101077500D01*
X139037742Y-102122500D02*
X139512258Y-102122500D01*
%TO.C,R1*%
X106862742Y-105897500D02*
X107337258Y-105897500D01*
X106862742Y-106942500D02*
X107337258Y-106942500D01*
%TO.C,C6*%
X125945000Y-111384420D02*
X125945000Y-111665580D01*
X126965000Y-111384420D02*
X126965000Y-111665580D01*
%TO.C,L1*%
X121362500Y-116515000D02*
X124562500Y-116515000D01*
X124562500Y-119235000D02*
X121362500Y-119235000D01*
%TO.C,C10*%
X120915580Y-115120000D02*
X120634420Y-115120000D01*
X120915580Y-116140000D02*
X120634420Y-116140000D01*
%TO.C,R3*%
X114862742Y-104510000D02*
X115337258Y-104510000D01*
X114862742Y-105555000D02*
X115337258Y-105555000D01*
%TO.C,R6*%
X111337258Y-102477500D02*
X110862742Y-102477500D01*
X111337258Y-103522500D02*
X110862742Y-103522500D01*
%TO.C,C14*%
X127559420Y-118590000D02*
X127840580Y-118590000D01*
X127559420Y-119610000D02*
X127840580Y-119610000D01*
%TO.C,D1*%
X106627500Y-103765000D02*
X106627500Y-105235000D01*
X106627500Y-105235000D02*
X108912500Y-105235000D01*
X108912500Y-103765000D02*
X106627500Y-103765000D01*
%TO.C,C11*%
X120915580Y-113610000D02*
X120634420Y-113610000D01*
X120915580Y-114630000D02*
X120634420Y-114630000D01*
%TO.C,D2*%
X106627500Y-102265000D02*
X106627500Y-103735000D01*
X106627500Y-103735000D02*
X108912500Y-103735000D01*
X108912500Y-102265000D02*
X106627500Y-102265000D01*
%TD*%
M02*
